<svg width="95" height="74" viewBox="0 0 95 74" fill="none" xmlns="http://www.w3.org/2000/svg">
<path d="M9.23905 52.6C7.91638 52.6 6.82838 52.216 5.97505 51.448C5.16438 50.68 4.84438 49.528 5.01505 47.992C5.05772 47.4373 5.18572 46.8613 5.39905 46.264C5.65505 45.624 5.93238 45.0053 6.23105 44.408C6.48705 43.8107 6.74305 43.512 6.99905 43.512C7.21238 43.512 7.23372 43.6827 7.06305 44.024C6.50838 45.176 6.23105 46.2 6.23105 47.096C6.23105 48.0347 6.55105 48.7387 7.19105 49.208C7.87372 49.6773 8.74838 49.912 9.81505 49.912C11.9057 49.912 14.2097 49.2507 16.7271 47.928C19.2444 46.5627 21.8471 44.8347 24.5351 42.744C27.2231 40.6107 29.8044 38.392 32.2791 36.088C30.6151 36.0027 29.0577 35.9173 27.6071 35.832C26.1564 35.7467 24.8764 35.704 23.7671 35.704C22.8284 35.704 21.6977 35.7893 20.3751 35.96C19.0524 36.1307 18.0284 36.5787 17.3031 37.304C17.0044 37.6027 16.7271 38.0507 16.4711 38.648C16.2577 39.2027 16.1511 39.7787 16.1511 40.376C16.1511 40.5467 16.1511 40.7173 16.1511 40.888C16.1937 41.016 16.2364 41.1653 16.2791 41.336C16.1084 41.2507 15.7884 41.1867 15.3191 41.144C14.8924 41.0587 14.6151 40.7813 14.4871 40.312C14.4444 40.184 14.4231 39.9707 14.4231 39.672C14.4231 38.9893 14.6791 38.4347 15.1911 38.008C15.7031 37.5387 16.3217 37.1333 17.0471 36.792C17.7724 36.4507 18.4337 36.152 19.0311 35.896C20.4391 35.2987 21.8897 34.808 23.3831 34.424C24.8764 34.04 26.3911 33.848 27.9271 33.848C29.6764 33.848 31.8524 33.912 34.4551 34.04C36.4604 32.0773 38.3164 30.2213 40.0231 28.472C41.7297 26.7227 43.1164 25.272 44.1831 24.12C45.6764 22.5413 47.2551 21.1973 48.9191 20.088C50.6257 18.936 52.3537 18.1253 54.1031 17.656H50.5831C49.0897 17.656 47.4684 17.72 45.7191 17.848C43.9697 17.976 42.3271 18.2533 40.7911 18.68C39.2551 19.1067 37.9751 19.7467 36.9511 20.6C36.3111 21.1547 35.8204 21.7947 35.4791 22.52C35.1804 23.2027 35.0311 23.8427 35.0311 24.44C35.0311 25.2507 35.2657 25.8053 35.7351 26.104C35.7777 26.104 35.7991 26.1253 35.7991 26.168C35.7991 26.296 35.6497 26.4453 35.3511 26.616C35.0524 26.744 34.8391 26.7653 34.7111 26.68C34.2844 26.3813 33.9004 25.784 33.5591 24.888C33.2604 23.9493 33.1537 23.2027 33.2391 22.648C33.4524 21.3253 34.0284 20.2587 34.9671 19.448C35.9484 18.5947 37.1431 17.9333 38.5511 17.464C40.0017 16.9947 41.5164 16.6747 43.0951 16.504C44.7164 16.3333 46.2524 16.2267 47.7031 16.184C49.1964 16.1413 50.4551 16.12 51.4791 16.12H58.4551C58.5404 16.12 58.5617 16.1413 58.5191 16.184C59.5857 15.7147 60.6951 15.2453 61.8471 14.776C63.0417 14.3067 64.0657 14.072 64.9191 14.072C65.1324 14.072 65.3457 14.136 65.5591 14.264C65.8151 14.392 65.9431 14.52 65.9431 14.648C65.9431 14.8613 65.5164 14.968 64.6631 14.968C64.2364 14.968 63.7884 15.0533 63.3191 15.224C62.8924 15.352 62.3164 15.8 61.5911 16.568C60.9937 17.1653 60.2471 18.1253 59.3511 19.448C58.4551 20.7707 57.4737 22.328 56.4071 24.12C55.3404 25.8693 54.2737 27.7467 53.2071 29.752C52.1404 31.7147 51.1164 33.656 50.1351 35.576C49.1537 37.496 48.3004 39.2667 47.5751 40.888C47.4897 41.144 47.2551 41.7413 46.8711 42.68C46.4871 43.576 46.1244 44.5787 45.7831 45.688C45.4417 46.7547 45.2711 47.7147 45.2711 48.568C45.2711 49.72 45.6764 50.296 46.4871 50.296C46.8711 50.296 47.2551 50.2107 47.6391 50.04C48.1937 49.8267 48.7697 49.5067 49.3671 49.08C49.9644 48.6533 50.5404 48.1627 51.0951 47.608C52.2044 46.5413 53.1431 45.5173 53.9111 44.536C54.6791 43.512 55.1484 42.8933 55.3191 42.68C55.4471 42.4667 55.5964 42.36 55.7671 42.36C55.9377 42.36 56.0231 42.4667 56.0231 42.68C56.0231 42.808 55.9591 42.9787 55.8311 43.192C55.5324 43.6187 54.9777 44.3653 54.1671 45.432C53.3564 46.456 52.3964 47.5013 51.2871 48.568C50.2204 49.6347 49.0684 50.4453 47.8311 51C47.4471 51.1707 47.0417 51.2987 46.6151 51.384C46.1884 51.512 45.7617 51.576 45.3351 51.576C44.4817 51.576 43.6924 51.2773 42.9671 50.68C42.2844 50.0827 41.9431 49.1013 41.9431 47.736C41.9431 46.4987 42.1777 45.176 42.6471 43.768C43.1591 42.3173 43.6284 41.144 44.0551 40.248C44.9084 38.4133 45.9111 36.3653 47.0631 34.104C48.2577 31.8427 49.4737 29.5813 50.7111 27.32C51.9911 25.0587 53.1644 23.0107 54.2311 21.176C55.2977 19.3413 56.1724 17.976 56.8551 17.08C56.1724 17.08 55.2551 17.3573 54.1031 17.912C52.9511 18.424 51.7137 19.128 50.3911 20.024C49.1111 20.8773 47.9164 21.88 46.8071 23.032C45.4844 24.3973 43.9484 26.0613 42.1991 28.024C40.4924 29.9867 38.6364 32.0347 36.6311 34.168C37.6124 34.2107 38.5937 34.2533 39.5751 34.296C40.5564 34.296 41.5377 34.296 42.5191 34.296C43.2017 34.296 43.9484 34.232 44.7591 34.104C45.6124 33.9333 46.4017 33.6773 47.1271 33.336C47.1271 33.336 46.9991 33.5707 46.7431 34.04C46.5297 34.4667 46.1457 34.9147 45.5911 35.384C45.0791 35.8107 44.3751 36.0667 43.4791 36.152C42.6684 36.1947 41.8577 36.2373 41.0471 36.28C40.2364 36.28 39.4257 36.28 38.6151 36.28C37.9324 36.28 37.2497 36.28 36.5671 36.28C35.9271 36.28 35.2871 36.2587 34.6471 36.216C32.6844 38.264 30.6364 40.2693 28.5031 42.232C26.3697 44.152 24.2151 45.9013 22.0391 47.48C19.8631 49.0587 17.6871 50.296 15.5111 51.192C13.3777 52.1307 11.2871 52.6 9.23905 52.6ZM64.1881 73.272C62.5667 73.272 60.8814 72.9093 59.1321 72.184C57.4254 71.5013 56.2094 70.392 55.4841 68.856C55.1854 68.3013 54.9934 67.704 54.9081 67.064C54.8654 66.4667 54.8441 65.8693 54.8441 65.272V64.568C54.8441 64.2267 54.8867 63.9067 54.9721 63.608C55.0574 63.352 55.2707 63.224 55.6121 63.224C55.6974 63.224 55.7401 63.2667 55.7401 63.352C55.7401 63.608 55.7187 63.864 55.6761 64.12C55.6334 64.376 55.6121 64.6533 55.6121 64.952C55.6121 66.9147 56.2307 68.408 57.4681 69.432C58.7481 70.456 60.3267 70.968 62.2041 70.968C64.8921 70.968 67.3667 70.3067 69.6281 68.984C71.8894 67.6613 73.9374 65.848 75.7721 63.544C77.5641 61.3253 79.0147 59.1493 80.1241 57.016C81.2761 54.9253 82.2787 52.792 83.1321 50.616C83.9854 48.44 84.8601 46.2 85.7561 43.896C84.6467 45.56 83.1107 47.096 81.1481 48.504C79.1854 49.8693 77.0521 50.9573 74.7481 51.768C72.4867 52.6213 70.2894 53.048 68.1561 53.048C65.8947 53.048 63.7614 52.6427 61.7561 51.832C59.7934 51.064 58.2147 49.8907 57.0201 48.312C55.8254 46.7333 55.2281 44.7493 55.2281 42.36C55.2281 39.5867 55.7614 36.8773 56.8281 34.232C57.8947 31.5867 59.3241 29.1333 61.1161 26.872C62.9081 24.568 64.9134 22.584 67.1321 20.92C69.0947 19.4267 71.3561 18.2107 73.9161 17.272C76.5187 16.3333 79.1001 15.864 81.6601 15.864C82.7267 15.864 83.7294 15.9493 84.6681 16.12C85.6067 16.248 86.5667 16.5467 87.5481 17.016C88.4014 17.4 89.0841 17.8907 89.5961 18.488C90.1081 19.0427 90.3641 19.6827 90.3641 20.408C90.3641 20.4933 90.3641 20.6 90.3641 20.728C90.3641 20.856 90.3427 20.9627 90.3001 21.048C90.1294 21.7307 89.7241 22.52 89.0841 23.416C88.4867 24.2693 88.0174 25.1653 87.6761 26.104C87.6334 26.2747 87.3987 26.424 86.9721 26.552C86.5454 26.6373 86.3747 26.5947 86.4601 26.424C86.8014 25.8693 87.0574 25.1867 87.2281 24.376C87.4414 23.5653 87.5481 22.7547 87.5481 21.944C87.5481 21.3467 87.4841 20.792 87.3561 20.28C87.2707 19.7253 87.1001 19.256 86.8441 18.872C86.4174 18.104 85.7561 17.5707 84.8601 17.272C83.9641 16.9733 83.0041 16.824 81.9801 16.824C80.9987 16.824 80.0174 16.9307 79.0361 17.144C78.0547 17.3573 77.2014 17.592 76.4761 17.848C74.0014 18.744 71.6334 20.152 69.3721 22.072C67.3667 23.8213 65.5747 25.848 63.9961 28.152C62.4601 30.456 61.2441 32.824 60.3481 35.256C59.4521 37.688 59.0041 40.0133 59.0041 42.232C59.0041 44.4933 59.4307 46.328 60.2841 47.736C61.1801 49.144 62.3534 50.1893 63.8041 50.872C65.2547 51.512 66.8121 51.832 68.4761 51.832C71.9321 51.832 74.9614 51.0427 77.5641 49.464C80.2094 47.8427 82.4494 45.7307 84.2841 43.128C86.1187 40.5253 87.5267 37.7307 88.5081 34.744H81.9161C81.4041 34.744 80.7001 34.7867 79.8041 34.872C78.9081 34.9147 77.9907 35.064 77.0521 35.32C76.1134 35.5333 75.3241 35.896 74.6841 36.408C74.0441 36.92 73.7241 37.624 73.7241 38.52C73.7241 38.8187 73.7667 39.1387 73.8521 39.48C73.9374 39.7787 74.0014 40.0133 74.0441 40.184L73.4681 40.568C73.1694 40.0133 72.8067 39.4373 72.3801 38.84C71.9961 38.2 71.7827 37.688 71.7401 37.304C71.6974 36.9627 71.7187 36.5147 71.8041 35.96C71.8894 35.4053 72.1667 34.9147 72.6361 34.488C73.1481 34.0187 73.8734 33.72 74.8121 33.592C75.7934 33.4213 76.7961 33.336 77.8201 33.336C78.7587 33.336 79.6547 33.3787 80.5081 33.464C81.3614 33.5067 82.0441 33.528 82.5561 33.528H94.7161L94.0121 34.296C93.4147 34.296 92.7534 34.4027 92.0281 34.616C91.3027 34.7867 90.7054 35.1707 90.2361 35.768C89.2974 36.9627 88.5721 38.3067 88.0601 39.8C87.5907 41.2933 87.1001 42.872 86.5881 44.536C85.7347 47.5653 84.9027 50.5307 84.0921 53.432C83.2814 56.376 82.1934 59.1493 80.8281 61.752C79.5054 64.3973 77.5641 66.8293 75.0041 69.048C73.6387 70.2 71.9321 71.1813 69.8841 71.992C67.8361 72.8453 65.9374 73.272 64.1881 73.272Z" fill="#EB9AC0"/>
<path d="M5.568 52.6C4.24533 52.6 3.15733 52.216 2.304 51.448C1.49333 50.68 1.17333 49.528 1.344 47.992C1.38667 47.4373 1.51467 46.8613 1.728 46.264C1.984 45.624 2.26133 45.0053 2.56 44.408C2.816 43.8107 3.072 43.512 3.328 43.512C3.54133 43.512 3.56267 43.6827 3.392 44.024C2.83733 45.176 2.56 46.2 2.56 47.096C2.56 48.0347 2.88 48.7387 3.52 49.208C4.20267 49.6773 5.07733 49.912 6.144 49.912C8.23467 49.912 10.5387 49.2507 13.056 47.928C15.5733 46.5627 18.176 44.8347 20.864 42.744C23.552 40.6107 26.1333 38.392 28.608 36.088C26.944 36.0027 25.3867 35.9173 23.936 35.832C22.4853 35.7467 21.2053 35.704 20.096 35.704C19.1573 35.704 18.0267 35.7893 16.704 35.96C15.3813 36.1307 14.3573 36.5787 13.632 37.304C13.3333 37.6027 13.056 38.0507 12.8 38.648C12.5867 39.2027 12.48 39.7787 12.48 40.376C12.48 40.5467 12.48 40.7173 12.48 40.888C12.5227 41.016 12.5653 41.1653 12.608 41.336C12.4373 41.2507 12.1173 41.1867 11.648 41.144C11.2213 41.0587 10.944 40.7813 10.816 40.312C10.7733 40.184 10.752 39.9707 10.752 39.672C10.752 38.9893 11.008 38.4347 11.52 38.008C12.032 37.5387 12.6507 37.1333 13.376 36.792C14.1013 36.4507 14.7627 36.152 15.36 35.896C16.768 35.2987 18.2187 34.808 19.712 34.424C21.2053 34.04 22.72 33.848 24.256 33.848C26.0053 33.848 28.1813 33.912 30.784 34.04C32.7893 32.0773 34.6453 30.2213 36.352 28.472C38.0587 26.7227 39.4453 25.272 40.512 24.12C42.0053 22.5413 43.584 21.1973 45.248 20.088C46.9547 18.936 48.6827 18.1253 50.432 17.656H46.912C45.4187 17.656 43.7973 17.72 42.048 17.848C40.2987 17.976 38.656 18.2533 37.12 18.68C35.584 19.1067 34.304 19.7467 33.28 20.6C32.64 21.1547 32.1493 21.7947 31.808 22.52C31.5093 23.2027 31.36 23.8427 31.36 24.44C31.36 25.2507 31.5947 25.8053 32.064 26.104C32.1067 26.104 32.128 26.1253 32.128 26.168C32.128 26.296 31.9787 26.4453 31.68 26.616C31.3813 26.744 31.168 26.7653 31.04 26.68C30.6133 26.3813 30.2293 25.784 29.888 24.888C29.5893 23.9493 29.4827 23.2027 29.568 22.648C29.7813 21.3253 30.3573 20.2587 31.296 19.448C32.2773 18.5947 33.472 17.9333 34.88 17.464C36.3307 16.9947 37.8453 16.6747 39.424 16.504C41.0453 16.3333 42.5813 16.2267 44.032 16.184C45.5253 16.1413 46.784 16.12 47.808 16.12H54.784C54.8693 16.12 54.8907 16.1413 54.848 16.184C55.9147 15.7147 57.024 15.2453 58.176 14.776C59.3707 14.3067 60.3947 14.072 61.248 14.072C61.4613 14.072 61.6747 14.136 61.888 14.264C62.144 14.392 62.272 14.52 62.272 14.648C62.272 14.8613 61.8453 14.968 60.992 14.968C60.5653 14.968 60.1173 15.0533 59.648 15.224C59.2213 15.352 58.6453 15.8 57.92 16.568C57.3227 17.1653 56.576 18.1253 55.68 19.448C54.784 20.7707 53.8027 22.328 52.736 24.12C51.6693 25.8693 50.6027 27.7467 49.536 29.752C48.4693 31.7147 47.4453 33.656 46.464 35.576C45.4827 37.496 44.6293 39.2667 43.904 40.888C43.8187 41.144 43.584 41.7413 43.2 42.68C42.816 43.576 42.4533 44.5787 42.112 45.688C41.7707 46.7547 41.6 47.7147 41.6 48.568C41.6 49.72 42.0053 50.296 42.816 50.296C43.2 50.296 43.584 50.2107 43.968 50.04C44.5227 49.8267 45.0987 49.5067 45.696 49.08C46.2933 48.6533 46.8693 48.1627 47.424 47.608C48.5333 46.5413 49.472 45.5173 50.24 44.536C51.008 43.512 51.4773 42.8933 51.648 42.68C51.776 42.4667 51.9253 42.36 52.096 42.36C52.2667 42.36 52.352 42.4667 52.352 42.68C52.352 42.808 52.288 42.9787 52.16 43.192C51.8613 43.6187 51.3067 44.3653 50.496 45.432C49.6853 46.456 48.7253 47.5013 47.616 48.568C46.5493 49.6347 45.3973 50.4453 44.16 51C43.776 51.1707 43.3707 51.2987 42.944 51.384C42.5173 51.512 42.0907 51.576 41.664 51.576C40.8107 51.576 40.0213 51.2773 39.296 50.68C38.6133 50.0827 38.272 49.1013 38.272 47.736C38.272 46.4987 38.5067 45.176 38.976 43.768C39.488 42.3173 39.9573 41.144 40.384 40.248C41.2373 38.4133 42.24 36.3653 43.392 34.104C44.5867 31.8427 45.8027 29.5813 47.04 27.32C48.32 25.0587 49.4933 23.0107 50.56 21.176C51.6267 19.3413 52.5013 17.976 53.184 17.08C52.5013 17.08 51.584 17.3573 50.432 17.912C49.28 18.424 48.0427 19.128 46.72 20.024C45.44 20.8773 44.2453 21.88 43.136 23.032C41.8133 24.3973 40.2773 26.0613 38.528 28.024C36.8213 29.9867 34.9653 32.0347 32.96 34.168C33.9413 34.2107 34.9227 34.2533 35.904 34.296C36.8853 34.296 37.8667 34.296 38.848 34.296C39.5307 34.296 40.2773 34.232 41.088 34.104C41.9413 33.9333 42.7307 33.6773 43.456 33.336C43.456 33.336 43.328 33.5707 43.072 34.04C42.8587 34.4667 42.4747 34.9147 41.92 35.384C41.408 35.8107 40.704 36.0667 39.808 36.152C38.9973 36.1947 38.1867 36.2373 37.376 36.28C36.5653 36.28 35.7547 36.28 34.944 36.28C34.2613 36.28 33.5787 36.28 32.896 36.28C32.256 36.28 31.616 36.2587 30.976 36.216C29.0133 38.264 26.9653 40.2693 24.832 42.232C22.6987 44.152 20.544 45.9013 18.368 47.48C16.192 49.0587 14.016 50.296 11.84 51.192C9.70667 52.1307 7.616 52.6 5.568 52.6ZM60.517 73.272C58.8957 73.272 57.2103 72.9093 55.461 72.184C53.7543 71.5013 52.5383 70.392 51.813 68.856C51.5143 68.3013 51.3223 67.704 51.237 67.064C51.1943 66.4667 51.173 65.8693 51.173 65.272V64.568C51.173 64.2267 51.2157 63.9067 51.301 63.608C51.3863 63.352 51.5997 63.224 51.941 63.224C52.0263 63.224 52.069 63.2667 52.069 63.352C52.069 63.608 52.0477 63.864 52.005 64.12C51.9623 64.376 51.941 64.6533 51.941 64.952C51.941 66.9147 52.5597 68.408 53.797 69.432C55.077 70.456 56.6557 70.968 58.533 70.968C61.221 70.968 63.6957 70.3067 65.957 68.984C68.2183 67.6613 70.2663 65.848 72.101 63.544C73.893 61.3253 75.3437 59.1493 76.453 57.016C77.605 54.9253 78.6077 52.792 79.461 50.616C80.3143 48.44 81.189 46.2 82.085 43.896C80.9757 45.56 79.4397 47.096 77.477 48.504C75.5143 49.8693 73.381 50.9573 71.077 51.768C68.8157 52.6213 66.6183 53.048 64.485 53.048C62.2237 53.048 60.0903 52.6427 58.085 51.832C56.1223 51.064 54.5437 49.8907 53.349 48.312C52.1543 46.7333 51.557 44.7493 51.557 42.36C51.557 39.5867 52.0903 36.8773 53.157 34.232C54.2237 31.5867 55.653 29.1333 57.445 26.872C59.237 24.568 61.2423 22.584 63.461 20.92C65.4237 19.4267 67.685 18.2107 70.245 17.272C72.8477 16.3333 75.429 15.864 77.989 15.864C79.0557 15.864 80.0583 15.9493 80.997 16.12C81.9357 16.248 82.8957 16.5467 83.877 17.016C84.7303 17.4 85.413 17.8907 85.925 18.488C86.437 19.0427 86.693 19.6827 86.693 20.408C86.693 20.4933 86.693 20.6 86.693 20.728C86.693 20.856 86.6717 20.9627 86.629 21.048C86.4583 21.7307 86.053 22.52 85.413 23.416C84.8157 24.2693 84.3463 25.1653 84.005 26.104C83.9623 26.2747 83.7277 26.424 83.301 26.552C82.8743 26.6373 82.7037 26.5947 82.789 26.424C83.1303 25.8693 83.3863 25.1867 83.557 24.376C83.7703 23.5653 83.877 22.7547 83.877 21.944C83.877 21.3467 83.813 20.792 83.685 20.28C83.5997 19.7253 83.429 19.256 83.173 18.872C82.7463 18.104 82.085 17.5707 81.189 17.272C80.293 16.9733 79.333 16.824 78.309 16.824C77.3277 16.824 76.3463 16.9307 75.365 17.144C74.3837 17.3573 73.5303 17.592 72.805 17.848C70.3303 18.744 67.9623 20.152 65.701 22.072C63.6957 23.8213 61.9037 25.848 60.325 28.152C58.789 30.456 57.573 32.824 56.677 35.256C55.781 37.688 55.333 40.0133 55.333 42.232C55.333 44.4933 55.7597 46.328 56.613 47.736C57.509 49.144 58.6823 50.1893 60.133 50.872C61.5837 51.512 63.141 51.832 64.805 51.832C68.261 51.832 71.2903 51.0427 73.893 49.464C76.5383 47.8427 78.7783 45.7307 80.613 43.128C82.4477 40.5253 83.8557 37.7307 84.837 34.744H78.245C77.733 34.744 77.029 34.7867 76.133 34.872C75.237 34.9147 74.3197 35.064 73.381 35.32C72.4423 35.5333 71.653 35.896 71.013 36.408C70.373 36.92 70.053 37.624 70.053 38.52C70.053 38.8187 70.0957 39.1387 70.181 39.48C70.2663 39.7787 70.3303 40.0133 70.373 40.184L69.797 40.568C69.4983 40.0133 69.1357 39.4373 68.709 38.84C68.325 38.2 68.1117 37.688 68.069 37.304C68.0263 36.9627 68.0477 36.5147 68.133 35.96C68.2183 35.4053 68.4957 34.9147 68.965 34.488C69.477 34.0187 70.2023 33.72 71.141 33.592C72.1223 33.4213 73.125 33.336 74.149 33.336C75.0877 33.336 75.9837 33.3787 76.837 33.464C77.6903 33.5067 78.373 33.528 78.885 33.528H91.045L90.341 34.296C89.7437 34.296 89.0823 34.4027 88.357 34.616C87.6317 34.7867 87.0343 35.1707 86.565 35.768C85.6263 36.9627 84.901 38.3067 84.389 39.8C83.9197 41.2933 83.429 42.872 82.917 44.536C82.0637 47.5653 81.2317 50.5307 80.421 53.432C79.6103 56.376 78.5223 59.1493 77.157 61.752C75.8343 64.3973 73.893 66.8293 71.333 69.048C69.9677 70.2 68.261 71.1813 66.213 71.992C64.165 72.8453 62.2663 73.272 60.517 73.272Z" fill="black"/>
</svg>
