<svg width="80" height="68" viewBox="0 0 80 68" fill="none" xmlns="http://www.w3.org/2000/svg">
<path d="M7.698 44.35C6.582 44.35 5.664 44.026 4.944 43.378C4.26 42.73 3.99 41.758 4.134 40.462C4.17 39.994 4.278 39.508 4.458 39.004C4.674 38.464 4.908 37.942 5.16 37.438C5.376 36.934 5.592 36.682 5.808 36.682C5.988 36.682 6.006 36.826 5.862 37.114C5.394 38.086 5.16 38.95 5.16 39.706C5.16 40.498 5.43 41.092 5.97 41.488C6.546 41.884 7.284 42.082 8.184 42.082C9.948 42.082 11.892 41.524 14.016 40.408C16.14 39.256 18.336 37.798 20.604 36.034C22.872 34.234 25.05 32.362 27.138 30.418C25.734 30.346 24.42 30.274 23.196 30.202C21.972 30.13 20.892 30.094 19.956 30.094C19.164 30.094 18.21 30.166 17.094 30.31C15.978 30.454 15.114 30.832 14.502 31.444C14.25 31.696 14.016 32.074 13.8 32.578C13.62 33.046 13.53 33.532 13.53 34.036C13.53 34.18 13.53 34.324 13.53 34.468C13.566 34.576 13.602 34.702 13.638 34.846C13.494 34.774 13.224 34.72 12.828 34.684C12.468 34.612 12.234 34.378 12.126 33.982C12.09 33.874 12.072 33.694 12.072 33.442C12.072 32.866 12.288 32.398 12.72 32.038C13.152 31.642 13.674 31.3 14.286 31.012C14.898 30.724 15.456 30.472 15.96 30.256C17.148 29.752 18.372 29.338 19.632 29.014C20.892 28.69 22.17 28.528 23.466 28.528C24.942 28.528 26.778 28.582 28.974 28.69C30.666 27.034 32.232 25.468 33.672 23.992C35.112 22.516 36.282 21.292 37.182 20.32C38.442 18.988 39.774 17.854 41.178 16.918C42.618 15.946 44.076 15.262 45.552 14.866H42.582C41.322 14.866 39.954 14.92 38.478 15.028C37.002 15.136 35.616 15.37 34.32 15.73C33.024 16.09 31.944 16.63 31.08 17.35C30.54 17.818 30.126 18.358 29.838 18.97C29.586 19.546 29.46 20.086 29.46 20.59C29.46 21.274 29.658 21.742 30.054 21.994C30.09 21.994 30.108 22.012 30.108 22.048C30.108 22.156 29.982 22.282 29.73 22.426C29.478 22.534 29.298 22.552 29.19 22.48C28.83 22.228 28.506 21.724 28.218 20.968C27.966 20.176 27.876 19.546 27.948 19.078C28.128 17.962 28.614 17.062 29.406 16.378C30.234 15.658 31.242 15.1 32.43 14.704C33.654 14.308 34.932 14.038 36.264 13.894C37.632 13.75 38.928 13.66 40.152 13.624C41.412 13.588 42.474 13.57 43.338 13.57H49.224C49.296 13.57 49.314 13.588 49.278 13.624C50.178 13.228 51.114 12.832 52.086 12.436C53.094 12.04 53.958 11.842 54.678 11.842C54.858 11.842 55.038 11.896 55.218 12.004C55.434 12.112 55.542 12.22 55.542 12.328C55.542 12.508 55.182 12.598 54.462 12.598C54.102 12.598 53.724 12.67 53.328 12.814C52.968 12.922 52.482 13.3 51.87 13.948C51.366 14.452 50.736 15.262 49.98 16.378C49.224 17.494 48.396 18.808 47.496 20.32C46.596 21.796 45.696 23.38 44.796 25.072C43.896 26.728 43.032 28.366 42.204 29.986C41.376 31.606 40.656 33.1 40.044 34.468C39.972 34.684 39.774 35.188 39.45 35.98C39.126 36.736 38.82 37.582 38.532 38.518C38.244 39.418 38.1 40.228 38.1 40.948C38.1 41.92 38.442 42.406 39.126 42.406C39.45 42.406 39.774 42.334 40.098 42.19C40.566 42.01 41.052 41.74 41.556 41.38C42.06 41.02 42.546 40.606 43.014 40.138C43.95 39.238 44.742 38.374 45.39 37.546C46.038 36.682 46.434 36.16 46.578 35.98C46.686 35.8 46.812 35.71 46.956 35.71C47.1 35.71 47.172 35.8 47.172 35.98C47.172 36.088 47.118 36.232 47.01 36.412C46.758 36.772 46.29 37.402 45.606 38.302C44.922 39.166 44.112 40.048 43.176 40.948C42.276 41.848 41.304 42.532 40.26 43C39.936 43.144 39.594 43.252 39.234 43.324C38.874 43.432 38.514 43.486 38.154 43.486C37.434 43.486 36.768 43.234 36.156 42.73C35.58 42.226 35.292 41.398 35.292 40.246C35.292 39.202 35.49 38.086 35.886 36.898C36.318 35.674 36.714 34.684 37.074 33.928C37.794 32.38 38.64 30.652 39.612 28.744C40.62 26.836 41.646 24.928 42.69 23.02C43.77 21.112 44.76 19.384 45.66 17.836C46.56 16.288 47.298 15.136 47.874 14.38C47.298 14.38 46.524 14.614 45.552 15.082C44.58 15.514 43.536 16.108 42.42 16.864C41.34 17.584 40.332 18.43 39.396 19.402C38.28 20.554 36.984 21.958 35.508 23.614C34.068 25.27 32.502 26.998 30.81 28.798C31.638 28.834 32.466 28.87 33.294 28.906C34.122 28.906 34.95 28.906 35.778 28.906C36.354 28.906 36.984 28.852 37.668 28.744C38.388 28.6 39.054 28.384 39.666 28.096C39.666 28.096 39.558 28.294 39.342 28.69C39.162 29.05 38.838 29.428 38.37 29.824C37.938 30.184 37.344 30.4 36.588 30.472C35.904 30.508 35.22 30.544 34.536 30.58C33.852 30.58 33.168 30.58 32.484 30.58C31.908 30.58 31.332 30.58 30.756 30.58C30.216 30.58 29.676 30.562 29.136 30.526C27.48 32.254 25.752 33.946 23.952 35.602C22.152 37.222 20.334 38.698 18.498 40.03C16.662 41.362 14.826 42.406 12.99 43.162C11.19 43.954 9.426 44.35 7.698 44.35ZM54.0612 61.792C52.6932 61.792 51.2712 61.486 49.7952 60.874C48.3552 60.298 47.3292 59.362 46.7172 58.066C46.4652 57.598 46.3032 57.094 46.2312 56.554C46.1952 56.05 46.1772 55.546 46.1772 55.042V54.448C46.1772 54.16 46.2132 53.89 46.2852 53.638C46.3572 53.422 46.5372 53.314 46.8252 53.314C46.8972 53.314 46.9332 53.35 46.9332 53.422C46.9332 53.638 46.9152 53.854 46.8792 54.07C46.8432 54.286 46.8252 54.52 46.8252 54.772C46.8252 56.428 47.3472 57.688 48.3912 58.552C49.4712 59.416 50.8032 59.848 52.3872 59.848C54.6552 59.848 56.7432 59.29 58.6512 58.174C60.5592 57.058 62.2872 55.528 63.8352 53.584C65.3472 51.712 66.5712 49.876 67.5072 48.076C68.4792 46.312 69.3252 44.512 70.0452 42.676C70.7652 40.84 71.5032 38.95 72.2592 37.006C71.3232 38.41 70.0272 39.706 68.3712 40.894C66.7152 42.046 64.9152 42.964 62.9712 43.648C61.0632 44.368 59.2092 44.728 57.4092 44.728C55.5012 44.728 53.7012 44.386 52.0092 43.702C50.3532 43.054 49.0212 42.064 48.0132 40.732C47.0052 39.4 46.5012 37.726 46.5012 35.71C46.5012 33.37 46.9512 31.084 47.8512 28.852C48.7512 26.62 49.9572 24.55 51.4692 22.642C52.9812 20.698 54.6732 19.024 56.5452 17.62C58.2012 16.36 60.1092 15.334 62.2692 14.542C64.4652 13.75 66.6432 13.354 68.8032 13.354C69.7032 13.354 70.5492 13.426 71.3412 13.57C72.1332 13.678 72.9432 13.93 73.7712 14.326C74.4912 14.65 75.0672 15.064 75.4992 15.568C75.9312 16.036 76.1472 16.576 76.1472 17.188C76.1472 17.26 76.1472 17.35 76.1472 17.458C76.1472 17.566 76.1292 17.656 76.0932 17.728C75.9492 18.304 75.6072 18.97 75.0672 19.726C74.5632 20.446 74.1672 21.202 73.8792 21.994C73.8432 22.138 73.6452 22.264 73.2852 22.372C72.9252 22.444 72.7812 22.408 72.8532 22.264C73.1412 21.796 73.3572 21.22 73.5012 20.536C73.6812 19.852 73.7712 19.168 73.7712 18.484C73.7712 17.98 73.7172 17.512 73.6092 17.08C73.5372 16.612 73.3932 16.216 73.1772 15.892C72.8172 15.244 72.2592 14.794 71.5032 14.542C70.7472 14.29 69.9372 14.164 69.0732 14.164C68.2452 14.164 67.4172 14.254 66.5892 14.434C65.7612 14.614 65.0412 14.812 64.4292 15.028C62.3412 15.784 60.3432 16.972 58.4352 18.592C56.7432 20.068 55.2312 21.778 53.8992 23.722C52.6032 25.666 51.5772 27.664 50.8212 29.716C50.0652 31.768 49.6872 33.73 49.6872 35.602C49.6872 37.51 50.0472 39.058 50.7672 40.246C51.5232 41.434 52.5132 42.316 53.7372 42.892C54.9612 43.432 56.2752 43.702 57.6792 43.702C60.5952 43.702 63.1512 43.036 65.3472 41.704C67.5792 40.336 69.4692 38.554 71.0172 36.358C72.5652 34.162 73.7532 31.804 74.5812 29.284H69.0192C68.5872 29.284 67.9932 29.32 67.2372 29.392C66.4812 29.428 65.7072 29.554 64.9152 29.77C64.1232 29.95 63.4572 30.256 62.9172 30.688C62.3772 31.12 62.1072 31.714 62.1072 32.47C62.1072 32.722 62.1432 32.992 62.2152 33.28C62.2872 33.532 62.3412 33.73 62.3772 33.874L61.8912 34.198C61.6392 33.73 61.3332 33.244 60.9732 32.74C60.6492 32.2 60.4692 31.768 60.4332 31.444C60.3972 31.156 60.4152 30.778 60.4872 30.31C60.5592 29.842 60.7932 29.428 61.1892 29.068C61.6212 28.672 62.2332 28.42 63.0252 28.312C63.8532 28.168 64.6992 28.096 65.5632 28.096C66.3552 28.096 67.1112 28.132 67.8312 28.204C68.5512 28.24 69.1272 28.258 69.5592 28.258H79.8192L79.2252 28.906C78.7212 28.906 78.1632 28.996 77.5512 29.176C76.9392 29.32 76.4352 29.644 76.0392 30.148C75.2472 31.156 74.6352 32.29 74.2032 33.55C73.8072 34.81 73.3932 36.142 72.9612 37.546C72.2412 40.102 71.5392 42.604 70.8552 45.052C70.1712 47.536 69.2532 49.876 68.1012 52.072C66.9852 54.304 65.3472 56.356 63.1872 58.228C62.0352 59.2 60.5952 60.028 58.8672 60.712C57.1392 61.432 55.5372 61.792 54.0612 61.792Z" fill="#EB9AC0"/>
<path d="M4.698 44.35C3.582 44.35 2.664 44.026 1.944 43.378C1.26 42.73 0.99 41.758 1.134 40.462C1.17 39.994 1.278 39.508 1.458 39.004C1.674 38.464 1.908 37.942 2.16 37.438C2.376 36.934 2.592 36.682 2.808 36.682C2.988 36.682 3.006 36.826 2.862 37.114C2.394 38.086 2.16 38.95 2.16 39.706C2.16 40.498 2.43 41.092 2.97 41.488C3.546 41.884 4.284 42.082 5.184 42.082C6.948 42.082 8.892 41.524 11.016 40.408C13.14 39.256 15.336 37.798 17.604 36.034C19.872 34.234 22.05 32.362 24.138 30.418C22.734 30.346 21.42 30.274 20.196 30.202C18.972 30.13 17.892 30.094 16.956 30.094C16.164 30.094 15.21 30.166 14.094 30.31C12.978 30.454 12.114 30.832 11.502 31.444C11.25 31.696 11.016 32.074 10.8 32.578C10.62 33.046 10.53 33.532 10.53 34.036C10.53 34.18 10.53 34.324 10.53 34.468C10.566 34.576 10.602 34.702 10.638 34.846C10.494 34.774 10.224 34.72 9.828 34.684C9.468 34.612 9.234 34.378 9.126 33.982C9.09 33.874 9.072 33.694 9.072 33.442C9.072 32.866 9.288 32.398 9.72 32.038C10.152 31.642 10.674 31.3 11.286 31.012C11.898 30.724 12.456 30.472 12.96 30.256C14.148 29.752 15.372 29.338 16.632 29.014C17.892 28.69 19.17 28.528 20.466 28.528C21.942 28.528 23.778 28.582 25.974 28.69C27.666 27.034 29.232 25.468 30.672 23.992C32.112 22.516 33.282 21.292 34.182 20.32C35.442 18.988 36.774 17.854 38.178 16.918C39.618 15.946 41.076 15.262 42.552 14.866H39.582C38.322 14.866 36.954 14.92 35.478 15.028C34.002 15.136 32.616 15.37 31.32 15.73C30.024 16.09 28.944 16.63 28.08 17.35C27.54 17.818 27.126 18.358 26.838 18.97C26.586 19.546 26.46 20.086 26.46 20.59C26.46 21.274 26.658 21.742 27.054 21.994C27.09 21.994 27.108 22.012 27.108 22.048C27.108 22.156 26.982 22.282 26.73 22.426C26.478 22.534 26.298 22.552 26.19 22.48C25.83 22.228 25.506 21.724 25.218 20.968C24.966 20.176 24.876 19.546 24.948 19.078C25.128 17.962 25.614 17.062 26.406 16.378C27.234 15.658 28.242 15.1 29.43 14.704C30.654 14.308 31.932 14.038 33.264 13.894C34.632 13.75 35.928 13.66 37.152 13.624C38.412 13.588 39.474 13.57 40.338 13.57H46.224C46.296 13.57 46.314 13.588 46.278 13.624C47.178 13.228 48.114 12.832 49.086 12.436C50.094 12.04 50.958 11.842 51.678 11.842C51.858 11.842 52.038 11.896 52.218 12.004C52.434 12.112 52.542 12.22 52.542 12.328C52.542 12.508 52.182 12.598 51.462 12.598C51.102 12.598 50.724 12.67 50.328 12.814C49.968 12.922 49.482 13.3 48.87 13.948C48.366 14.452 47.736 15.262 46.98 16.378C46.224 17.494 45.396 18.808 44.496 20.32C43.596 21.796 42.696 23.38 41.796 25.072C40.896 26.728 40.032 28.366 39.204 29.986C38.376 31.606 37.656 33.1 37.044 34.468C36.972 34.684 36.774 35.188 36.45 35.98C36.126 36.736 35.82 37.582 35.532 38.518C35.244 39.418 35.1 40.228 35.1 40.948C35.1 41.92 35.442 42.406 36.126 42.406C36.45 42.406 36.774 42.334 37.098 42.19C37.566 42.01 38.052 41.74 38.556 41.38C39.06 41.02 39.546 40.606 40.014 40.138C40.95 39.238 41.742 38.374 42.39 37.546C43.038 36.682 43.434 36.16 43.578 35.98C43.686 35.8 43.812 35.71 43.956 35.71C44.1 35.71 44.172 35.8 44.172 35.98C44.172 36.088 44.118 36.232 44.01 36.412C43.758 36.772 43.29 37.402 42.606 38.302C41.922 39.166 41.112 40.048 40.176 40.948C39.276 41.848 38.304 42.532 37.26 43C36.936 43.144 36.594 43.252 36.234 43.324C35.874 43.432 35.514 43.486 35.154 43.486C34.434 43.486 33.768 43.234 33.156 42.73C32.58 42.226 32.292 41.398 32.292 40.246C32.292 39.202 32.49 38.086 32.886 36.898C33.318 35.674 33.714 34.684 34.074 33.928C34.794 32.38 35.64 30.652 36.612 28.744C37.62 26.836 38.646 24.928 39.69 23.02C40.77 21.112 41.76 19.384 42.66 17.836C43.56 16.288 44.298 15.136 44.874 14.38C44.298 14.38 43.524 14.614 42.552 15.082C41.58 15.514 40.536 16.108 39.42 16.864C38.34 17.584 37.332 18.43 36.396 19.402C35.28 20.554 33.984 21.958 32.508 23.614C31.068 25.27 29.502 26.998 27.81 28.798C28.638 28.834 29.466 28.87 30.294 28.906C31.122 28.906 31.95 28.906 32.778 28.906C33.354 28.906 33.984 28.852 34.668 28.744C35.388 28.6 36.054 28.384 36.666 28.096C36.666 28.096 36.558 28.294 36.342 28.69C36.162 29.05 35.838 29.428 35.37 29.824C34.938 30.184 34.344 30.4 33.588 30.472C32.904 30.508 32.22 30.544 31.536 30.58C30.852 30.58 30.168 30.58 29.484 30.58C28.908 30.58 28.332 30.58 27.756 30.58C27.216 30.58 26.676 30.562 26.136 30.526C24.48 32.254 22.752 33.946 20.952 35.602C19.152 37.222 17.334 38.698 15.498 40.03C13.662 41.362 11.826 42.406 9.99 43.162C8.19 43.954 6.426 44.35 4.698 44.35ZM51.0612 61.792C49.6932 61.792 48.2712 61.486 46.7952 60.874C45.3552 60.298 44.3292 59.362 43.7172 58.066C43.4652 57.598 43.3032 57.094 43.2312 56.554C43.1952 56.05 43.1772 55.546 43.1772 55.042V54.448C43.1772 54.16 43.2132 53.89 43.2852 53.638C43.3572 53.422 43.5372 53.314 43.8252 53.314C43.8972 53.314 43.9332 53.35 43.9332 53.422C43.9332 53.638 43.9152 53.854 43.8792 54.07C43.8432 54.286 43.8252 54.52 43.8252 54.772C43.8252 56.428 44.3472 57.688 45.3912 58.552C46.4712 59.416 47.8032 59.848 49.3872 59.848C51.6552 59.848 53.7432 59.29 55.6512 58.174C57.5592 57.058 59.2872 55.528 60.8352 53.584C62.3472 51.712 63.5712 49.876 64.5072 48.076C65.4792 46.312 66.3252 44.512 67.0452 42.676C67.7652 40.84 68.5032 38.95 69.2592 37.006C68.3232 38.41 67.0272 39.706 65.3712 40.894C63.7152 42.046 61.9152 42.964 59.9712 43.648C58.0632 44.368 56.2092 44.728 54.4092 44.728C52.5012 44.728 50.7012 44.386 49.0092 43.702C47.3532 43.054 46.0212 42.064 45.0132 40.732C44.0052 39.4 43.5012 37.726 43.5012 35.71C43.5012 33.37 43.9512 31.084 44.8512 28.852C45.7512 26.62 46.9572 24.55 48.4692 22.642C49.9812 20.698 51.6732 19.024 53.5452 17.62C55.2012 16.36 57.1092 15.334 59.2692 14.542C61.4652 13.75 63.6432 13.354 65.8032 13.354C66.7032 13.354 67.5492 13.426 68.3412 13.57C69.1332 13.678 69.9432 13.93 70.7712 14.326C71.4912 14.65 72.0672 15.064 72.4992 15.568C72.9312 16.036 73.1472 16.576 73.1472 17.188C73.1472 17.26 73.1472 17.35 73.1472 17.458C73.1472 17.566 73.1292 17.656 73.0932 17.728C72.9492 18.304 72.6072 18.97 72.0672 19.726C71.5632 20.446 71.1672 21.202 70.8792 21.994C70.8432 22.138 70.6452 22.264 70.2852 22.372C69.9252 22.444 69.7812 22.408 69.8532 22.264C70.1412 21.796 70.3572 21.22 70.5012 20.536C70.6812 19.852 70.7712 19.168 70.7712 18.484C70.7712 17.98 70.7172 17.512 70.6092 17.08C70.5372 16.612 70.3932 16.216 70.1772 15.892C69.8172 15.244 69.2592 14.794 68.5032 14.542C67.7472 14.29 66.9372 14.164 66.0732 14.164C65.2452 14.164 64.4172 14.254 63.5892 14.434C62.7612 14.614 62.0412 14.812 61.4292 15.028C59.3412 15.784 57.3432 16.972 55.4352 18.592C53.7432 20.068 52.2312 21.778 50.8992 23.722C49.6032 25.666 48.5772 27.664 47.8212 29.716C47.0652 31.768 46.6872 33.73 46.6872 35.602C46.6872 37.51 47.0472 39.058 47.7672 40.246C48.5232 41.434 49.5132 42.316 50.7372 42.892C51.9612 43.432 53.2752 43.702 54.6792 43.702C57.5952 43.702 60.1512 43.036 62.3472 41.704C64.5792 40.336 66.4692 38.554 68.0172 36.358C69.5652 34.162 70.7532 31.804 71.5812 29.284H66.0192C65.5872 29.284 64.9932 29.32 64.2372 29.392C63.4812 29.428 62.7072 29.554 61.9152 29.77C61.1232 29.95 60.4572 30.256 59.9172 30.688C59.3772 31.12 59.1072 31.714 59.1072 32.47C59.1072 32.722 59.1432 32.992 59.2152 33.28C59.2872 33.532 59.3412 33.73 59.3772 33.874L58.8912 34.198C58.6392 33.73 58.3332 33.244 57.9732 32.74C57.6492 32.2 57.4692 31.768 57.4332 31.444C57.3972 31.156 57.4152 30.778 57.4872 30.31C57.5592 29.842 57.7932 29.428 58.1892 29.068C58.6212 28.672 59.2332 28.42 60.0252 28.312C60.8532 28.168 61.6992 28.096 62.5632 28.096C63.3552 28.096 64.1112 28.132 64.8312 28.204C65.5512 28.24 66.1272 28.258 66.5592 28.258H76.8192L76.2252 28.906C75.7212 28.906 75.1632 28.996 74.5512 29.176C73.9392 29.32 73.4352 29.644 73.0392 30.148C72.2472 31.156 71.6352 32.29 71.2032 33.55C70.8072 34.81 70.3932 36.142 69.9612 37.546C69.2412 40.102 68.5392 42.604 67.8552 45.052C67.1712 47.536 66.2532 49.876 65.1012 52.072C63.9852 54.304 62.3472 56.356 60.1872 58.228C59.0352 59.2 57.5952 60.028 55.8672 60.712C54.1392 61.432 52.5372 61.792 51.0612 61.792Z" fill="black"/>
</svg>
