<svg width="159" height="130" viewBox="0 0 159 130" fill="none" xmlns="http://www.w3.org/2000/svg">
<path d="M17.438 60.85C15.9087 60.85 14.6507 60.406 13.664 59.518C12.7267 58.63 12.3567 57.298 12.554 55.522C12.6033 54.8807 12.7513 54.2147 12.998 53.524C13.294 52.784 13.6147 52.0687 13.96 51.378C14.256 50.6873 14.552 50.342 14.848 50.342C15.0947 50.342 15.1193 50.5393 14.922 50.934C14.2807 52.266 13.96 53.45 13.96 54.486C13.96 55.5713 14.33 56.3853 15.07 56.928C15.8593 57.4707 16.8707 57.742 18.104 57.742C20.5213 57.742 23.1853 56.9773 26.096 55.448C29.0067 53.8693 32.016 51.8713 35.124 49.454C38.232 46.9873 41.2167 44.422 44.078 41.758C42.154 41.6593 40.3533 41.5607 38.676 41.462C36.9987 41.3633 35.5187 41.314 34.236 41.314C33.1507 41.314 31.8433 41.4127 30.314 41.61C28.7847 41.8073 27.6007 42.3253 26.762 43.164C26.4167 43.5093 26.096 44.0273 25.8 44.718C25.5533 45.3593 25.43 46.0253 25.43 46.716C25.43 46.9133 25.43 47.1107 25.43 47.308C25.4793 47.456 25.5287 47.6287 25.578 47.826C25.3807 47.7273 25.0107 47.6533 24.468 47.604C23.9747 47.5053 23.654 47.1847 23.506 46.642C23.4567 46.494 23.432 46.2473 23.432 45.902C23.432 45.1127 23.728 44.4713 24.32 43.978C24.912 43.4353 25.6273 42.9667 26.466 42.572C27.3047 42.1773 28.0693 41.832 28.76 41.536C30.388 40.8453 32.0653 40.278 33.792 39.834C35.5187 39.39 37.27 39.168 39.046 39.168C41.0687 39.168 43.5847 39.242 46.594 39.39C48.9127 37.1207 51.0587 34.9747 53.032 32.952C55.0053 30.9293 56.6087 29.252 57.842 27.92C59.5687 26.0947 61.394 24.5407 63.318 23.258C65.2913 21.926 67.2893 20.9887 69.312 20.446H65.242C63.5153 20.446 61.6407 20.52 59.618 20.668C57.5953 20.816 55.696 21.1367 53.92 21.63C52.144 22.1233 50.664 22.8633 49.48 23.85C48.74 24.4913 48.1727 25.2313 47.778 26.07C47.4327 26.8593 47.26 27.5993 47.26 28.29C47.26 29.2273 47.5313 29.8687 48.074 30.214C48.1233 30.214 48.148 30.2387 48.148 30.288C48.148 30.436 47.9753 30.6087 47.63 30.806C47.2847 30.954 47.038 30.9787 46.89 30.88C46.3967 30.5347 45.9527 29.844 45.558 28.808C45.2127 27.7227 45.0893 26.8593 45.188 26.218C45.4347 24.6887 46.1007 23.4553 47.186 22.518C48.3207 21.5313 49.702 20.7667 51.33 20.224C53.0073 19.6813 54.7587 19.3113 56.584 19.114C58.4587 18.9167 60.2347 18.7933 61.912 18.744C63.6387 18.6947 65.094 18.67 66.278 18.67H74.344C74.4427 18.67 74.4673 18.6947 74.418 18.744C75.6513 18.2013 76.934 17.6587 78.266 17.116C79.6473 16.5733 80.8313 16.302 81.818 16.302C82.0647 16.302 82.3113 16.376 82.558 16.524C82.854 16.672 83.002 16.82 83.002 16.968C83.002 17.2147 82.5087 17.338 81.522 17.338C81.0287 17.338 80.5107 17.4367 79.968 17.634C79.4747 17.782 78.8087 18.3 77.97 19.188C77.2793 19.8787 76.416 20.9887 75.38 22.518C74.344 24.0473 73.2093 25.848 71.976 27.92C70.7427 29.9427 69.5093 32.1133 68.276 34.432C67.0427 36.7013 65.8587 38.946 64.724 41.166C63.5893 43.386 62.6027 45.4333 61.764 47.308C61.6653 47.604 61.394 48.2947 60.95 49.38C60.506 50.416 60.0867 51.5753 59.692 52.858C59.2973 54.0913 59.1 55.2013 59.1 56.188C59.1 57.52 59.5687 58.186 60.506 58.186C60.95 58.186 61.394 58.0873 61.838 57.89C62.4793 57.6433 63.1453 57.2733 63.836 56.78C64.5267 56.2867 65.1927 55.7193 65.834 55.078C67.1167 53.8447 68.202 52.6607 69.09 51.526C69.978 50.342 70.5207 49.6267 70.718 49.38C70.866 49.1333 71.0387 49.01 71.236 49.01C71.4333 49.01 71.532 49.1333 71.532 49.38C71.532 49.528 71.458 49.7253 71.31 49.972C70.9647 50.4653 70.3233 51.3287 69.386 52.562C68.4487 53.746 67.3387 54.9547 66.056 56.188C64.8227 57.4213 63.4907 58.3587 62.06 59C61.616 59.1973 61.1473 59.3453 60.654 59.444C60.1607 59.592 59.6673 59.666 59.174 59.666C58.1873 59.666 57.2747 59.3207 56.436 58.63C55.6467 57.9393 55.252 56.8047 55.252 55.226C55.252 53.7953 55.5233 52.266 56.066 50.638C56.658 48.9607 57.2007 47.604 57.694 46.568C58.6807 44.4467 59.84 42.0787 61.172 39.464C62.5533 36.8493 63.9593 34.2347 65.39 31.62C66.87 29.0053 68.2267 26.6373 69.46 24.516C70.6933 22.3947 71.7047 20.816 72.494 19.78C71.7047 19.78 70.644 20.1007 69.312 20.742C67.98 21.334 66.5493 22.148 65.02 23.184C63.54 24.1707 62.1587 25.33 60.876 26.662C59.3467 28.2407 57.5707 30.1647 55.548 32.434C53.5747 34.7033 51.4287 37.0713 49.11 39.538C50.2447 39.5873 51.3793 39.6367 52.514 39.686C53.6487 39.686 54.7833 39.686 55.918 39.686C56.7073 39.686 57.5707 39.612 58.508 39.464C59.4947 39.2667 60.4073 38.9707 61.246 38.576C61.246 38.576 61.098 38.8473 60.802 39.39C60.5553 39.8833 60.1113 40.4013 59.47 40.944C58.878 41.4373 58.064 41.7333 57.028 41.832C56.0907 41.8813 55.1533 41.9307 54.216 41.98C53.2787 41.98 52.3413 41.98 51.404 41.98C50.6147 41.98 49.8253 41.98 49.036 41.98C48.296 41.98 47.556 41.9553 46.816 41.906C44.5467 44.274 42.1787 46.5927 39.712 48.862C37.2453 51.082 34.754 53.1047 32.238 54.93C29.722 56.7553 27.206 58.186 24.69 59.222C22.2233 60.3073 19.806 60.85 17.438 60.85ZM80.9728 84.752C79.0981 84.752 77.1494 84.3327 75.1268 83.494C73.1534 82.7047 71.7474 81.422 70.9088 79.646C70.5634 79.0047 70.3414 78.314 70.2428 77.574C70.1934 76.8833 70.1688 76.1927 70.1688 75.502V74.688C70.1688 74.2933 70.2181 73.9233 70.3168 73.578C70.4154 73.282 70.6621 73.134 71.0568 73.134C71.1554 73.134 71.2048 73.1833 71.2048 73.282C71.2048 73.578 71.1801 73.874 71.1308 74.17C71.0814 74.466 71.0568 74.7867 71.0568 75.132C71.0568 77.4013 71.7721 79.128 73.2028 80.312C74.6828 81.496 76.5081 82.088 78.6788 82.088C81.7868 82.088 84.6481 81.3233 87.2628 79.794C89.8774 78.2647 92.2454 76.168 94.3668 73.504C96.4388 70.9387 98.1161 68.4227 99.3988 65.956C100.731 63.5387 101.89 61.072 102.877 58.556C103.863 56.04 104.875 53.45 105.911 50.786C104.628 52.71 102.852 54.486 100.583 56.114C98.3134 57.6927 95.8468 58.9507 93.1828 59.888C90.5681 60.8747 88.0274 61.368 85.5608 61.368C82.9461 61.368 80.4794 60.8993 78.1608 59.962C75.8914 59.074 74.0661 57.7173 72.6848 55.892C71.3034 54.0667 70.6128 51.7727 70.6128 49.01C70.6128 45.8033 71.2294 42.6707 72.4628 39.612C73.6961 36.5533 75.3488 33.7167 77.4208 31.102C79.4928 28.438 81.8114 26.144 84.3768 24.22C86.6461 22.4933 89.2608 21.0873 92.2208 20.002C95.2301 18.9167 98.2148 18.374 101.175 18.374C102.408 18.374 103.567 18.4727 104.653 18.67C105.738 18.818 106.848 19.1633 107.983 19.706C108.969 20.15 109.759 20.7173 110.351 21.408C110.943 22.0493 111.239 22.7893 111.239 23.628C111.239 23.7267 111.239 23.85 111.239 23.998C111.239 24.146 111.214 24.2693 111.165 24.368C110.967 25.1573 110.499 26.07 109.759 27.106C109.068 28.0927 108.525 29.1287 108.131 30.214C108.081 30.4113 107.81 30.584 107.317 30.732C106.823 30.8307 106.626 30.7813 106.725 30.584C107.119 29.9427 107.415 29.1533 107.613 28.216C107.859 27.2787 107.983 26.3413 107.983 25.404C107.983 24.7133 107.909 24.072 107.761 23.48C107.662 22.8387 107.465 22.296 107.169 21.852C106.675 20.964 105.911 20.3473 104.875 20.002C103.839 19.6567 102.729 19.484 101.545 19.484C100.41 19.484 99.2754 19.6073 98.1408 19.854C97.0061 20.1007 96.0194 20.372 95.1808 20.668C92.3194 21.704 89.5814 23.332 86.9668 25.552C84.6481 27.5747 82.5761 29.918 80.7508 32.582C78.9748 35.246 77.5688 37.984 76.5328 40.796C75.4968 43.608 74.9788 46.2967 74.9788 48.862C74.9788 51.4767 75.4721 53.598 76.4588 55.226C77.4948 56.854 78.8514 58.0627 80.5288 58.852C82.2061 59.592 84.0068 59.962 85.9308 59.962C89.9268 59.962 93.4294 59.0493 96.4388 57.224C99.4975 55.3493 102.087 52.9073 104.209 49.898C106.33 46.8887 107.958 43.6573 109.093 40.204H101.471C100.879 40.204 100.065 40.2533 99.0288 40.352C97.9928 40.4013 96.9321 40.574 95.8468 40.87C94.7614 41.1167 93.8488 41.536 93.1088 42.128C92.3688 42.72 91.9988 43.534 91.9988 44.57C91.9988 44.9153 92.0481 45.2853 92.1468 45.68C92.2455 46.0253 92.3194 46.2967 92.3688 46.494L91.7028 46.938C91.3574 46.2967 90.9381 45.6307 90.4448 44.94C90.0008 44.2 89.7541 43.608 89.7048 43.164C89.6554 42.7693 89.6801 42.2513 89.7788 41.61C89.8774 40.9687 90.1981 40.4013 90.7408 39.908C91.3328 39.3653 92.1714 39.02 93.2568 38.872C94.3914 38.6747 95.5508 38.576 96.7348 38.576C97.8201 38.576 98.8561 38.6253 99.8428 38.724C100.829 38.7733 101.619 38.798 102.211 38.798H116.271L115.457 39.686C114.766 39.686 114.001 39.8093 113.163 40.056C112.324 40.2533 111.633 40.6973 111.091 41.388C110.005 42.7693 109.167 44.3233 108.575 46.05C108.032 47.7767 107.465 49.602 106.873 51.526C105.886 55.0287 104.924 58.4573 103.987 61.812C103.049 65.216 101.791 68.4227 100.213 71.432C98.6834 74.4907 96.4388 77.3027 93.4788 79.868C91.9001 81.2 89.9268 82.3347 87.5588 83.272C85.1908 84.2587 82.9954 84.752 80.9728 84.752Z" fill="#EB9AC0"/>
<path d="M13.438 60.85C11.9087 60.85 10.6507 60.406 9.664 59.518C8.72667 58.63 8.35667 57.298 8.554 55.522C8.60333 54.8807 8.75133 54.2147 8.998 53.524C9.294 52.784 9.61467 52.0687 9.96 51.378C10.256 50.6873 10.552 50.342 10.848 50.342C11.0947 50.342 11.1193 50.5393 10.922 50.934C10.2807 52.266 9.96 53.45 9.96 54.486C9.96 55.5713 10.33 56.3853 11.07 56.928C11.8593 57.4707 12.8707 57.742 14.104 57.742C16.5213 57.742 19.1853 56.9773 22.096 55.448C25.0067 53.8693 28.016 51.8713 31.124 49.454C34.232 46.9873 37.2167 44.422 40.078 41.758C38.154 41.6593 36.3533 41.5607 34.676 41.462C32.9987 41.3633 31.5187 41.314 30.236 41.314C29.1507 41.314 27.8433 41.4127 26.314 41.61C24.7847 41.8073 23.6007 42.3253 22.762 43.164C22.4167 43.5093 22.096 44.0273 21.8 44.718C21.5533 45.3593 21.43 46.0253 21.43 46.716C21.43 46.9133 21.43 47.1107 21.43 47.308C21.4793 47.456 21.5287 47.6287 21.578 47.826C21.3807 47.7273 21.0107 47.6533 20.468 47.604C19.9747 47.5053 19.654 47.1847 19.506 46.642C19.4567 46.494 19.432 46.2473 19.432 45.902C19.432 45.1127 19.728 44.4713 20.32 43.978C20.912 43.4353 21.6273 42.9667 22.466 42.572C23.3047 42.1773 24.0693 41.832 24.76 41.536C26.388 40.8453 28.0653 40.278 29.792 39.834C31.5187 39.39 33.27 39.168 35.046 39.168C37.0687 39.168 39.5847 39.242 42.594 39.39C44.9127 37.1207 47.0587 34.9747 49.032 32.952C51.0053 30.9293 52.6087 29.252 53.842 27.92C55.5687 26.0947 57.394 24.5407 59.318 23.258C61.2913 21.926 63.2893 20.9887 65.312 20.446H61.242C59.5153 20.446 57.6407 20.52 55.618 20.668C53.5953 20.816 51.696 21.1367 49.92 21.63C48.144 22.1233 46.664 22.8633 45.48 23.85C44.74 24.4913 44.1727 25.2313 43.778 26.07C43.4327 26.8593 43.26 27.5993 43.26 28.29C43.26 29.2273 43.5313 29.8687 44.074 30.214C44.1233 30.214 44.148 30.2387 44.148 30.288C44.148 30.436 43.9753 30.6087 43.63 30.806C43.2847 30.954 43.038 30.9787 42.89 30.88C42.3967 30.5347 41.9527 29.844 41.558 28.808C41.2127 27.7227 41.0893 26.8593 41.188 26.218C41.4347 24.6887 42.1007 23.4553 43.186 22.518C44.3207 21.5313 45.702 20.7667 47.33 20.224C49.0073 19.6813 50.7587 19.3113 52.584 19.114C54.4587 18.9167 56.2347 18.7933 57.912 18.744C59.6387 18.6947 61.094 18.67 62.278 18.67H70.344C70.4427 18.67 70.4673 18.6947 70.418 18.744C71.6513 18.2013 72.934 17.6587 74.266 17.116C75.6473 16.5733 76.8313 16.302 77.818 16.302C78.0647 16.302 78.3113 16.376 78.558 16.524C78.854 16.672 79.002 16.82 79.002 16.968C79.002 17.2147 78.5087 17.338 77.522 17.338C77.0287 17.338 76.5107 17.4367 75.968 17.634C75.4747 17.782 74.8087 18.3 73.97 19.188C73.2793 19.8787 72.416 20.9887 71.38 22.518C70.344 24.0473 69.2093 25.848 67.976 27.92C66.7427 29.9427 65.5093 32.1133 64.276 34.432C63.0427 36.7013 61.8587 38.946 60.724 41.166C59.5893 43.386 58.6027 45.4333 57.764 47.308C57.6653 47.604 57.394 48.2947 56.95 49.38C56.506 50.416 56.0867 51.5753 55.692 52.858C55.2973 54.0913 55.1 55.2013 55.1 56.188C55.1 57.52 55.5687 58.186 56.506 58.186C56.95 58.186 57.394 58.0873 57.838 57.89C58.4793 57.6433 59.1453 57.2733 59.836 56.78C60.5267 56.2867 61.1927 55.7193 61.834 55.078C63.1167 53.8447 64.202 52.6607 65.09 51.526C65.978 50.342 66.5207 49.6267 66.718 49.38C66.866 49.1333 67.0387 49.01 67.236 49.01C67.4333 49.01 67.532 49.1333 67.532 49.38C67.532 49.528 67.458 49.7253 67.31 49.972C66.9647 50.4653 66.3233 51.3287 65.386 52.562C64.4487 53.746 63.3387 54.9547 62.056 56.188C60.8227 57.4213 59.4907 58.3587 58.06 59C57.616 59.1973 57.1473 59.3453 56.654 59.444C56.1607 59.592 55.6673 59.666 55.174 59.666C54.1873 59.666 53.2747 59.3207 52.436 58.63C51.6467 57.9393 51.252 56.8047 51.252 55.226C51.252 53.7953 51.5233 52.266 52.066 50.638C52.658 48.9607 53.2007 47.604 53.694 46.568C54.6807 44.4467 55.84 42.0787 57.172 39.464C58.5533 36.8493 59.9593 34.2347 61.39 31.62C62.87 29.0053 64.2267 26.6373 65.46 24.516C66.6933 22.3947 67.7047 20.816 68.494 19.78C67.7047 19.78 66.644 20.1007 65.312 20.742C63.98 21.334 62.5493 22.148 61.02 23.184C59.54 24.1707 58.1587 25.33 56.876 26.662C55.3467 28.2407 53.5707 30.1647 51.548 32.434C49.5747 34.7033 47.4287 37.0713 45.11 39.538C46.2447 39.5873 47.3793 39.6367 48.514 39.686C49.6487 39.686 50.7833 39.686 51.918 39.686C52.7073 39.686 53.5707 39.612 54.508 39.464C55.4947 39.2667 56.4073 38.9707 57.246 38.576C57.246 38.576 57.098 38.8473 56.802 39.39C56.5553 39.8833 56.1113 40.4013 55.47 40.944C54.878 41.4373 54.064 41.7333 53.028 41.832C52.0907 41.8813 51.1533 41.9307 50.216 41.98C49.2787 41.98 48.3413 41.98 47.404 41.98C46.6147 41.98 45.8253 41.98 45.036 41.98C44.296 41.98 43.556 41.9553 42.816 41.906C40.5467 44.274 38.1787 46.5927 35.712 48.862C33.2453 51.082 30.754 53.1047 28.238 54.93C25.722 56.7553 23.206 58.186 20.69 59.222C18.2233 60.3073 15.806 60.85 13.438 60.85ZM76.9728 84.752C75.0981 84.752 73.1494 84.3327 71.1268 83.494C69.1534 82.7047 67.7474 81.422 66.9088 79.646C66.5634 79.0047 66.3414 78.314 66.2428 77.574C66.1934 76.8833 66.1688 76.1927 66.1688 75.502V74.688C66.1688 74.2933 66.2181 73.9233 66.3168 73.578C66.4154 73.282 66.6621 73.134 67.0568 73.134C67.1554 73.134 67.2048 73.1833 67.2048 73.282C67.2048 73.578 67.1801 73.874 67.1308 74.17C67.0814 74.466 67.0568 74.7867 67.0568 75.132C67.0568 77.4013 67.7721 79.128 69.2028 80.312C70.6828 81.496 72.5081 82.088 74.6788 82.088C77.7868 82.088 80.6481 81.3233 83.2628 79.794C85.8774 78.2647 88.2454 76.168 90.3668 73.504C92.4388 70.9387 94.1161 68.4227 95.3988 65.956C96.7308 63.5387 97.8901 61.072 98.8768 58.556C99.8634 56.04 100.875 53.45 101.911 50.786C100.628 52.71 98.8521 54.486 96.5828 56.114C94.3134 57.6927 91.8468 58.9507 89.1828 59.888C86.5681 60.8747 84.0274 61.368 81.5608 61.368C78.9461 61.368 76.4794 60.8993 74.1608 59.962C71.8914 59.074 70.0661 57.7173 68.6848 55.892C67.3034 54.0667 66.6128 51.7727 66.6128 49.01C66.6128 45.8033 67.2294 42.6707 68.4628 39.612C69.6961 36.5533 71.3488 33.7167 73.4208 31.102C75.4928 28.438 77.8114 26.144 80.3768 24.22C82.6461 22.4933 85.2608 21.0873 88.2208 20.002C91.2301 18.9167 94.2148 18.374 97.1748 18.374C98.4081 18.374 99.5674 18.4727 100.653 18.67C101.738 18.818 102.848 19.1633 103.983 19.706C104.969 20.15 105.759 20.7173 106.351 21.408C106.943 22.0493 107.239 22.7893 107.239 23.628C107.239 23.7267 107.239 23.85 107.239 23.998C107.239 24.146 107.214 24.2693 107.165 24.368C106.967 25.1573 106.499 26.07 105.759 27.106C105.068 28.0927 104.525 29.1287 104.131 30.214C104.081 30.4113 103.81 30.584 103.317 30.732C102.823 30.8307 102.626 30.7813 102.725 30.584C103.119 29.9427 103.415 29.1533 103.613 28.216C103.859 27.2787 103.983 26.3413 103.983 25.404C103.983 24.7133 103.909 24.072 103.761 23.48C103.662 22.8387 103.465 22.296 103.169 21.852C102.675 20.964 101.911 20.3473 100.875 20.002C99.8388 19.6567 98.7288 19.484 97.5448 19.484C96.4101 19.484 95.2754 19.6073 94.1408 19.854C93.0061 20.1007 92.0194 20.372 91.1808 20.668C88.3194 21.704 85.5814 23.332 82.9668 25.552C80.6481 27.5747 78.5761 29.918 76.7508 32.582C74.9748 35.246 73.5688 37.984 72.5328 40.796C71.4968 43.608 70.9788 46.2967 70.9788 48.862C70.9788 51.4767 71.4721 53.598 72.4588 55.226C73.4948 56.854 74.8514 58.0627 76.5288 58.852C78.2061 59.592 80.0068 59.962 81.9308 59.962C85.9268 59.962 89.4294 59.0493 92.4388 57.224C95.4975 55.3493 98.0874 52.9073 100.209 49.898C102.33 46.8887 103.958 43.6573 105.093 40.204H97.4708C96.8788 40.204 96.0648 40.2533 95.0288 40.352C93.9928 40.4013 92.9321 40.574 91.8468 40.87C90.7614 41.1167 89.8488 41.536 89.1088 42.128C88.3688 42.72 87.9988 43.534 87.9988 44.57C87.9988 44.9153 88.0481 45.2853 88.1468 45.68C88.2455 46.0253 88.3194 46.2967 88.3688 46.494L87.7028 46.938C87.3574 46.2967 86.9381 45.6307 86.4448 44.94C86.0008 44.2 85.7541 43.608 85.7048 43.164C85.6554 42.7693 85.6801 42.2513 85.7788 41.61C85.8774 40.9687 86.1981 40.4013 86.7408 39.908C87.3328 39.3653 88.1714 39.02 89.2568 38.872C90.3914 38.6747 91.5508 38.576 92.7348 38.576C93.8201 38.576 94.8561 38.6253 95.8428 38.724C96.8294 38.7733 97.6188 38.798 98.2108 38.798H112.271L111.457 39.686C110.766 39.686 110.001 39.8093 109.163 40.056C108.324 40.2533 107.633 40.6973 107.091 41.388C106.005 42.7693 105.167 44.3233 104.575 46.05C104.032 47.7767 103.465 49.602 102.873 51.526C101.886 55.0287 100.924 58.4573 99.9868 61.812C99.0494 65.216 97.7914 68.4227 96.2128 71.432C94.6834 74.4907 92.4388 77.3027 89.4788 79.868C87.9001 81.2 85.9268 82.3347 83.5588 83.272C81.1908 84.2587 78.9954 84.752 76.9728 84.752Z" fill="black"/>
<path d="M16.392 106.566C14.484 106.566 12.648 106.278 10.884 105.702C9.156 105.162 7.752 104.244 6.672 102.948C5.592 101.652 5.052 99.906 5.052 97.71C5.052 95.37 5.502 93.084 6.402 90.852C7.302 88.62 8.508 86.55 10.02 84.642C11.532 82.698 13.224 81.024 15.096 79.62C16.752 78.36 18.66 77.334 20.82 76.542C23.016 75.75 25.194 75.354 27.354 75.354C28.254 75.354 29.1 75.426 29.892 75.57C30.684 75.678 31.494 75.93 32.322 76.326C33.042 76.65 33.618 77.064 34.05 77.568C34.482 78.036 34.698 78.576 34.698 79.188C34.698 79.26 34.698 79.35 34.698 79.458C34.698 79.566 34.68 79.656 34.644 79.728C34.5 80.304 34.158 80.97 33.618 81.726C33.114 82.446 32.718 83.202 32.43 83.994C32.394 84.138 32.196 84.264 31.836 84.372C31.476 84.444 31.332 84.408 31.404 84.264C31.692 83.796 31.908 83.22 32.052 82.536C32.232 81.852 32.322 81.168 32.322 80.484C32.322 79.98 32.268 79.512 32.16 79.08C32.088 78.612 31.944 78.216 31.728 77.892C31.368 77.244 30.81 76.794 30.054 76.542C29.298 76.29 28.488 76.164 27.624 76.164C26.796 76.164 25.968 76.254 25.14 76.434C24.312 76.614 23.592 76.812 22.98 77.028C20.892 77.784 18.894 78.972 16.986 80.592C15.294 82.068 13.782 83.778 12.45 85.722C11.154 87.666 10.128 89.664 9.372 91.716C8.616 93.768 8.238 95.73 8.238 97.602C8.238 99.51 8.652 101.022 9.48 102.138C10.308 103.254 11.388 104.046 12.72 104.514C14.052 104.982 15.492 105.216 17.04 105.216C18.408 105.216 19.758 105.072 21.09 104.784C22.458 104.496 23.7 104.136 24.816 103.704C26.724 102.984 28.434 102.102 29.946 101.058C31.494 100.014 32.934 98.664 34.266 97.008C34.446 96.828 34.572 96.738 34.644 96.738C34.752 96.738 34.806 96.81 34.806 96.954C34.806 97.242 34.662 97.584 34.374 97.98C33.15 99.636 31.764 101.022 30.216 102.138C28.668 103.254 27.012 104.172 25.248 104.892C24.06 105.36 22.674 105.756 21.09 106.08C19.542 106.404 17.976 106.566 16.392 106.566ZM34.1766 105.108C33.6006 105.108 33.0786 105 32.6106 104.784C32.1786 104.532 31.9626 104.01 31.9626 103.218C31.9626 101.958 32.2866 100.698 32.9346 99.438C33.5826 98.142 34.2486 97.008 34.9326 96.036C35.5446 95.208 36.2286 94.434 36.9846 93.714C37.7766 92.958 38.6226 92.31 39.5226 91.77C40.0986 91.41 40.8726 91.032 41.8446 90.636C42.8526 90.204 43.6986 89.988 44.3826 89.988C44.9586 89.988 45.4626 90.15 45.8946 90.474C46.3266 90.762 46.5426 91.302 46.5426 92.094C46.5426 93.318 46.2186 94.578 45.5706 95.874C44.9586 97.134 44.3106 98.25 43.6266 99.222C43.3026 99.654 42.9786 100.068 42.6546 100.464C42.3306 100.824 41.9706 101.202 41.5746 101.598C42.9066 101.598 44.1306 101.22 45.2466 100.464C46.3626 99.672 47.3346 98.718 48.1626 97.602L48.2706 97.494C48.3786 97.494 48.4326 97.602 48.4326 97.818C48.4326 98.07 48.3606 98.304 48.2166 98.52C47.4966 99.528 46.5966 100.428 45.5166 101.22C44.4366 101.976 43.2126 102.354 41.8446 102.354C41.7006 102.354 41.5566 102.354 41.4126 102.354C41.2686 102.354 41.1246 102.336 40.9806 102.3C38.9646 104.172 36.6966 105.108 34.1766 105.108ZM35.5806 104.19C36.0846 104.19 36.6246 104.01 37.2006 103.65C37.8126 103.29 38.2806 102.948 38.6046 102.624C39.2166 102.012 39.7746 101.364 40.2786 100.68C40.7826 99.96 41.2506 99.24 41.6826 98.52C42.1866 97.656 42.6906 96.63 43.1946 95.442C43.6986 94.254 43.9506 93.138 43.9506 92.094C43.9506 91.266 43.6626 90.852 43.0866 90.852C42.6186 90.852 42.0426 91.05 41.3586 91.446C40.7106 91.842 40.2246 92.202 39.9006 92.526C38.6766 93.786 37.6506 95.154 36.8226 96.63C36.3546 97.458 35.8506 98.43 35.3106 99.546C34.7706 100.662 34.5006 101.688 34.5006 102.624C34.5006 102.768 34.5006 102.912 34.5006 103.056C34.5366 103.164 34.5726 103.29 34.6086 103.434C34.7526 103.938 35.0766 104.19 35.5806 104.19ZM50.8436 105.864C50.1956 105.864 49.5116 105.774 48.7916 105.594C48.0716 105.414 47.4236 105.126 46.8476 104.73C46.3076 104.298 45.9476 103.722 45.7676 103.002C45.7316 102.894 45.7136 102.732 45.7136 102.516C45.7136 102.012 45.8216 101.454 46.0376 100.842C46.2896 100.23 46.5956 99.798 46.9556 99.546C47.0996 99.474 47.2076 99.474 47.2796 99.546C47.3876 99.618 47.4056 99.69 47.3336 99.762C47.2976 99.87 47.2436 100.014 47.1716 100.194C47.0996 100.338 47.0456 100.5 47.0096 100.68C46.9016 101.616 47.0996 102.444 47.6036 103.164C47.8196 103.452 48.0716 103.722 48.3596 103.974C48.6836 104.226 48.9896 104.442 49.2776 104.622C49.5296 104.766 49.8356 104.874 50.1956 104.946C50.5556 104.982 50.9156 105 51.2756 105C51.8516 105 52.4096 104.928 52.9496 104.784C53.4896 104.64 53.8856 104.406 54.1376 104.082C54.6056 103.506 54.8396 102.858 54.8396 102.138C54.8396 101.598 54.6956 101.022 54.4076 100.41C54.1196 99.798 53.6696 99.15 53.0576 98.466C52.6616 98.034 52.2836 97.566 51.9236 97.062C51.5636 96.558 51.3296 96.018 51.2216 95.442C51.1856 95.334 51.1496 95.226 51.1136 95.118C51.1136 95.01 51.1136 94.902 51.1136 94.794C50.6456 95.478 50.1596 96.126 49.6556 96.738C49.1876 97.314 48.7736 97.818 48.4136 98.25C48.2696 98.466 48.1436 98.574 48.0356 98.574C47.9636 98.574 47.9276 98.502 47.9276 98.358C47.9276 98.034 48.0716 97.692 48.3596 97.332C48.6476 97.008 48.9716 96.612 49.3316 96.144C49.6916 95.64 49.9796 95.244 50.1956 94.956C50.8076 94.056 51.2576 93.354 51.5456 92.85C51.8696 92.31 52.2116 91.824 52.5716 91.392C52.9676 90.924 53.4536 90.546 54.0296 90.258C54.6416 89.97 55.2716 89.826 55.9196 89.826C56.6756 89.826 57.3596 89.952 57.9716 90.204C58.6196 90.42 58.9616 90.996 58.9976 91.932C58.9976 92.364 58.9076 92.814 58.7276 93.282C58.5836 93.714 58.4216 94.128 58.2416 94.524C58.1336 94.74 57.9716 94.902 57.7556 95.01C57.5756 95.082 57.4856 95.046 57.4856 94.902C57.4856 94.758 57.5036 94.596 57.5396 94.416C57.5756 94.236 57.5936 94.074 57.5936 93.93C57.5936 93.318 57.4856 92.778 57.2696 92.31C57.0896 91.806 56.8196 91.446 56.4596 91.23C56.0996 90.978 55.7216 90.852 55.3256 90.852C54.7496 90.852 54.1916 91.086 53.6516 91.554C53.1116 91.986 52.8416 92.562 52.8416 93.282C52.8416 93.354 52.8416 93.444 52.8416 93.552C52.8416 93.66 52.8596 93.75 52.8956 93.822C53.0396 94.398 53.4716 95.046 54.1916 95.766C54.9116 96.486 55.4696 97.116 55.8656 97.656C56.5496 98.592 56.8916 99.546 56.8916 100.518C56.8916 101.49 56.6036 102.39 56.0276 103.218C55.4876 104.01 54.7496 104.64 53.8136 105.108C52.9136 105.612 51.9236 105.864 50.8436 105.864ZM60.4784 105.81C60.3344 105.81 60.3344 105.648 60.4784 105.324C60.6584 105 60.8204 104.64 60.9644 104.244C61.1444 103.848 61.3244 103.416 61.5044 102.948C61.8644 102.084 62.2604 101.112 62.6924 100.032C63.1244 98.952 63.5384 97.908 63.9344 96.9C64.3304 95.856 64.6724 94.974 64.9604 94.254C65.2844 93.498 65.5004 93.012 65.6084 92.796C65.1044 93.336 64.4924 94.02 63.7724 94.848C63.0884 95.64 62.4404 96.414 61.8284 97.17C61.2164 97.926 60.7484 98.52 60.4244 98.952C60.3164 99.096 60.2264 99.168 60.1544 99.168C60.0824 99.168 60.0464 99.078 60.0464 98.898C60.0464 98.61 60.1364 98.34 60.3164 98.088C61.0004 97.224 61.7564 96.252 62.5844 95.172C63.4484 94.092 64.2224 93.102 64.9064 92.202C65.5904 91.266 66.0224 90.654 66.2024 90.366C66.5984 90.294 67.1744 90.186 67.9304 90.042C68.7224 89.898 69.2624 89.7 69.5504 89.448C69.6584 89.34 69.7664 89.286 69.8744 89.286C69.9464 89.286 69.9824 89.358 69.9824 89.502C70.0184 89.61 69.9824 89.736 69.8744 89.88C69.6584 90.132 69.2804 90.726 68.7404 91.662C68.2364 92.562 67.6784 93.57 67.0664 94.686C66.4904 95.802 65.9504 96.81 65.4464 97.71C66.0224 97.026 66.5804 96.378 67.1204 95.766C67.6964 95.154 68.0924 94.722 68.3084 94.47C68.7404 94.038 69.3344 93.498 70.0904 92.85C70.8464 92.202 71.6384 91.608 72.4664 91.068C73.2944 90.528 74.0144 90.222 74.6264 90.15C74.7704 90.114 74.8964 90.096 75.0044 90.096C75.1124 90.096 75.2204 90.096 75.3284 90.096C76.0124 90.096 76.3544 90.348 76.3544 90.852C76.3544 91.068 76.3004 91.32 76.1924 91.608C76.0844 91.896 75.9404 92.184 75.7604 92.472C75.5444 92.904 75.1844 93.588 74.6804 94.524C74.1764 95.424 73.7264 96.252 73.3304 97.008L75.8684 94.47C76.3004 94.038 76.8944 93.498 77.6504 92.85C78.4064 92.202 79.1984 91.608 80.0264 91.068C80.8544 90.528 81.5744 90.222 82.1864 90.15C82.3304 90.114 82.4564 90.096 82.5644 90.096C82.7084 90.096 82.8164 90.096 82.8884 90.096C83.6804 90.096 84.0764 90.384 84.0764 90.96C84.0764 91.392 83.8424 91.968 83.3744 92.688C83.1224 93.084 82.7264 93.75 82.1864 94.686C81.6464 95.622 81.0884 96.648 80.5124 97.764C79.9724 98.844 79.5044 99.852 79.1084 100.788C78.7124 101.724 78.5144 102.408 78.5144 102.84C78.5144 103.344 78.7664 103.596 79.2704 103.596C79.7384 103.596 80.3324 103.326 81.0524 102.786C81.8084 102.21 82.5644 101.526 83.3204 100.734C84.1124 99.942 84.7964 99.186 85.3724 98.466C85.6244 98.178 85.8584 97.89 86.0744 97.602C86.3264 97.278 86.4704 97.098 86.5064 97.062C86.5784 97.134 86.6144 97.26 86.6144 97.44C86.6144 97.692 86.5244 97.944 86.3444 98.196C86.2004 98.412 86.0564 98.61 85.9124 98.79C85.2284 99.69 84.4364 100.626 83.5364 101.598C82.6724 102.57 81.7184 103.398 80.6744 104.082C79.6304 104.73 78.5144 105.108 77.3264 105.216C76.9664 105.252 76.6064 105.18 76.2464 105C75.8864 104.82 75.7064 104.532 75.7064 104.136C75.7064 103.632 75.8324 103.038 76.0844 102.354C76.3724 101.67 76.6784 100.986 77.0024 100.302C77.3624 99.618 77.6324 99.06 77.8124 98.628C78.4604 97.368 79.0544 96.18 79.5944 95.064C80.1344 93.948 80.5124 93.156 80.7284 92.688C80.8364 92.472 80.8904 92.292 80.8904 92.148C80.8904 91.896 80.6924 91.878 80.2964 92.094C79.9004 92.31 79.4144 92.634 78.8384 93.066C78.2984 93.498 77.7944 93.93 77.3264 94.362C76.8584 94.758 76.5524 95.028 76.4084 95.172C75.7964 95.784 75.0584 96.612 74.1944 97.656C73.3664 98.7 72.5924 99.798 71.8724 100.95C71.1524 102.066 70.6484 103.11 70.3604 104.082C70.0004 104.406 69.6584 104.568 69.3344 104.568C69.0824 104.568 68.8664 104.478 68.6864 104.298C68.5424 104.118 68.4704 103.902 68.4704 103.65C68.4704 102.93 68.6864 102.084 69.1184 101.112C69.5864 100.104 69.9644 99.276 70.2524 98.628C70.9004 97.368 71.4944 96.18 72.0344 95.064C72.5744 93.948 72.9524 93.156 73.1684 92.688C73.2764 92.472 73.3304 92.292 73.3304 92.148C73.3304 91.896 73.1324 91.878 72.7364 92.094C72.3404 92.31 71.8544 92.634 71.2784 93.066C70.7384 93.498 70.2344 93.93 69.7664 94.362C69.2984 94.758 68.9924 95.028 68.8484 95.172C67.9844 96.072 67.1744 96.99 66.4184 97.926C65.6984 98.862 65.0864 99.87 64.5824 100.95C64.2944 101.598 63.9884 102.318 63.6644 103.11C63.3404 103.902 63.0704 104.568 62.8544 105.108C62.3864 105.144 61.9184 105.27 61.4504 105.486C60.9824 105.702 60.6584 105.81 60.4784 105.81ZM88.5976 105.432C87.1216 105.432 86.0956 105.144 85.5196 104.568C84.9436 103.992 84.6556 103.29 84.6556 102.462C84.6556 101.418 84.9256 100.302 85.4656 99.114C86.0416 97.926 86.5816 96.918 87.0856 96.09C87.6616 95.226 88.4356 94.326 89.4076 93.39C90.3796 92.454 91.4416 91.662 92.5936 91.014C93.7456 90.366 94.8616 90.042 95.9416 90.042C96.8776 90.042 97.5256 90.276 97.8856 90.744C98.2456 91.176 98.4256 91.698 98.4256 92.31C98.4256 93.426 98.0836 94.344 97.3996 95.064C96.7516 95.784 95.9416 96.378 94.9696 96.846C93.9976 97.278 93.0616 97.638 92.1616 97.926C91.6216 98.07 90.9916 98.214 90.2716 98.358C89.5516 98.502 88.8676 98.574 88.2196 98.574C87.9676 99.222 87.7696 99.852 87.6256 100.464C87.4816 101.076 87.4096 101.634 87.4096 102.138C87.4096 102.75 87.5536 103.254 87.8416 103.65C88.1656 104.046 88.6876 104.244 89.4076 104.244C89.6956 104.244 90.0376 104.208 90.4336 104.136C90.8296 104.064 91.2616 103.956 91.7296 103.812C92.8096 103.452 93.8716 102.876 94.9156 102.084C95.9596 101.292 96.9136 100.446 97.7776 99.546C98.6776 98.61 99.3616 97.836 99.8296 97.224C99.9376 97.332 99.9916 97.458 99.9916 97.602C99.9916 97.782 99.8656 98.07 99.6136 98.466C98.8936 99.474 97.9576 100.518 96.8056 101.598C95.6536 102.678 94.3756 103.596 92.9716 104.352C91.5676 105.072 90.1096 105.432 88.5976 105.432ZM88.6516 97.494C89.1196 97.53 89.6416 97.53 90.2176 97.494C90.8296 97.422 91.4236 97.296 91.9996 97.116C93.4756 96.684 94.5376 96 95.1856 95.064C95.8696 94.092 96.2116 93.228 96.2116 92.472C96.2116 92.04 96.1216 91.68 95.9416 91.392C95.7616 91.104 95.4736 90.96 95.0776 90.96C94.0336 90.96 93.0976 91.356 92.2696 92.148C91.4416 92.904 90.7216 93.786 90.1096 94.794C89.4976 95.802 89.0116 96.702 88.6516 97.494ZM93.2416 87.18C93.2056 87.18 93.1696 87.126 93.1336 87.018C93.0976 86.874 93.0976 86.766 93.1336 86.694C93.8536 86.118 94.6636 85.47 95.5636 84.75C96.4996 83.994 97.4536 83.202 98.4256 82.374C98.9296 81.906 99.3076 81.6 99.5596 81.456C99.8116 81.312 100.01 81.24 100.154 81.24C100.262 81.24 100.316 81.402 100.316 81.726C100.316 81.942 100.298 82.176 100.262 82.428C100.226 82.68 100.172 82.842 100.1 82.914C99.8116 83.238 99.2536 83.67 98.4256 84.21C97.6336 84.714 96.7516 85.236 95.7796 85.776C94.8076 86.316 93.9616 86.784 93.2416 87.18ZM101.127 105.162C100.767 105.162 100.461 105.09 100.209 104.946C99.9569 104.802 99.8309 104.532 99.8309 104.136C99.8309 103.632 99.9569 103.038 100.209 102.354C100.497 101.67 100.803 100.986 101.127 100.302C101.451 99.618 101.721 99.06 101.937 98.628C102.117 98.304 102.351 97.8 102.639 97.116C102.963 96.396 103.287 95.658 103.611 94.902C103.971 94.11 104.259 93.444 104.475 92.904C104.727 92.364 104.853 92.094 104.853 92.094C104.529 92.454 104.097 92.958 103.557 93.606C103.053 94.254 102.495 94.938 101.883 95.658C101.307 96.342 100.767 96.99 100.263 97.602C99.7949 98.214 99.4529 98.664 99.2369 98.952C99.1289 99.096 99.0389 99.168 98.9669 99.168C98.8949 99.168 98.8589 99.078 98.8589 98.898C98.8589 98.61 98.9489 98.34 99.1289 98.088C99.5609 97.548 100.083 96.9 100.695 96.144C101.307 95.352 101.919 94.56 102.531 93.768C103.179 92.976 103.737 92.274 104.205 91.662C103.917 91.662 103.539 91.68 103.071 91.716C102.639 91.752 102.243 91.806 101.883 91.878C101.523 91.914 101.325 91.932 101.289 91.932C101.109 91.932 101.127 91.788 101.343 91.5C101.559 91.212 101.847 90.924 102.207 90.636C102.567 90.348 102.837 90.204 103.017 90.204C103.053 90.204 103.341 90.222 103.881 90.258C104.421 90.258 104.817 90.258 105.069 90.258C105.789 89.286 106.491 88.17 107.175 86.91C107.895 85.65 108.597 84.264 109.281 82.752C109.569 82.716 110.055 82.518 110.739 82.158C111.459 81.762 112.017 81.366 112.413 80.97C112.593 80.79 112.737 80.7 112.845 80.7C113.061 80.7 113.061 80.844 112.845 81.132C112.593 81.42 112.161 82.032 111.549 82.968C110.937 83.868 110.253 84.966 109.497 86.262C108.741 87.522 108.021 88.854 107.337 90.258H111.711C112.107 90.258 112.305 90.312 112.305 90.42C112.305 90.564 112.035 90.708 111.495 90.852C110.883 91.032 110.235 91.14 109.551 91.176C108.903 91.212 108.291 91.284 107.715 91.392C107.175 91.5 106.779 91.734 106.527 92.094C106.311 92.346 106.005 92.886 105.609 93.714C105.213 94.542 104.781 95.496 104.313 96.576C103.881 97.62 103.503 98.682 103.179 99.762C102.855 100.806 102.657 101.688 102.585 102.408V102.624C102.585 102.912 102.675 103.146 102.855 103.326C103.035 103.506 103.215 103.596 103.395 103.596C103.863 103.596 104.457 103.308 105.177 102.732C105.933 102.156 106.707 101.472 107.499 100.68C108.291 99.852 108.975 99.096 109.551 98.412C109.803 98.124 110.019 97.854 110.199 97.602C110.415 97.35 110.541 97.188 110.577 97.116C110.649 97.26 110.685 97.368 110.685 97.44C110.685 97.656 110.613 97.89 110.469 98.142C110.361 98.394 110.235 98.61 110.091 98.79C109.407 99.69 108.579 100.644 107.607 101.652C106.635 102.624 105.591 103.452 104.475 104.136C103.395 104.82 102.279 105.162 101.127 105.162ZM120.904 84.372C120.4 84.372 120.04 84.21 119.824 83.886C119.68 83.706 119.608 83.472 119.608 83.184C119.608 82.608 119.878 82.14 120.418 81.78C120.814 81.564 121.174 81.456 121.498 81.456C122.038 81.456 122.416 81.618 122.632 81.942C122.776 82.122 122.848 82.356 122.848 82.644C122.848 83.22 122.56 83.688 121.984 84.048C121.66 84.264 121.3 84.372 120.904 84.372ZM111.508 105.162C111.148 105.162 110.842 105.09 110.59 104.946C110.374 104.802 110.266 104.532 110.266 104.136C110.266 103.632 110.392 103.038 110.644 102.354C110.932 101.67 111.238 100.986 111.562 100.302C111.922 99.618 112.192 99.06 112.372 98.628C112.624 98.124 112.93 97.476 113.29 96.684C113.686 95.856 114.046 95.082 114.37 94.362C114.73 93.606 114.982 93.084 115.126 92.796C114.622 93.336 114.01 94.02 113.29 94.848C112.606 95.64 111.958 96.414 111.346 97.17C110.734 97.926 110.266 98.52 109.942 98.952C109.834 99.096 109.744 99.168 109.672 99.168C109.6 99.168 109.564 99.078 109.564 98.898C109.564 98.61 109.654 98.34 109.834 98.088C110.518 97.224 111.274 96.252 112.102 95.172C112.966 94.092 113.74 93.102 114.424 92.202C115.108 91.266 115.54 90.654 115.72 90.366C116.116 90.294 116.692 90.186 117.448 90.042C118.24 89.898 118.78 89.7 119.068 89.448C119.176 89.34 119.284 89.286 119.392 89.286C119.464 89.286 119.5 89.358 119.5 89.502C119.536 89.61 119.5 89.736 119.392 89.88C119.176 90.132 118.798 90.744 118.258 91.716C117.718 92.688 117.142 93.768 116.53 94.956C115.954 96.108 115.414 97.152 114.91 98.088C114.406 99.06 113.974 99.996 113.614 100.896C113.254 101.796 113.074 102.444 113.074 102.84C113.074 103.344 113.326 103.596 113.83 103.596C114.298 103.596 114.892 103.308 115.612 102.732C116.368 102.156 117.124 101.472 117.88 100.68C118.636 99.852 119.302 99.096 119.878 98.412C120.058 98.196 120.274 97.944 120.526 97.656C120.814 97.332 120.994 97.134 121.066 97.062C121.138 97.134 121.174 97.26 121.174 97.44C121.138 97.692 121.048 97.944 120.904 98.196C120.76 98.412 120.616 98.61 120.472 98.79C119.716 99.726 118.888 100.698 117.988 101.706C117.088 102.678 116.098 103.506 115.018 104.19C113.938 104.838 112.768 105.162 111.508 105.162ZM122.329 105.432C120.997 105.432 120.061 105.18 119.521 104.676C118.981 104.172 118.711 103.524 118.711 102.732C118.711 101.688 119.053 100.536 119.737 99.276C120.421 97.98 121.069 96.9 121.681 96.036C122.293 95.208 122.977 94.434 123.733 93.714C124.525 92.958 125.371 92.31 126.271 91.77C126.847 91.41 127.621 91.032 128.593 90.636C129.601 90.204 130.447 89.988 131.131 89.988C131.959 89.988 132.535 90.186 132.859 90.582C133.183 90.942 133.345 91.392 133.345 91.932C133.345 92.364 133.273 92.814 133.129 93.282C132.985 93.714 132.823 94.128 132.643 94.524C132.535 94.74 132.373 94.902 132.157 95.01C131.941 95.082 131.833 95.046 131.833 94.902C131.833 94.722 131.851 94.56 131.887 94.416C131.923 94.272 131.941 94.11 131.941 93.93C131.941 93.246 131.779 92.58 131.455 91.932C131.167 91.248 130.717 90.906 130.105 90.906C129.457 90.906 128.755 91.14 127.999 91.608C127.243 92.04 126.721 92.418 126.433 92.742C125.497 93.714 124.579 94.92 123.679 96.36C122.815 97.8 122.185 99.168 121.789 100.464C121.537 101.22 121.411 101.868 121.411 102.408C121.411 103.02 121.573 103.452 121.897 103.704C122.221 103.956 122.617 104.082 123.085 104.082C123.445 104.082 123.823 104.028 124.219 103.92C124.651 103.812 125.101 103.686 125.569 103.542C126.649 103.182 127.729 102.624 128.809 101.868C129.925 101.076 130.933 100.248 131.833 99.384C132.733 98.484 133.417 97.71 133.885 97.062C133.957 97.134 133.993 97.242 133.993 97.386C133.993 97.566 133.921 97.782 133.777 98.034C133.633 98.25 133.525 98.43 133.453 98.574C132.697 99.582 131.707 100.626 130.483 101.706C129.259 102.75 127.927 103.632 126.487 104.352C125.083 105.072 123.697 105.432 122.329 105.432ZM133.792 105.108C133.216 105.108 132.694 105 132.226 104.784C131.794 104.532 131.578 104.01 131.578 103.218C131.578 101.958 131.902 100.698 132.55 99.438C133.198 98.142 133.864 97.008 134.548 96.036C135.16 95.208 135.844 94.434 136.6 93.714C137.392 92.958 138.238 92.31 139.138 91.77C139.714 91.41 140.488 91.032 141.46 90.636C142.468 90.204 143.314 89.988 143.998 89.988C144.574 89.988 145.078 90.15 145.51 90.474C145.942 90.762 146.158 91.302 146.158 92.094C146.158 93.318 145.834 94.578 145.186 95.874C144.574 97.134 143.926 98.25 143.242 99.222C142.918 99.654 142.594 100.068 142.27 100.464C141.946 100.824 141.586 101.202 141.19 101.598C142.522 101.598 143.746 101.22 144.862 100.464C145.978 99.672 146.95 98.718 147.778 97.602L147.886 97.494C147.994 97.494 148.048 97.602 148.048 97.818C148.048 98.07 147.976 98.304 147.832 98.52C147.112 99.528 146.212 100.428 145.132 101.22C144.052 101.976 142.828 102.354 141.46 102.354C141.316 102.354 141.172 102.354 141.028 102.354C140.884 102.354 140.74 102.336 140.596 102.3C138.58 104.172 136.312 105.108 133.792 105.108ZM135.196 104.19C135.7 104.19 136.24 104.01 136.816 103.65C137.428 103.29 137.896 102.948 138.22 102.624C138.832 102.012 139.39 101.364 139.894 100.68C140.398 99.96 140.866 99.24 141.298 98.52C141.802 97.656 142.306 96.63 142.81 95.442C143.314 94.254 143.566 93.138 143.566 92.094C143.566 91.266 143.278 90.852 142.702 90.852C142.234 90.852 141.658 91.05 140.974 91.446C140.326 91.842 139.84 92.202 139.516 92.526C138.292 93.786 137.266 95.154 136.438 96.63C135.97 97.458 135.466 98.43 134.926 99.546C134.386 100.662 134.116 101.688 134.116 102.624C134.116 102.768 134.116 102.912 134.116 103.056C134.152 103.164 134.188 103.29 134.224 103.434C134.368 103.938 134.692 104.19 135.196 104.19ZM150.459 105.864C149.811 105.864 149.127 105.774 148.407 105.594C147.687 105.414 147.039 105.126 146.463 104.73C145.923 104.298 145.563 103.722 145.383 103.002C145.347 102.894 145.329 102.732 145.329 102.516C145.329 102.012 145.437 101.454 145.653 100.842C145.905 100.23 146.211 99.798 146.571 99.546C146.715 99.474 146.823 99.474 146.895 99.546C147.003 99.618 147.021 99.69 146.949 99.762C146.913 99.87 146.859 100.014 146.787 100.194C146.715 100.338 146.661 100.5 146.625 100.68C146.517 101.616 146.715 102.444 147.219 103.164C147.435 103.452 147.687 103.722 147.975 103.974C148.299 104.226 148.605 104.442 148.893 104.622C149.145 104.766 149.451 104.874 149.811 104.946C150.171 104.982 150.531 105 150.891 105C151.467 105 152.025 104.928 152.565 104.784C153.105 104.64 153.501 104.406 153.753 104.082C154.221 103.506 154.455 102.858 154.455 102.138C154.455 101.598 154.311 101.022 154.023 100.41C153.735 99.798 153.285 99.15 152.673 98.466C152.277 98.034 151.899 97.566 151.539 97.062C151.179 96.558 150.945 96.018 150.837 95.442C150.801 95.334 150.765 95.226 150.729 95.118C150.729 95.01 150.729 94.902 150.729 94.794C150.261 95.478 149.775 96.126 149.271 96.738C148.803 97.314 148.389 97.818 148.029 98.25C147.885 98.466 147.759 98.574 147.651 98.574C147.579 98.574 147.543 98.502 147.543 98.358C147.543 98.034 147.687 97.692 147.975 97.332C148.263 97.008 148.587 96.612 148.947 96.144C149.307 95.64 149.595 95.244 149.811 94.956C150.423 94.056 150.873 93.354 151.161 92.85C151.485 92.31 151.827 91.824 152.187 91.392C152.583 90.924 153.069 90.546 153.645 90.258C154.257 89.97 154.887 89.826 155.535 89.826C156.291 89.826 156.975 89.952 157.587 90.204C158.235 90.42 158.577 90.996 158.613 91.932C158.613 92.364 158.523 92.814 158.343 93.282C158.199 93.714 158.037 94.128 157.857 94.524C157.749 94.74 157.587 94.902 157.371 95.01C157.191 95.082 157.101 95.046 157.101 94.902C157.101 94.758 157.119 94.596 157.155 94.416C157.191 94.236 157.209 94.074 157.209 93.93C157.209 93.318 157.101 92.778 156.885 92.31C156.705 91.806 156.435 91.446 156.075 91.23C155.715 90.978 155.337 90.852 154.941 90.852C154.365 90.852 153.807 91.086 153.267 91.554C152.727 91.986 152.457 92.562 152.457 93.282C152.457 93.354 152.457 93.444 152.457 93.552C152.457 93.66 152.475 93.75 152.511 93.822C152.655 94.398 153.087 95.046 153.807 95.766C154.527 96.486 155.085 97.116 155.481 97.656C156.165 98.592 156.507 99.546 156.507 100.518C156.507 101.49 156.219 102.39 155.643 103.218C155.103 104.01 154.365 104.64 153.429 105.108C152.529 105.612 151.539 105.864 150.459 105.864Z" fill="#EB9AC0"/>
<path d="M13.392 106.566C11.484 106.566 9.648 106.278 7.884 105.702C6.156 105.162 4.752 104.244 3.672 102.948C2.592 101.652 2.052 99.906 2.052 97.71C2.052 95.37 2.502 93.084 3.402 90.852C4.302 88.62 5.508 86.55 7.02 84.642C8.532 82.698 10.224 81.024 12.096 79.62C13.752 78.36 15.66 77.334 17.82 76.542C20.016 75.75 22.194 75.354 24.354 75.354C25.254 75.354 26.1 75.426 26.892 75.57C27.684 75.678 28.494 75.93 29.322 76.326C30.042 76.65 30.618 77.064 31.05 77.568C31.482 78.036 31.698 78.576 31.698 79.188C31.698 79.26 31.698 79.35 31.698 79.458C31.698 79.566 31.68 79.656 31.644 79.728C31.5 80.304 31.158 80.97 30.618 81.726C30.114 82.446 29.718 83.202 29.43 83.994C29.394 84.138 29.196 84.264 28.836 84.372C28.476 84.444 28.332 84.408 28.404 84.264C28.692 83.796 28.908 83.22 29.052 82.536C29.232 81.852 29.322 81.168 29.322 80.484C29.322 79.98 29.268 79.512 29.16 79.08C29.088 78.612 28.944 78.216 28.728 77.892C28.368 77.244 27.81 76.794 27.054 76.542C26.298 76.29 25.488 76.164 24.624 76.164C23.796 76.164 22.968 76.254 22.14 76.434C21.312 76.614 20.592 76.812 19.98 77.028C17.892 77.784 15.894 78.972 13.986 80.592C12.294 82.068 10.782 83.778 9.45 85.722C8.154 87.666 7.128 89.664 6.372 91.716C5.616 93.768 5.238 95.73 5.238 97.602C5.238 99.51 5.652 101.022 6.48 102.138C7.308 103.254 8.388 104.046 9.72 104.514C11.052 104.982 12.492 105.216 14.04 105.216C15.408 105.216 16.758 105.072 18.09 104.784C19.458 104.496 20.7 104.136 21.816 103.704C23.724 102.984 25.434 102.102 26.946 101.058C28.494 100.014 29.934 98.664 31.266 97.008C31.446 96.828 31.572 96.738 31.644 96.738C31.752 96.738 31.806 96.81 31.806 96.954C31.806 97.242 31.662 97.584 31.374 97.98C30.15 99.636 28.764 101.022 27.216 102.138C25.668 103.254 24.012 104.172 22.248 104.892C21.06 105.36 19.674 105.756 18.09 106.08C16.542 106.404 14.976 106.566 13.392 106.566ZM31.1766 105.108C30.6006 105.108 30.0786 105 29.6106 104.784C29.1786 104.532 28.9626 104.01 28.9626 103.218C28.9626 101.958 29.2866 100.698 29.9346 99.438C30.5826 98.142 31.2486 97.008 31.9326 96.036C32.5446 95.208 33.2286 94.434 33.9846 93.714C34.7766 92.958 35.6226 92.31 36.5226 91.77C37.0986 91.41 37.8726 91.032 38.8446 90.636C39.8526 90.204 40.6986 89.988 41.3826 89.988C41.9586 89.988 42.4626 90.15 42.8946 90.474C43.3266 90.762 43.5426 91.302 43.5426 92.094C43.5426 93.318 43.2186 94.578 42.5706 95.874C41.9586 97.134 41.3106 98.25 40.6266 99.222C40.3026 99.654 39.9786 100.068 39.6546 100.464C39.3306 100.824 38.9706 101.202 38.5746 101.598C39.9066 101.598 41.1306 101.22 42.2466 100.464C43.3626 99.672 44.3346 98.718 45.1626 97.602L45.2706 97.494C45.3786 97.494 45.4326 97.602 45.4326 97.818C45.4326 98.07 45.3606 98.304 45.2166 98.52C44.4966 99.528 43.5966 100.428 42.5166 101.22C41.4366 101.976 40.2126 102.354 38.8446 102.354C38.7006 102.354 38.5566 102.354 38.4126 102.354C38.2686 102.354 38.1246 102.336 37.9806 102.3C35.9646 104.172 33.6966 105.108 31.1766 105.108ZM32.5806 104.19C33.0846 104.19 33.6246 104.01 34.2006 103.65C34.8126 103.29 35.2806 102.948 35.6046 102.624C36.2166 102.012 36.7746 101.364 37.2786 100.68C37.7826 99.96 38.2506 99.24 38.6826 98.52C39.1866 97.656 39.6906 96.63 40.1946 95.442C40.6986 94.254 40.9506 93.138 40.9506 92.094C40.9506 91.266 40.6626 90.852 40.0866 90.852C39.6186 90.852 39.0426 91.05 38.3586 91.446C37.7106 91.842 37.2246 92.202 36.9006 92.526C35.6766 93.786 34.6506 95.154 33.8226 96.63C33.3546 97.458 32.8506 98.43 32.3106 99.546C31.7706 100.662 31.5006 101.688 31.5006 102.624C31.5006 102.768 31.5006 102.912 31.5006 103.056C31.5366 103.164 31.5726 103.29 31.6086 103.434C31.7526 103.938 32.0766 104.19 32.5806 104.19ZM47.8436 105.864C47.1956 105.864 46.5116 105.774 45.7916 105.594C45.0716 105.414 44.4236 105.126 43.8476 104.73C43.3076 104.298 42.9476 103.722 42.7676 103.002C42.7316 102.894 42.7136 102.732 42.7136 102.516C42.7136 102.012 42.8216 101.454 43.0376 100.842C43.2896 100.23 43.5956 99.798 43.9556 99.546C44.0996 99.474 44.2076 99.474 44.2796 99.546C44.3876 99.618 44.4056 99.69 44.3336 99.762C44.2976 99.87 44.2436 100.014 44.1716 100.194C44.0996 100.338 44.0456 100.5 44.0096 100.68C43.9016 101.616 44.0996 102.444 44.6036 103.164C44.8196 103.452 45.0716 103.722 45.3596 103.974C45.6836 104.226 45.9896 104.442 46.2776 104.622C46.5296 104.766 46.8356 104.874 47.1956 104.946C47.5556 104.982 47.9156 105 48.2756 105C48.8516 105 49.4096 104.928 49.9496 104.784C50.4896 104.64 50.8856 104.406 51.1376 104.082C51.6056 103.506 51.8396 102.858 51.8396 102.138C51.8396 101.598 51.6956 101.022 51.4076 100.41C51.1196 99.798 50.6696 99.15 50.0576 98.466C49.6616 98.034 49.2836 97.566 48.9236 97.062C48.5636 96.558 48.3296 96.018 48.2216 95.442C48.1856 95.334 48.1496 95.226 48.1136 95.118C48.1136 95.01 48.1136 94.902 48.1136 94.794C47.6456 95.478 47.1596 96.126 46.6556 96.738C46.1876 97.314 45.7736 97.818 45.4136 98.25C45.2696 98.466 45.1436 98.574 45.0356 98.574C44.9636 98.574 44.9276 98.502 44.9276 98.358C44.9276 98.034 45.0716 97.692 45.3596 97.332C45.6476 97.008 45.9716 96.612 46.3316 96.144C46.6916 95.64 46.9796 95.244 47.1956 94.956C47.8076 94.056 48.2576 93.354 48.5456 92.85C48.8696 92.31 49.2116 91.824 49.5716 91.392C49.9676 90.924 50.4536 90.546 51.0296 90.258C51.6416 89.97 52.2716 89.826 52.9196 89.826C53.6756 89.826 54.3596 89.952 54.9716 90.204C55.6196 90.42 55.9616 90.996 55.9976 91.932C55.9976 92.364 55.9076 92.814 55.7276 93.282C55.5836 93.714 55.4216 94.128 55.2416 94.524C55.1336 94.74 54.9716 94.902 54.7556 95.01C54.5756 95.082 54.4856 95.046 54.4856 94.902C54.4856 94.758 54.5036 94.596 54.5396 94.416C54.5756 94.236 54.5936 94.074 54.5936 93.93C54.5936 93.318 54.4856 92.778 54.2696 92.31C54.0896 91.806 53.8196 91.446 53.4596 91.23C53.0996 90.978 52.7216 90.852 52.3256 90.852C51.7496 90.852 51.1916 91.086 50.6516 91.554C50.1116 91.986 49.8416 92.562 49.8416 93.282C49.8416 93.354 49.8416 93.444 49.8416 93.552C49.8416 93.66 49.8596 93.75 49.8956 93.822C50.0396 94.398 50.4716 95.046 51.1916 95.766C51.9116 96.486 52.4696 97.116 52.8656 97.656C53.5496 98.592 53.8916 99.546 53.8916 100.518C53.8916 101.49 53.6036 102.39 53.0276 103.218C52.4876 104.01 51.7496 104.64 50.8136 105.108C49.9136 105.612 48.9236 105.864 47.8436 105.864ZM57.4784 105.81C57.3344 105.81 57.3344 105.648 57.4784 105.324C57.6584 105 57.8204 104.64 57.9644 104.244C58.1444 103.848 58.3244 103.416 58.5044 102.948C58.8644 102.084 59.2604 101.112 59.6924 100.032C60.1244 98.952 60.5384 97.908 60.9344 96.9C61.3304 95.856 61.6724 94.974 61.9604 94.254C62.2844 93.498 62.5004 93.012 62.6084 92.796C62.1044 93.336 61.4924 94.02 60.7724 94.848C60.0884 95.64 59.4404 96.414 58.8284 97.17C58.2164 97.926 57.7484 98.52 57.4244 98.952C57.3164 99.096 57.2264 99.168 57.1544 99.168C57.0824 99.168 57.0464 99.078 57.0464 98.898C57.0464 98.61 57.1364 98.34 57.3164 98.088C58.0004 97.224 58.7564 96.252 59.5844 95.172C60.4484 94.092 61.2224 93.102 61.9064 92.202C62.5904 91.266 63.0224 90.654 63.2024 90.366C63.5984 90.294 64.1744 90.186 64.9304 90.042C65.7224 89.898 66.2624 89.7 66.5504 89.448C66.6584 89.34 66.7664 89.286 66.8744 89.286C66.9464 89.286 66.9824 89.358 66.9824 89.502C67.0184 89.61 66.9824 89.736 66.8744 89.88C66.6584 90.132 66.2804 90.726 65.7404 91.662C65.2364 92.562 64.6784 93.57 64.0664 94.686C63.4904 95.802 62.9504 96.81 62.4464 97.71C63.0224 97.026 63.5804 96.378 64.1204 95.766C64.6964 95.154 65.0924 94.722 65.3084 94.47C65.7404 94.038 66.3344 93.498 67.0904 92.85C67.8464 92.202 68.6384 91.608 69.4664 91.068C70.2944 90.528 71.0144 90.222 71.6264 90.15C71.7704 90.114 71.8964 90.096 72.0044 90.096C72.1124 90.096 72.2204 90.096 72.3284 90.096C73.0124 90.096 73.3544 90.348 73.3544 90.852C73.3544 91.068 73.3004 91.32 73.1924 91.608C73.0844 91.896 72.9404 92.184 72.7604 92.472C72.5444 92.904 72.1844 93.588 71.6804 94.524C71.1764 95.424 70.7264 96.252 70.3304 97.008L72.8684 94.47C73.3004 94.038 73.8944 93.498 74.6504 92.85C75.4064 92.202 76.1984 91.608 77.0264 91.068C77.8544 90.528 78.5744 90.222 79.1864 90.15C79.3304 90.114 79.4564 90.096 79.5644 90.096C79.7084 90.096 79.8164 90.096 79.8884 90.096C80.6804 90.096 81.0764 90.384 81.0764 90.96C81.0764 91.392 80.8424 91.968 80.3744 92.688C80.1224 93.084 79.7264 93.75 79.1864 94.686C78.6464 95.622 78.0884 96.648 77.5124 97.764C76.9724 98.844 76.5044 99.852 76.1084 100.788C75.7124 101.724 75.5144 102.408 75.5144 102.84C75.5144 103.344 75.7664 103.596 76.2704 103.596C76.7384 103.596 77.3324 103.326 78.0524 102.786C78.8084 102.21 79.5644 101.526 80.3204 100.734C81.1124 99.942 81.7964 99.186 82.3724 98.466C82.6244 98.178 82.8584 97.89 83.0744 97.602C83.3264 97.278 83.4704 97.098 83.5064 97.062C83.5784 97.134 83.6144 97.26 83.6144 97.44C83.6144 97.692 83.5244 97.944 83.3444 98.196C83.2004 98.412 83.0564 98.61 82.9124 98.79C82.2284 99.69 81.4364 100.626 80.5364 101.598C79.6724 102.57 78.7184 103.398 77.6744 104.082C76.6304 104.73 75.5144 105.108 74.3264 105.216C73.9664 105.252 73.6064 105.18 73.2464 105C72.8864 104.82 72.7064 104.532 72.7064 104.136C72.7064 103.632 72.8324 103.038 73.0844 102.354C73.3724 101.67 73.6784 100.986 74.0024 100.302C74.3624 99.618 74.6324 99.06 74.8124 98.628C75.4604 97.368 76.0544 96.18 76.5944 95.064C77.1344 93.948 77.5124 93.156 77.7284 92.688C77.8364 92.472 77.8904 92.292 77.8904 92.148C77.8904 91.896 77.6924 91.878 77.2964 92.094C76.9004 92.31 76.4144 92.634 75.8384 93.066C75.2984 93.498 74.7944 93.93 74.3264 94.362C73.8584 94.758 73.5524 95.028 73.4084 95.172C72.7964 95.784 72.0584 96.612 71.1944 97.656C70.3664 98.7 69.5924 99.798 68.8724 100.95C68.1524 102.066 67.6484 103.11 67.3604 104.082C67.0004 104.406 66.6584 104.568 66.3344 104.568C66.0824 104.568 65.8664 104.478 65.6864 104.298C65.5424 104.118 65.4704 103.902 65.4704 103.65C65.4704 102.93 65.6864 102.084 66.1184 101.112C66.5864 100.104 66.9644 99.276 67.2524 98.628C67.9004 97.368 68.4944 96.18 69.0344 95.064C69.5744 93.948 69.9524 93.156 70.1684 92.688C70.2764 92.472 70.3304 92.292 70.3304 92.148C70.3304 91.896 70.1324 91.878 69.7364 92.094C69.3404 92.31 68.8544 92.634 68.2784 93.066C67.7384 93.498 67.2344 93.93 66.7664 94.362C66.2984 94.758 65.9924 95.028 65.8484 95.172C64.9844 96.072 64.1744 96.99 63.4184 97.926C62.6984 98.862 62.0864 99.87 61.5824 100.95C61.2944 101.598 60.9884 102.318 60.6644 103.11C60.3404 103.902 60.0704 104.568 59.8544 105.108C59.3864 105.144 58.9184 105.27 58.4504 105.486C57.9824 105.702 57.6584 105.81 57.4784 105.81ZM85.5976 105.432C84.1216 105.432 83.0956 105.144 82.5196 104.568C81.9436 103.992 81.6556 103.29 81.6556 102.462C81.6556 101.418 81.9256 100.302 82.4656 99.114C83.0416 97.926 83.5816 96.918 84.0856 96.09C84.6616 95.226 85.4356 94.326 86.4076 93.39C87.3796 92.454 88.4416 91.662 89.5936 91.014C90.7456 90.366 91.8616 90.042 92.9416 90.042C93.8776 90.042 94.5256 90.276 94.8856 90.744C95.2456 91.176 95.4256 91.698 95.4256 92.31C95.4256 93.426 95.0836 94.344 94.3996 95.064C93.7516 95.784 92.9416 96.378 91.9696 96.846C90.9976 97.278 90.0616 97.638 89.1616 97.926C88.6216 98.07 87.9916 98.214 87.2716 98.358C86.5516 98.502 85.8676 98.574 85.2196 98.574C84.9676 99.222 84.7696 99.852 84.6256 100.464C84.4816 101.076 84.4096 101.634 84.4096 102.138C84.4096 102.75 84.5536 103.254 84.8416 103.65C85.1656 104.046 85.6876 104.244 86.4076 104.244C86.6956 104.244 87.0376 104.208 87.4336 104.136C87.8296 104.064 88.2616 103.956 88.7296 103.812C89.8096 103.452 90.8716 102.876 91.9156 102.084C92.9596 101.292 93.9136 100.446 94.7776 99.546C95.6776 98.61 96.3616 97.836 96.8296 97.224C96.9376 97.332 96.9916 97.458 96.9916 97.602C96.9916 97.782 96.8656 98.07 96.6136 98.466C95.8936 99.474 94.9576 100.518 93.8056 101.598C92.6536 102.678 91.3756 103.596 89.9716 104.352C88.5676 105.072 87.1096 105.432 85.5976 105.432ZM85.6516 97.494C86.1196 97.53 86.6416 97.53 87.2176 97.494C87.8296 97.422 88.4236 97.296 88.9996 97.116C90.4756 96.684 91.5376 96 92.1856 95.064C92.8696 94.092 93.2116 93.228 93.2116 92.472C93.2116 92.04 93.1216 91.68 92.9416 91.392C92.7616 91.104 92.4736 90.96 92.0776 90.96C91.0336 90.96 90.0976 91.356 89.2696 92.148C88.4416 92.904 87.7216 93.786 87.1096 94.794C86.4976 95.802 86.0116 96.702 85.6516 97.494ZM90.2416 87.18C90.2056 87.18 90.1696 87.126 90.1336 87.018C90.0976 86.874 90.0976 86.766 90.1336 86.694C90.8536 86.118 91.6636 85.47 92.5636 84.75C93.4996 83.994 94.4536 83.202 95.4256 82.374C95.9296 81.906 96.3076 81.6 96.5596 81.456C96.8116 81.312 97.0096 81.24 97.1536 81.24C97.2616 81.24 97.3156 81.402 97.3156 81.726C97.3156 81.942 97.2976 82.176 97.2616 82.428C97.2256 82.68 97.1716 82.842 97.0996 82.914C96.8116 83.238 96.2536 83.67 95.4256 84.21C94.6336 84.714 93.7516 85.236 92.7796 85.776C91.8076 86.316 90.9616 86.784 90.2416 87.18ZM98.1269 105.162C97.7669 105.162 97.4609 105.09 97.2089 104.946C96.9569 104.802 96.8309 104.532 96.8309 104.136C96.8309 103.632 96.9569 103.038 97.2089 102.354C97.4969 101.67 97.8029 100.986 98.1269 100.302C98.4509 99.618 98.7209 99.06 98.9369 98.628C99.1169 98.304 99.3509 97.8 99.6389 97.116C99.9629 96.396 100.287 95.658 100.611 94.902C100.971 94.11 101.259 93.444 101.475 92.904C101.727 92.364 101.853 92.094 101.853 92.094C101.529 92.454 101.097 92.958 100.557 93.606C100.053 94.254 99.4949 94.938 98.8829 95.658C98.3069 96.342 97.7669 96.99 97.2629 97.602C96.7949 98.214 96.4529 98.664 96.2369 98.952C96.1289 99.096 96.0389 99.168 95.9669 99.168C95.8949 99.168 95.8589 99.078 95.8589 98.898C95.8589 98.61 95.9489 98.34 96.1289 98.088C96.5609 97.548 97.0829 96.9 97.6949 96.144C98.3069 95.352 98.9189 94.56 99.5309 93.768C100.179 92.976 100.737 92.274 101.205 91.662C100.917 91.662 100.539 91.68 100.071 91.716C99.6389 91.752 99.2429 91.806 98.8829 91.878C98.5229 91.914 98.3249 91.932 98.2889 91.932C98.1089 91.932 98.1269 91.788 98.3429 91.5C98.5589 91.212 98.8469 90.924 99.2069 90.636C99.5669 90.348 99.8369 90.204 100.017 90.204C100.053 90.204 100.341 90.222 100.881 90.258C101.421 90.258 101.817 90.258 102.069 90.258C102.789 89.286 103.491 88.17 104.175 86.91C104.895 85.65 105.597 84.264 106.281 82.752C106.569 82.716 107.055 82.518 107.739 82.158C108.459 81.762 109.017 81.366 109.413 80.97C109.593 80.79 109.737 80.7 109.845 80.7C110.061 80.7 110.061 80.844 109.845 81.132C109.593 81.42 109.161 82.032 108.549 82.968C107.937 83.868 107.253 84.966 106.497 86.262C105.741 87.522 105.021 88.854 104.337 90.258H108.711C109.107 90.258 109.305 90.312 109.305 90.42C109.305 90.564 109.035 90.708 108.495 90.852C107.883 91.032 107.235 91.14 106.551 91.176C105.903 91.212 105.291 91.284 104.715 91.392C104.175 91.5 103.779 91.734 103.527 92.094C103.311 92.346 103.005 92.886 102.609 93.714C102.213 94.542 101.781 95.496 101.313 96.576C100.881 97.62 100.503 98.682 100.179 99.762C99.8549 100.806 99.6569 101.688 99.5849 102.408V102.624C99.5849 102.912 99.6749 103.146 99.8549 103.326C100.035 103.506 100.215 103.596 100.395 103.596C100.863 103.596 101.457 103.308 102.177 102.732C102.933 102.156 103.707 101.472 104.499 100.68C105.291 99.852 105.975 99.096 106.551 98.412C106.803 98.124 107.019 97.854 107.199 97.602C107.415 97.35 107.541 97.188 107.577 97.116C107.649 97.26 107.685 97.368 107.685 97.44C107.685 97.656 107.613 97.89 107.469 98.142C107.361 98.394 107.235 98.61 107.091 98.79C106.407 99.69 105.579 100.644 104.607 101.652C103.635 102.624 102.591 103.452 101.475 104.136C100.395 104.82 99.2789 105.162 98.1269 105.162ZM117.904 84.372C117.4 84.372 117.04 84.21 116.824 83.886C116.68 83.706 116.608 83.472 116.608 83.184C116.608 82.608 116.878 82.14 117.418 81.78C117.814 81.564 118.174 81.456 118.498 81.456C119.038 81.456 119.416 81.618 119.632 81.942C119.776 82.122 119.848 82.356 119.848 82.644C119.848 83.22 119.56 83.688 118.984 84.048C118.66 84.264 118.3 84.372 117.904 84.372ZM108.508 105.162C108.148 105.162 107.842 105.09 107.59 104.946C107.374 104.802 107.266 104.532 107.266 104.136C107.266 103.632 107.392 103.038 107.644 102.354C107.932 101.67 108.238 100.986 108.562 100.302C108.922 99.618 109.192 99.06 109.372 98.628C109.624 98.124 109.93 97.476 110.29 96.684C110.686 95.856 111.046 95.082 111.37 94.362C111.73 93.606 111.982 93.084 112.126 92.796C111.622 93.336 111.01 94.02 110.29 94.848C109.606 95.64 108.958 96.414 108.346 97.17C107.734 97.926 107.266 98.52 106.942 98.952C106.834 99.096 106.744 99.168 106.672 99.168C106.6 99.168 106.564 99.078 106.564 98.898C106.564 98.61 106.654 98.34 106.834 98.088C107.518 97.224 108.274 96.252 109.102 95.172C109.966 94.092 110.74 93.102 111.424 92.202C112.108 91.266 112.54 90.654 112.72 90.366C113.116 90.294 113.692 90.186 114.448 90.042C115.24 89.898 115.78 89.7 116.068 89.448C116.176 89.34 116.284 89.286 116.392 89.286C116.464 89.286 116.5 89.358 116.5 89.502C116.536 89.61 116.5 89.736 116.392 89.88C116.176 90.132 115.798 90.744 115.258 91.716C114.718 92.688 114.142 93.768 113.53 94.956C112.954 96.108 112.414 97.152 111.91 98.088C111.406 99.06 110.974 99.996 110.614 100.896C110.254 101.796 110.074 102.444 110.074 102.84C110.074 103.344 110.326 103.596 110.83 103.596C111.298 103.596 111.892 103.308 112.612 102.732C113.368 102.156 114.124 101.472 114.88 100.68C115.636 99.852 116.302 99.096 116.878 98.412C117.058 98.196 117.274 97.944 117.526 97.656C117.814 97.332 117.994 97.134 118.066 97.062C118.138 97.134 118.174 97.26 118.174 97.44C118.138 97.692 118.048 97.944 117.904 98.196C117.76 98.412 117.616 98.61 117.472 98.79C116.716 99.726 115.888 100.698 114.988 101.706C114.088 102.678 113.098 103.506 112.018 104.19C110.938 104.838 109.768 105.162 108.508 105.162ZM119.329 105.432C117.997 105.432 117.061 105.18 116.521 104.676C115.981 104.172 115.711 103.524 115.711 102.732C115.711 101.688 116.053 100.536 116.737 99.276C117.421 97.98 118.069 96.9 118.681 96.036C119.293 95.208 119.977 94.434 120.733 93.714C121.525 92.958 122.371 92.31 123.271 91.77C123.847 91.41 124.621 91.032 125.593 90.636C126.601 90.204 127.447 89.988 128.131 89.988C128.959 89.988 129.535 90.186 129.859 90.582C130.183 90.942 130.345 91.392 130.345 91.932C130.345 92.364 130.273 92.814 130.129 93.282C129.985 93.714 129.823 94.128 129.643 94.524C129.535 94.74 129.373 94.902 129.157 95.01C128.941 95.082 128.833 95.046 128.833 94.902C128.833 94.722 128.851 94.56 128.887 94.416C128.923 94.272 128.941 94.11 128.941 93.93C128.941 93.246 128.779 92.58 128.455 91.932C128.167 91.248 127.717 90.906 127.105 90.906C126.457 90.906 125.755 91.14 124.999 91.608C124.243 92.04 123.721 92.418 123.433 92.742C122.497 93.714 121.579 94.92 120.679 96.36C119.815 97.8 119.185 99.168 118.789 100.464C118.537 101.22 118.411 101.868 118.411 102.408C118.411 103.02 118.573 103.452 118.897 103.704C119.221 103.956 119.617 104.082 120.085 104.082C120.445 104.082 120.823 104.028 121.219 103.92C121.651 103.812 122.101 103.686 122.569 103.542C123.649 103.182 124.729 102.624 125.809 101.868C126.925 101.076 127.933 100.248 128.833 99.384C129.733 98.484 130.417 97.71 130.885 97.062C130.957 97.134 130.993 97.242 130.993 97.386C130.993 97.566 130.921 97.782 130.777 98.034C130.633 98.25 130.525 98.43 130.453 98.574C129.697 99.582 128.707 100.626 127.483 101.706C126.259 102.75 124.927 103.632 123.487 104.352C122.083 105.072 120.697 105.432 119.329 105.432ZM130.792 105.108C130.216 105.108 129.694 105 129.226 104.784C128.794 104.532 128.578 104.01 128.578 103.218C128.578 101.958 128.902 100.698 129.55 99.438C130.198 98.142 130.864 97.008 131.548 96.036C132.16 95.208 132.844 94.434 133.6 93.714C134.392 92.958 135.238 92.31 136.138 91.77C136.714 91.41 137.488 91.032 138.46 90.636C139.468 90.204 140.314 89.988 140.998 89.988C141.574 89.988 142.078 90.15 142.51 90.474C142.942 90.762 143.158 91.302 143.158 92.094C143.158 93.318 142.834 94.578 142.186 95.874C141.574 97.134 140.926 98.25 140.242 99.222C139.918 99.654 139.594 100.068 139.27 100.464C138.946 100.824 138.586 101.202 138.19 101.598C139.522 101.598 140.746 101.22 141.862 100.464C142.978 99.672 143.95 98.718 144.778 97.602L144.886 97.494C144.994 97.494 145.048 97.602 145.048 97.818C145.048 98.07 144.976 98.304 144.832 98.52C144.112 99.528 143.212 100.428 142.132 101.22C141.052 101.976 139.828 102.354 138.46 102.354C138.316 102.354 138.172 102.354 138.028 102.354C137.884 102.354 137.74 102.336 137.596 102.3C135.58 104.172 133.312 105.108 130.792 105.108ZM132.196 104.19C132.7 104.19 133.24 104.01 133.816 103.65C134.428 103.29 134.896 102.948 135.22 102.624C135.832 102.012 136.39 101.364 136.894 100.68C137.398 99.96 137.866 99.24 138.298 98.52C138.802 97.656 139.306 96.63 139.81 95.442C140.314 94.254 140.566 93.138 140.566 92.094C140.566 91.266 140.278 90.852 139.702 90.852C139.234 90.852 138.658 91.05 137.974 91.446C137.326 91.842 136.84 92.202 136.516 92.526C135.292 93.786 134.266 95.154 133.438 96.63C132.97 97.458 132.466 98.43 131.926 99.546C131.386 100.662 131.116 101.688 131.116 102.624C131.116 102.768 131.116 102.912 131.116 103.056C131.152 103.164 131.188 103.29 131.224 103.434C131.368 103.938 131.692 104.19 132.196 104.19ZM147.459 105.864C146.811 105.864 146.127 105.774 145.407 105.594C144.687 105.414 144.039 105.126 143.463 104.73C142.923 104.298 142.563 103.722 142.383 103.002C142.347 102.894 142.329 102.732 142.329 102.516C142.329 102.012 142.437 101.454 142.653 100.842C142.905 100.23 143.211 99.798 143.571 99.546C143.715 99.474 143.823 99.474 143.895 99.546C144.003 99.618 144.021 99.69 143.949 99.762C143.913 99.87 143.859 100.014 143.787 100.194C143.715 100.338 143.661 100.5 143.625 100.68C143.517 101.616 143.715 102.444 144.219 103.164C144.435 103.452 144.687 103.722 144.975 103.974C145.299 104.226 145.605 104.442 145.893 104.622C146.145 104.766 146.451 104.874 146.811 104.946C147.171 104.982 147.531 105 147.891 105C148.467 105 149.025 104.928 149.565 104.784C150.105 104.64 150.501 104.406 150.753 104.082C151.221 103.506 151.455 102.858 151.455 102.138C151.455 101.598 151.311 101.022 151.023 100.41C150.735 99.798 150.285 99.15 149.673 98.466C149.277 98.034 148.899 97.566 148.539 97.062C148.179 96.558 147.945 96.018 147.837 95.442C147.801 95.334 147.765 95.226 147.729 95.118C147.729 95.01 147.729 94.902 147.729 94.794C147.261 95.478 146.775 96.126 146.271 96.738C145.803 97.314 145.389 97.818 145.029 98.25C144.885 98.466 144.759 98.574 144.651 98.574C144.579 98.574 144.543 98.502 144.543 98.358C144.543 98.034 144.687 97.692 144.975 97.332C145.263 97.008 145.587 96.612 145.947 96.144C146.307 95.64 146.595 95.244 146.811 94.956C147.423 94.056 147.873 93.354 148.161 92.85C148.485 92.31 148.827 91.824 149.187 91.392C149.583 90.924 150.069 90.546 150.645 90.258C151.257 89.97 151.887 89.826 152.535 89.826C153.291 89.826 153.975 89.952 154.587 90.204C155.235 90.42 155.577 90.996 155.613 91.932C155.613 92.364 155.523 92.814 155.343 93.282C155.199 93.714 155.037 94.128 154.857 94.524C154.749 94.74 154.587 94.902 154.371 95.01C154.191 95.082 154.101 95.046 154.101 94.902C154.101 94.758 154.119 94.596 154.155 94.416C154.191 94.236 154.209 94.074 154.209 93.93C154.209 93.318 154.101 92.778 153.885 92.31C153.705 91.806 153.435 91.446 153.075 91.23C152.715 90.978 152.337 90.852 151.941 90.852C151.365 90.852 150.807 91.086 150.267 91.554C149.727 91.986 149.457 92.562 149.457 93.282C149.457 93.354 149.457 93.444 149.457 93.552C149.457 93.66 149.475 93.75 149.511 93.822C149.655 94.398 150.087 95.046 150.807 95.766C151.527 96.486 152.085 97.116 152.481 97.656C153.165 98.592 153.507 99.546 153.507 100.518C153.507 101.49 153.219 102.39 152.643 103.218C152.103 104.01 151.365 104.64 150.429 105.108C149.529 105.612 148.539 105.864 147.459 105.864Z" fill="black"/>
</svg>
