<svg width="110" height="85" viewBox="0 0 110 85" fill="none" xmlns="http://www.w3.org/2000/svg">
<path d="M10.438 60.85C8.90867 60.85 7.65067 60.406 6.664 59.518C5.72667 58.63 5.35667 57.298 5.554 55.522C5.60333 54.8807 5.75133 54.2147 5.998 53.524C6.294 52.784 6.61467 52.0687 6.96 51.378C7.256 50.6873 7.552 50.342 7.848 50.342C8.09467 50.342 8.11933 50.5393 7.922 50.934C7.28067 52.266 6.96 53.45 6.96 54.486C6.96 55.5713 7.33 56.3853 8.07 56.928C8.85933 57.4707 9.87067 57.742 11.104 57.742C13.5213 57.742 16.1853 56.9773 19.096 55.448C22.0067 53.8693 25.016 51.8713 28.124 49.454C31.232 46.9873 34.2167 44.422 37.078 41.758C35.154 41.6593 33.3533 41.5607 31.676 41.462C29.9987 41.3633 28.5187 41.314 27.236 41.314C26.1507 41.314 24.8433 41.4127 23.314 41.61C21.7847 41.8073 20.6007 42.3253 19.762 43.164C19.4167 43.5093 19.096 44.0273 18.8 44.718C18.5533 45.3593 18.43 46.0253 18.43 46.716C18.43 46.9133 18.43 47.1107 18.43 47.308C18.4793 47.456 18.5287 47.6287 18.578 47.826C18.3807 47.7273 18.0107 47.6533 17.468 47.604C16.9747 47.5053 16.654 47.1847 16.506 46.642C16.4567 46.494 16.432 46.2473 16.432 45.902C16.432 45.1127 16.728 44.4713 17.32 43.978C17.912 43.4353 18.6273 42.9667 19.466 42.572C20.3047 42.1773 21.0693 41.832 21.76 41.536C23.388 40.8453 25.0653 40.278 26.792 39.834C28.5187 39.39 30.27 39.168 32.046 39.168C34.0687 39.168 36.5847 39.242 39.594 39.39C41.9127 37.1207 44.0587 34.9747 46.032 32.952C48.0053 30.9293 49.6087 29.252 50.842 27.92C52.5687 26.0947 54.394 24.5407 56.318 23.258C58.2913 21.926 60.2893 20.9887 62.312 20.446H58.242C56.5153 20.446 54.6407 20.52 52.618 20.668C50.5953 20.816 48.696 21.1367 46.92 21.63C45.144 22.1233 43.664 22.8633 42.48 23.85C41.74 24.4913 41.1727 25.2313 40.778 26.07C40.4327 26.8593 40.26 27.5993 40.26 28.29C40.26 29.2273 40.5313 29.8687 41.074 30.214C41.1233 30.214 41.148 30.2387 41.148 30.288C41.148 30.436 40.9753 30.6087 40.63 30.806C40.2847 30.954 40.038 30.9787 39.89 30.88C39.3967 30.5347 38.9527 29.844 38.558 28.808C38.2127 27.7227 38.0893 26.8593 38.188 26.218C38.4347 24.6887 39.1007 23.4553 40.186 22.518C41.3207 21.5313 42.702 20.7667 44.33 20.224C46.0073 19.6813 47.7587 19.3113 49.584 19.114C51.4587 18.9167 53.2347 18.7933 54.912 18.744C56.6387 18.6947 58.094 18.67 59.278 18.67H67.344C67.4427 18.67 67.4673 18.6947 67.418 18.744C68.6513 18.2013 69.934 17.6587 71.266 17.116C72.6473 16.5733 73.8313 16.302 74.818 16.302C75.0647 16.302 75.3113 16.376 75.558 16.524C75.854 16.672 76.002 16.82 76.002 16.968C76.002 17.2147 75.5087 17.338 74.522 17.338C74.0287 17.338 73.5107 17.4367 72.968 17.634C72.4747 17.782 71.8087 18.3 70.97 19.188C70.2793 19.8787 69.416 20.9887 68.38 22.518C67.344 24.0473 66.2093 25.848 64.976 27.92C63.7427 29.9427 62.5093 32.1133 61.276 34.432C60.0427 36.7013 58.8587 38.946 57.724 41.166C56.5893 43.386 55.6027 45.4333 54.764 47.308C54.6653 47.604 54.394 48.2947 53.95 49.38C53.506 50.416 53.0867 51.5753 52.692 52.858C52.2973 54.0913 52.1 55.2013 52.1 56.188C52.1 57.52 52.5687 58.186 53.506 58.186C53.95 58.186 54.394 58.0873 54.838 57.89C55.4793 57.6433 56.1453 57.2733 56.836 56.78C57.5267 56.2867 58.1927 55.7193 58.834 55.078C60.1167 53.8447 61.202 52.6607 62.09 51.526C62.978 50.342 63.5207 49.6267 63.718 49.38C63.866 49.1333 64.0387 49.01 64.236 49.01C64.4333 49.01 64.532 49.1333 64.532 49.38C64.532 49.528 64.458 49.7253 64.31 49.972C63.9647 50.4653 63.3233 51.3287 62.386 52.562C61.4487 53.746 60.3387 54.9547 59.056 56.188C57.8227 57.4213 56.4907 58.3587 55.06 59C54.616 59.1973 54.1473 59.3453 53.654 59.444C53.1607 59.592 52.6673 59.666 52.174 59.666C51.1873 59.666 50.2747 59.3207 49.436 58.63C48.6467 57.9393 48.252 56.8047 48.252 55.226C48.252 53.7953 48.5233 52.266 49.066 50.638C49.658 48.9607 50.2007 47.604 50.694 46.568C51.6807 44.4467 52.84 42.0787 54.172 39.464C55.5533 36.8493 56.9593 34.2347 58.39 31.62C59.87 29.0053 61.2267 26.6373 62.46 24.516C63.6933 22.3947 64.7047 20.816 65.494 19.78C64.7047 19.78 63.644 20.1007 62.312 20.742C60.98 21.334 59.5493 22.148 58.02 23.184C56.54 24.1707 55.1587 25.33 53.876 26.662C52.3467 28.2407 50.5707 30.1647 48.548 32.434C46.5747 34.7033 44.4287 37.0713 42.11 39.538C43.2447 39.5873 44.3793 39.6367 45.514 39.686C46.6487 39.686 47.7833 39.686 48.918 39.686C49.7073 39.686 50.5707 39.612 51.508 39.464C52.4947 39.2667 53.4073 38.9707 54.246 38.576C54.246 38.576 54.098 38.8473 53.802 39.39C53.5553 39.8833 53.1113 40.4013 52.47 40.944C51.878 41.4373 51.064 41.7333 50.028 41.832C49.0907 41.8813 48.1533 41.9307 47.216 41.98C46.2787 41.98 45.3413 41.98 44.404 41.98C43.6147 41.98 42.8253 41.98 42.036 41.98C41.296 41.98 40.556 41.9553 39.816 41.906C37.5467 44.274 35.1787 46.5927 32.712 48.862C30.2453 51.082 27.754 53.1047 25.238 54.93C22.722 56.7553 20.206 58.186 17.69 59.222C15.2233 60.3073 12.806 60.85 10.438 60.85ZM73.9728 84.752C72.0981 84.752 70.1494 84.3327 68.1268 83.494C66.1534 82.7047 64.7474 81.422 63.9088 79.646C63.5634 79.0047 63.3414 78.314 63.2428 77.574C63.1934 76.8833 63.1688 76.1927 63.1688 75.502V74.688C63.1688 74.2933 63.2181 73.9233 63.3168 73.578C63.4154 73.282 63.6621 73.134 64.0568 73.134C64.1554 73.134 64.2048 73.1833 64.2048 73.282C64.2048 73.578 64.1801 73.874 64.1308 74.17C64.0814 74.466 64.0568 74.7867 64.0568 75.132C64.0568 77.4013 64.7721 79.128 66.2028 80.312C67.6828 81.496 69.5081 82.088 71.6788 82.088C74.7868 82.088 77.6481 81.3233 80.2628 79.794C82.8774 78.2647 85.2454 76.168 87.3668 73.504C89.4388 70.9387 91.1161 68.4227 92.3988 65.956C93.7308 63.5387 94.8901 61.072 95.8768 58.556C96.8634 56.04 97.8748 53.45 98.9108 50.786C97.6281 52.71 95.8521 54.486 93.5828 56.114C91.3134 57.6927 88.8468 58.9507 86.1828 59.888C83.5681 60.8747 81.0274 61.368 78.5608 61.368C75.9461 61.368 73.4794 60.8993 71.1608 59.962C68.8914 59.074 67.0661 57.7173 65.6848 55.892C64.3034 54.0667 63.6128 51.7727 63.6128 49.01C63.6128 45.8033 64.2294 42.6707 65.4628 39.612C66.6961 36.5533 68.3488 33.7167 70.4208 31.102C72.4928 28.438 74.8114 26.144 77.3768 24.22C79.6461 22.4933 82.2608 21.0873 85.2208 20.002C88.2301 18.9167 91.2148 18.374 94.1748 18.374C95.4081 18.374 96.5674 18.4727 97.6528 18.67C98.7381 18.818 99.8481 19.1633 100.983 19.706C101.969 20.15 102.759 20.7173 103.351 21.408C103.943 22.0493 104.239 22.7893 104.239 23.628C104.239 23.7267 104.239 23.85 104.239 23.998C104.239 24.146 104.214 24.2693 104.165 24.368C103.967 25.1573 103.499 26.07 102.759 27.106C102.068 28.0927 101.525 29.1287 101.131 30.214C101.081 30.4113 100.81 30.584 100.317 30.732C99.8235 30.8307 99.6261 30.7813 99.7248 30.584C100.119 29.9427 100.415 29.1533 100.613 28.216C100.859 27.2787 100.983 26.3413 100.983 25.404C100.983 24.7133 100.909 24.072 100.761 23.48C100.662 22.8387 100.465 22.296 100.169 21.852C99.6754 20.964 98.9108 20.3473 97.8748 20.002C96.8388 19.6567 95.7288 19.484 94.5448 19.484C93.4101 19.484 92.2754 19.6073 91.1408 19.854C90.0061 20.1007 89.0194 20.372 88.1808 20.668C85.3194 21.704 82.5814 23.332 79.9668 25.552C77.6481 27.5747 75.5761 29.918 73.7508 32.582C71.9748 35.246 70.5688 37.984 69.5328 40.796C68.4968 43.608 67.9788 46.2967 67.9788 48.862C67.9788 51.4767 68.4721 53.598 69.4588 55.226C70.4948 56.854 71.8514 58.0627 73.5288 58.852C75.2061 59.592 77.0068 59.962 78.9308 59.962C82.9268 59.962 86.4294 59.0493 89.4388 57.224C92.4975 55.3493 95.0874 52.9073 97.2088 49.898C99.3301 46.8887 100.958 43.6573 102.093 40.204H94.4708C93.8788 40.204 93.0648 40.2533 92.0288 40.352C90.9928 40.4013 89.9321 40.574 88.8468 40.87C87.7614 41.1167 86.8488 41.536 86.1088 42.128C85.3688 42.72 84.9988 43.534 84.9988 44.57C84.9988 44.9153 85.0481 45.2853 85.1468 45.68C85.2455 46.0253 85.3194 46.2967 85.3688 46.494L84.7028 46.938C84.3574 46.2967 83.9381 45.6307 83.4448 44.94C83.0008 44.2 82.7541 43.608 82.7048 43.164C82.6554 42.7693 82.6801 42.2513 82.7788 41.61C82.8774 40.9687 83.1981 40.4013 83.7408 39.908C84.3328 39.3653 85.1714 39.02 86.2568 38.872C87.3914 38.6747 88.5508 38.576 89.7348 38.576C90.8201 38.576 91.8561 38.6253 92.8428 38.724C93.8294 38.7733 94.6188 38.798 95.2108 38.798H109.271L108.457 39.686C107.766 39.686 107.001 39.8093 106.163 40.056C105.324 40.2533 104.633 40.6973 104.091 41.388C103.005 42.7693 102.167 44.3233 101.575 46.05C101.032 47.7767 100.465 49.602 99.8728 51.526C98.8861 55.0287 97.9241 58.4573 96.9868 61.812C96.0494 65.216 94.7914 68.4227 93.2128 71.432C91.6834 74.4907 89.4388 77.3027 86.4788 79.868C84.9001 81.2 82.9268 82.3347 80.5588 83.272C78.1908 84.2587 75.9954 84.752 73.9728 84.752Z" fill="#EB9AC0"/>
<path d="M6.438 60.85C4.90867 60.85 3.65067 60.406 2.664 59.518C1.72667 58.63 1.35667 57.298 1.554 55.522C1.60333 54.8807 1.75133 54.2147 1.998 53.524C2.294 52.784 2.61467 52.0687 2.96 51.378C3.256 50.6873 3.552 50.342 3.848 50.342C4.09467 50.342 4.11933 50.5393 3.922 50.934C3.28067 52.266 2.96 53.45 2.96 54.486C2.96 55.5713 3.33 56.3853 4.07 56.928C4.85933 57.4707 5.87067 57.742 7.104 57.742C9.52133 57.742 12.1853 56.9773 15.096 55.448C18.0067 53.8693 21.016 51.8713 24.124 49.454C27.232 46.9873 30.2167 44.422 33.078 41.758C31.154 41.6593 29.3533 41.5607 27.676 41.462C25.9987 41.3633 24.5187 41.314 23.236 41.314C22.1507 41.314 20.8433 41.4127 19.314 41.61C17.7847 41.8073 16.6007 42.3253 15.762 43.164C15.4167 43.5093 15.096 44.0273 14.8 44.718C14.5533 45.3593 14.43 46.0253 14.43 46.716C14.43 46.9133 14.43 47.1107 14.43 47.308C14.4793 47.456 14.5287 47.6287 14.578 47.826C14.3807 47.7273 14.0107 47.6533 13.468 47.604C12.9747 47.5053 12.654 47.1847 12.506 46.642C12.4567 46.494 12.432 46.2473 12.432 45.902C12.432 45.1127 12.728 44.4713 13.32 43.978C13.912 43.4353 14.6273 42.9667 15.466 42.572C16.3047 42.1773 17.0693 41.832 17.76 41.536C19.388 40.8453 21.0653 40.278 22.792 39.834C24.5187 39.39 26.27 39.168 28.046 39.168C30.0687 39.168 32.5847 39.242 35.594 39.39C37.9127 37.1207 40.0587 34.9747 42.032 32.952C44.0053 30.9293 45.6087 29.252 46.842 27.92C48.5687 26.0947 50.394 24.5407 52.318 23.258C54.2913 21.926 56.2893 20.9887 58.312 20.446H54.242C52.5153 20.446 50.6407 20.52 48.618 20.668C46.5953 20.816 44.696 21.1367 42.92 21.63C41.144 22.1233 39.664 22.8633 38.48 23.85C37.74 24.4913 37.1727 25.2313 36.778 26.07C36.4327 26.8593 36.26 27.5993 36.26 28.29C36.26 29.2273 36.5313 29.8687 37.074 30.214C37.1233 30.214 37.148 30.2387 37.148 30.288C37.148 30.436 36.9753 30.6087 36.63 30.806C36.2847 30.954 36.038 30.9787 35.89 30.88C35.3967 30.5347 34.9527 29.844 34.558 28.808C34.2127 27.7227 34.0893 26.8593 34.188 26.218C34.4347 24.6887 35.1007 23.4553 36.186 22.518C37.3207 21.5313 38.702 20.7667 40.33 20.224C42.0073 19.6813 43.7587 19.3113 45.584 19.114C47.4587 18.9167 49.2347 18.7933 50.912 18.744C52.6387 18.6947 54.094 18.67 55.278 18.67H63.344C63.4427 18.67 63.4673 18.6947 63.418 18.744C64.6513 18.2013 65.934 17.6587 67.266 17.116C68.6473 16.5733 69.8313 16.302 70.818 16.302C71.0647 16.302 71.3113 16.376 71.558 16.524C71.854 16.672 72.002 16.82 72.002 16.968C72.002 17.2147 71.5087 17.338 70.522 17.338C70.0287 17.338 69.5107 17.4367 68.968 17.634C68.4747 17.782 67.8087 18.3 66.97 19.188C66.2793 19.8787 65.416 20.9887 64.38 22.518C63.344 24.0473 62.2093 25.848 60.976 27.92C59.7427 29.9427 58.5093 32.1133 57.276 34.432C56.0427 36.7013 54.8587 38.946 53.724 41.166C52.5893 43.386 51.6027 45.4333 50.764 47.308C50.6653 47.604 50.394 48.2947 49.95 49.38C49.506 50.416 49.0867 51.5753 48.692 52.858C48.2973 54.0913 48.1 55.2013 48.1 56.188C48.1 57.52 48.5687 58.186 49.506 58.186C49.95 58.186 50.394 58.0873 50.838 57.89C51.4793 57.6433 52.1453 57.2733 52.836 56.78C53.5267 56.2867 54.1927 55.7193 54.834 55.078C56.1167 53.8447 57.202 52.6607 58.09 51.526C58.978 50.342 59.5207 49.6267 59.718 49.38C59.866 49.1333 60.0387 49.01 60.236 49.01C60.4333 49.01 60.532 49.1333 60.532 49.38C60.532 49.528 60.458 49.7253 60.31 49.972C59.9647 50.4653 59.3233 51.3287 58.386 52.562C57.4487 53.746 56.3387 54.9547 55.056 56.188C53.8227 57.4213 52.4907 58.3587 51.06 59C50.616 59.1973 50.1473 59.3453 49.654 59.444C49.1607 59.592 48.6673 59.666 48.174 59.666C47.1873 59.666 46.2747 59.3207 45.436 58.63C44.6467 57.9393 44.252 56.8047 44.252 55.226C44.252 53.7953 44.5233 52.266 45.066 50.638C45.658 48.9607 46.2007 47.604 46.694 46.568C47.6807 44.4467 48.84 42.0787 50.172 39.464C51.5533 36.8493 52.9593 34.2347 54.39 31.62C55.87 29.0053 57.2267 26.6373 58.46 24.516C59.6933 22.3947 60.7047 20.816 61.494 19.78C60.7047 19.78 59.644 20.1007 58.312 20.742C56.98 21.334 55.5493 22.148 54.02 23.184C52.54 24.1707 51.1587 25.33 49.876 26.662C48.3467 28.2407 46.5707 30.1647 44.548 32.434C42.5747 34.7033 40.4287 37.0713 38.11 39.538C39.2447 39.5873 40.3793 39.6367 41.514 39.686C42.6487 39.686 43.7833 39.686 44.918 39.686C45.7073 39.686 46.5707 39.612 47.508 39.464C48.4947 39.2667 49.4073 38.9707 50.246 38.576C50.246 38.576 50.098 38.8473 49.802 39.39C49.5553 39.8833 49.1113 40.4013 48.47 40.944C47.878 41.4373 47.064 41.7333 46.028 41.832C45.0907 41.8813 44.1533 41.9307 43.216 41.98C42.2787 41.98 41.3413 41.98 40.404 41.98C39.6147 41.98 38.8253 41.98 38.036 41.98C37.296 41.98 36.556 41.9553 35.816 41.906C33.5467 44.274 31.1787 46.5927 28.712 48.862C26.2453 51.082 23.754 53.1047 21.238 54.93C18.722 56.7553 16.206 58.186 13.69 59.222C11.2233 60.3073 8.806 60.85 6.438 60.85ZM69.9728 84.752C68.0981 84.752 66.1494 84.3327 64.1268 83.494C62.1534 82.7047 60.7474 81.422 59.9088 79.646C59.5634 79.0047 59.3414 78.314 59.2428 77.574C59.1934 76.8833 59.1688 76.1927 59.1688 75.502V74.688C59.1688 74.2933 59.2181 73.9233 59.3168 73.578C59.4154 73.282 59.6621 73.134 60.0568 73.134C60.1554 73.134 60.2048 73.1833 60.2048 73.282C60.2048 73.578 60.1801 73.874 60.1308 74.17C60.0814 74.466 60.0568 74.7867 60.0568 75.132C60.0568 77.4013 60.7721 79.128 62.2028 80.312C63.6828 81.496 65.5081 82.088 67.6788 82.088C70.7868 82.088 73.6481 81.3233 76.2628 79.794C78.8774 78.2647 81.2454 76.168 83.3668 73.504C85.4388 70.9387 87.1161 68.4227 88.3988 65.956C89.7308 63.5387 90.8901 61.072 91.8768 58.556C92.8634 56.04 93.8748 53.45 94.9108 50.786C93.6281 52.71 91.8521 54.486 89.5828 56.114C87.3134 57.6927 84.8468 58.9507 82.1828 59.888C79.5681 60.8747 77.0274 61.368 74.5608 61.368C71.9461 61.368 69.4794 60.8993 67.1608 59.962C64.8914 59.074 63.0661 57.7173 61.6848 55.892C60.3034 54.0667 59.6128 51.7727 59.6128 49.01C59.6128 45.8033 60.2294 42.6707 61.4628 39.612C62.6961 36.5533 64.3488 33.7167 66.4208 31.102C68.4928 28.438 70.8114 26.144 73.3768 24.22C75.6461 22.4933 78.2608 21.0873 81.2208 20.002C84.2301 18.9167 87.2148 18.374 90.1748 18.374C91.4081 18.374 92.5674 18.4727 93.6528 18.67C94.7381 18.818 95.8481 19.1633 96.9828 19.706C97.9695 20.15 98.7588 20.7173 99.3508 21.408C99.9428 22.0493 100.239 22.7893 100.239 23.628C100.239 23.7267 100.239 23.85 100.239 23.998C100.239 24.146 100.214 24.2693 100.165 24.368C99.9674 25.1573 99.4988 26.07 98.7588 27.106C98.0681 28.0927 97.5254 29.1287 97.1308 30.214C97.0814 30.4113 96.8101 30.584 96.3168 30.732C95.8235 30.8307 95.6261 30.7813 95.7248 30.584C96.1195 29.9427 96.4155 29.1533 96.6128 28.216C96.8595 27.2787 96.9828 26.3413 96.9828 25.404C96.9828 24.7133 96.9088 24.072 96.7608 23.48C96.6621 22.8387 96.4648 22.296 96.1688 21.852C95.6754 20.964 94.9108 20.3473 93.8748 20.002C92.8388 19.6567 91.7288 19.484 90.5448 19.484C89.4101 19.484 88.2754 19.6073 87.1408 19.854C86.0061 20.1007 85.0194 20.372 84.1808 20.668C81.3194 21.704 78.5814 23.332 75.9668 25.552C73.6481 27.5747 71.5761 29.918 69.7508 32.582C67.9748 35.246 66.5688 37.984 65.5328 40.796C64.4968 43.608 63.9788 46.2967 63.9788 48.862C63.9788 51.4767 64.4721 53.598 65.4588 55.226C66.4948 56.854 67.8514 58.0627 69.5288 58.852C71.2061 59.592 73.0068 59.962 74.9308 59.962C78.9268 59.962 82.4294 59.0493 85.4388 57.224C88.4975 55.3493 91.0874 52.9073 93.2088 49.898C95.3301 46.8887 96.9581 43.6573 98.0928 40.204H90.4708C89.8788 40.204 89.0648 40.2533 88.0288 40.352C86.9928 40.4013 85.9321 40.574 84.8468 40.87C83.7614 41.1167 82.8488 41.536 82.1088 42.128C81.3688 42.72 80.9988 43.534 80.9988 44.57C80.9988 44.9153 81.0481 45.2853 81.1468 45.68C81.2455 46.0253 81.3194 46.2967 81.3688 46.494L80.7028 46.938C80.3574 46.2967 79.9381 45.6307 79.4448 44.94C79.0008 44.2 78.7541 43.608 78.7048 43.164C78.6554 42.7693 78.6801 42.2513 78.7788 41.61C78.8774 40.9687 79.1981 40.4013 79.7408 39.908C80.3328 39.3653 81.1714 39.02 82.2568 38.872C83.3914 38.6747 84.5508 38.576 85.7348 38.576C86.8201 38.576 87.8561 38.6253 88.8428 38.724C89.8294 38.7733 90.6188 38.798 91.2108 38.798H105.271L104.457 39.686C103.766 39.686 103.001 39.8093 102.163 40.056C101.324 40.2533 100.633 40.6973 100.091 41.388C99.0055 42.7693 98.1668 44.3233 97.5748 46.05C97.0321 47.7767 96.4648 49.602 95.8728 51.526C94.8861 55.0287 93.9241 58.4573 92.9868 61.812C92.0494 65.216 90.7914 68.4227 89.2128 71.432C87.6834 74.4907 85.4388 77.3027 82.4788 79.868C80.9001 81.2 78.9268 82.3347 76.5588 83.272C74.1908 84.2587 71.9954 84.752 69.9728 84.752Z" fill="black"/>
</svg>
