<svg width="293" height="85" viewBox="0 0 293 85" fill="none" xmlns="http://www.w3.org/2000/svg">
<path d="M17.438 60.85C15.9087 60.85 14.6507 60.406 13.664 59.518C12.7267 58.63 12.3567 57.298 12.554 55.522C12.6033 54.8807 12.7513 54.2147 12.998 53.524C13.294 52.784 13.6147 52.0687 13.96 51.378C14.256 50.6873 14.552 50.342 14.848 50.342C15.0947 50.342 15.1193 50.5393 14.922 50.934C14.2807 52.266 13.96 53.45 13.96 54.486C13.96 55.5713 14.33 56.3853 15.07 56.928C15.8593 57.4707 16.8707 57.742 18.104 57.742C20.5213 57.742 23.1853 56.9773 26.096 55.448C29.0067 53.8693 32.016 51.8713 35.124 49.454C38.232 46.9873 41.2167 44.422 44.078 41.758C42.154 41.6593 40.3533 41.5607 38.676 41.462C36.9987 41.3633 35.5187 41.314 34.236 41.314C33.1507 41.314 31.8433 41.4127 30.314 41.61C28.7847 41.8073 27.6007 42.3253 26.762 43.164C26.4167 43.5093 26.096 44.0273 25.8 44.718C25.5533 45.3593 25.43 46.0253 25.43 46.716C25.43 46.9133 25.43 47.1107 25.43 47.308C25.4793 47.456 25.5287 47.6287 25.578 47.826C25.3807 47.7273 25.0107 47.6533 24.468 47.604C23.9747 47.5053 23.654 47.1847 23.506 46.642C23.4567 46.494 23.432 46.2473 23.432 45.902C23.432 45.1127 23.728 44.4713 24.32 43.978C24.912 43.4353 25.6273 42.9667 26.466 42.572C27.3047 42.1773 28.0693 41.832 28.76 41.536C30.388 40.8453 32.0653 40.278 33.792 39.834C35.5187 39.39 37.27 39.168 39.046 39.168C41.0687 39.168 43.5847 39.242 46.594 39.39C48.9127 37.1207 51.0587 34.9747 53.032 32.952C55.0053 30.9293 56.6087 29.252 57.842 27.92C59.5687 26.0947 61.394 24.5407 63.318 23.258C65.2913 21.926 67.2893 20.9887 69.312 20.446H65.242C63.5153 20.446 61.6407 20.52 59.618 20.668C57.5953 20.816 55.696 21.1367 53.92 21.63C52.144 22.1233 50.664 22.8633 49.48 23.85C48.74 24.4913 48.1727 25.2313 47.778 26.07C47.4327 26.8593 47.26 27.5993 47.26 28.29C47.26 29.2273 47.5313 29.8687 48.074 30.214C48.1233 30.214 48.148 30.2387 48.148 30.288C48.148 30.436 47.9753 30.6087 47.63 30.806C47.2847 30.954 47.038 30.9787 46.89 30.88C46.3967 30.5347 45.9527 29.844 45.558 28.808C45.2127 27.7227 45.0893 26.8593 45.188 26.218C45.4347 24.6887 46.1007 23.4553 47.186 22.518C48.3207 21.5313 49.702 20.7667 51.33 20.224C53.0073 19.6813 54.7587 19.3113 56.584 19.114C58.4587 18.9167 60.2347 18.7933 61.912 18.744C63.6387 18.6947 65.094 18.67 66.278 18.67H74.344C74.4427 18.67 74.4673 18.6947 74.418 18.744C75.6513 18.2013 76.934 17.6587 78.266 17.116C79.6473 16.5733 80.8313 16.302 81.818 16.302C82.0647 16.302 82.3113 16.376 82.558 16.524C82.854 16.672 83.002 16.82 83.002 16.968C83.002 17.2147 82.5087 17.338 81.522 17.338C81.0287 17.338 80.5107 17.4367 79.968 17.634C79.4747 17.782 78.8087 18.3 77.97 19.188C77.2793 19.8787 76.416 20.9887 75.38 22.518C74.344 24.0473 73.2093 25.848 71.976 27.92C70.7427 29.9427 69.5093 32.1133 68.276 34.432C67.0427 36.7013 65.8587 38.946 64.724 41.166C63.5893 43.386 62.6027 45.4333 61.764 47.308C61.6653 47.604 61.394 48.2947 60.95 49.38C60.506 50.416 60.0867 51.5753 59.692 52.858C59.2973 54.0913 59.1 55.2013 59.1 56.188C59.1 57.52 59.5687 58.186 60.506 58.186C60.95 58.186 61.394 58.0873 61.838 57.89C62.4793 57.6433 63.1453 57.2733 63.836 56.78C64.5267 56.2867 65.1927 55.7193 65.834 55.078C67.1167 53.8447 68.202 52.6607 69.09 51.526C69.978 50.342 70.5207 49.6267 70.718 49.38C70.866 49.1333 71.0387 49.01 71.236 49.01C71.4333 49.01 71.532 49.1333 71.532 49.38C71.532 49.528 71.458 49.7253 71.31 49.972C70.9647 50.4653 70.3233 51.3287 69.386 52.562C68.4487 53.746 67.3387 54.9547 66.056 56.188C64.8227 57.4213 63.4907 58.3587 62.06 59C61.616 59.1973 61.1473 59.3453 60.654 59.444C60.1607 59.592 59.6673 59.666 59.174 59.666C58.1873 59.666 57.2747 59.3207 56.436 58.63C55.6467 57.9393 55.252 56.8047 55.252 55.226C55.252 53.7953 55.5233 52.266 56.066 50.638C56.658 48.9607 57.2007 47.604 57.694 46.568C58.6807 44.4467 59.84 42.0787 61.172 39.464C62.5533 36.8493 63.9593 34.2347 65.39 31.62C66.87 29.0053 68.2267 26.6373 69.46 24.516C70.6933 22.3947 71.7047 20.816 72.494 19.78C71.7047 19.78 70.644 20.1007 69.312 20.742C67.98 21.334 66.5493 22.148 65.02 23.184C63.54 24.1707 62.1587 25.33 60.876 26.662C59.3467 28.2407 57.5707 30.1647 55.548 32.434C53.5747 34.7033 51.4287 37.0713 49.11 39.538C50.2447 39.5873 51.3793 39.6367 52.514 39.686C53.6487 39.686 54.7833 39.686 55.918 39.686C56.7073 39.686 57.5707 39.612 58.508 39.464C59.4947 39.2667 60.4073 38.9707 61.246 38.576C61.246 38.576 61.098 38.8473 60.802 39.39C60.5553 39.8833 60.1113 40.4013 59.47 40.944C58.878 41.4373 58.064 41.7333 57.028 41.832C56.0907 41.8813 55.1533 41.9307 54.216 41.98C53.2787 41.98 52.3413 41.98 51.404 41.98C50.6147 41.98 49.8253 41.98 49.036 41.98C48.296 41.98 47.556 41.9553 46.816 41.906C44.5467 44.274 42.1787 46.5927 39.712 48.862C37.2453 51.082 34.754 53.1047 32.238 54.93C29.722 56.7553 27.206 58.186 24.69 59.222C22.2233 60.3073 19.806 60.85 17.438 60.85ZM80.9728 84.752C79.0981 84.752 77.1494 84.3327 75.1268 83.494C73.1534 82.7047 71.7474 81.422 70.9088 79.646C70.5634 79.0047 70.3414 78.314 70.2428 77.574C70.1934 76.8833 70.1688 76.1927 70.1688 75.502V74.688C70.1688 74.2933 70.2181 73.9233 70.3168 73.578C70.4154 73.282 70.6621 73.134 71.0568 73.134C71.1554 73.134 71.2048 73.1833 71.2048 73.282C71.2048 73.578 71.1801 73.874 71.1308 74.17C71.0814 74.466 71.0568 74.7867 71.0568 75.132C71.0568 77.4013 71.7721 79.128 73.2028 80.312C74.6828 81.496 76.5081 82.088 78.6788 82.088C81.7868 82.088 84.6481 81.3233 87.2628 79.794C89.8774 78.2647 92.2454 76.168 94.3668 73.504C96.4388 70.9387 98.1161 68.4227 99.3988 65.956C100.731 63.5387 101.89 61.072 102.877 58.556C103.863 56.04 104.875 53.45 105.911 50.786C104.628 52.71 102.852 54.486 100.583 56.114C98.3134 57.6927 95.8468 58.9507 93.1828 59.888C90.5681 60.8747 88.0274 61.368 85.5608 61.368C82.9461 61.368 80.4794 60.8993 78.1608 59.962C75.8914 59.074 74.0661 57.7173 72.6848 55.892C71.3034 54.0667 70.6128 51.7727 70.6128 49.01C70.6128 45.8033 71.2294 42.6707 72.4628 39.612C73.6961 36.5533 75.3488 33.7167 77.4208 31.102C79.4928 28.438 81.8114 26.144 84.3768 24.22C86.6461 22.4933 89.2608 21.0873 92.2208 20.002C95.2301 18.9167 98.2148 18.374 101.175 18.374C102.408 18.374 103.567 18.4727 104.653 18.67C105.738 18.818 106.848 19.1633 107.983 19.706C108.969 20.15 109.759 20.7173 110.351 21.408C110.943 22.0493 111.239 22.7893 111.239 23.628C111.239 23.7267 111.239 23.85 111.239 23.998C111.239 24.146 111.214 24.2693 111.165 24.368C110.967 25.1573 110.499 26.07 109.759 27.106C109.068 28.0927 108.525 29.1287 108.131 30.214C108.081 30.4113 107.81 30.584 107.317 30.732C106.823 30.8307 106.626 30.7813 106.725 30.584C107.119 29.9427 107.415 29.1533 107.613 28.216C107.859 27.2787 107.983 26.3413 107.983 25.404C107.983 24.7133 107.909 24.072 107.761 23.48C107.662 22.8387 107.465 22.296 107.169 21.852C106.675 20.964 105.911 20.3473 104.875 20.002C103.839 19.6567 102.729 19.484 101.545 19.484C100.41 19.484 99.2754 19.6073 98.1408 19.854C97.0061 20.1007 96.0194 20.372 95.1808 20.668C92.3194 21.704 89.5814 23.332 86.9668 25.552C84.6481 27.5747 82.5761 29.918 80.7508 32.582C78.9748 35.246 77.5688 37.984 76.5328 40.796C75.4968 43.608 74.9788 46.2967 74.9788 48.862C74.9788 51.4767 75.4721 53.598 76.4588 55.226C77.4948 56.854 78.8514 58.0627 80.5288 58.852C82.2061 59.592 84.0068 59.962 85.9308 59.962C89.9268 59.962 93.4294 59.0493 96.4388 57.224C99.4975 55.3493 102.087 52.9073 104.209 49.898C106.33 46.8887 107.958 43.6573 109.093 40.204H101.471C100.879 40.204 100.065 40.2533 99.0288 40.352C97.9928 40.4013 96.9321 40.574 95.8468 40.87C94.7614 41.1167 93.8488 41.536 93.1088 42.128C92.3688 42.72 91.9988 43.534 91.9988 44.57C91.9988 44.9153 92.0481 45.2853 92.1468 45.68C92.2455 46.0253 92.3194 46.2967 92.3688 46.494L91.7028 46.938C91.3574 46.2967 90.9381 45.6307 90.4448 44.94C90.0008 44.2 89.7541 43.608 89.7048 43.164C89.6554 42.7693 89.6801 42.2513 89.7788 41.61C89.8774 40.9687 90.1981 40.4013 90.7408 39.908C91.3328 39.3653 92.1714 39.02 93.2568 38.872C94.3914 38.6747 95.5508 38.576 96.7348 38.576C97.8201 38.576 98.8561 38.6253 99.8428 38.724C100.829 38.7733 101.619 38.798 102.211 38.798H116.271L115.457 39.686C114.766 39.686 114.001 39.8093 113.163 40.056C112.324 40.2533 111.633 40.6973 111.091 41.388C110.005 42.7693 109.167 44.3233 108.575 46.05C108.032 47.7767 107.465 49.602 106.873 51.526C105.886 55.0287 104.924 58.4573 103.987 61.812C103.049 65.216 101.791 68.4227 100.213 71.432C98.6834 74.4907 96.4388 77.3027 93.4788 79.868C91.9001 81.2 89.9268 82.3347 87.5588 83.272C85.1908 84.2587 82.9954 84.752 80.9728 84.752Z" fill="#EB9AC0"/>
<path d="M13.438 60.85C11.9087 60.85 10.6507 60.406 9.664 59.518C8.72667 58.63 8.35667 57.298 8.554 55.522C8.60333 54.8807 8.75133 54.2147 8.998 53.524C9.294 52.784 9.61467 52.0687 9.96 51.378C10.256 50.6873 10.552 50.342 10.848 50.342C11.0947 50.342 11.1193 50.5393 10.922 50.934C10.2807 52.266 9.96 53.45 9.96 54.486C9.96 55.5713 10.33 56.3853 11.07 56.928C11.8593 57.4707 12.8707 57.742 14.104 57.742C16.5213 57.742 19.1853 56.9773 22.096 55.448C25.0067 53.8693 28.016 51.8713 31.124 49.454C34.232 46.9873 37.2167 44.422 40.078 41.758C38.154 41.6593 36.3533 41.5607 34.676 41.462C32.9987 41.3633 31.5187 41.314 30.236 41.314C29.1507 41.314 27.8433 41.4127 26.314 41.61C24.7847 41.8073 23.6007 42.3253 22.762 43.164C22.4167 43.5093 22.096 44.0273 21.8 44.718C21.5533 45.3593 21.43 46.0253 21.43 46.716C21.43 46.9133 21.43 47.1107 21.43 47.308C21.4793 47.456 21.5287 47.6287 21.578 47.826C21.3807 47.7273 21.0107 47.6533 20.468 47.604C19.9747 47.5053 19.654 47.1847 19.506 46.642C19.4567 46.494 19.432 46.2473 19.432 45.902C19.432 45.1127 19.728 44.4713 20.32 43.978C20.912 43.4353 21.6273 42.9667 22.466 42.572C23.3047 42.1773 24.0693 41.832 24.76 41.536C26.388 40.8453 28.0653 40.278 29.792 39.834C31.5187 39.39 33.27 39.168 35.046 39.168C37.0687 39.168 39.5847 39.242 42.594 39.39C44.9127 37.1207 47.0587 34.9747 49.032 32.952C51.0053 30.9293 52.6087 29.252 53.842 27.92C55.5687 26.0947 57.394 24.5407 59.318 23.258C61.2913 21.926 63.2893 20.9887 65.312 20.446H61.242C59.5153 20.446 57.6407 20.52 55.618 20.668C53.5953 20.816 51.696 21.1367 49.92 21.63C48.144 22.1233 46.664 22.8633 45.48 23.85C44.74 24.4913 44.1727 25.2313 43.778 26.07C43.4327 26.8593 43.26 27.5993 43.26 28.29C43.26 29.2273 43.5313 29.8687 44.074 30.214C44.1233 30.214 44.148 30.2387 44.148 30.288C44.148 30.436 43.9753 30.6087 43.63 30.806C43.2847 30.954 43.038 30.9787 42.89 30.88C42.3967 30.5347 41.9527 29.844 41.558 28.808C41.2127 27.7227 41.0893 26.8593 41.188 26.218C41.4347 24.6887 42.1007 23.4553 43.186 22.518C44.3207 21.5313 45.702 20.7667 47.33 20.224C49.0073 19.6813 50.7587 19.3113 52.584 19.114C54.4587 18.9167 56.2347 18.7933 57.912 18.744C59.6387 18.6947 61.094 18.67 62.278 18.67H70.344C70.4427 18.67 70.4673 18.6947 70.418 18.744C71.6513 18.2013 72.934 17.6587 74.266 17.116C75.6473 16.5733 76.8313 16.302 77.818 16.302C78.0647 16.302 78.3113 16.376 78.558 16.524C78.854 16.672 79.002 16.82 79.002 16.968C79.002 17.2147 78.5087 17.338 77.522 17.338C77.0287 17.338 76.5107 17.4367 75.968 17.634C75.4747 17.782 74.8087 18.3 73.97 19.188C73.2793 19.8787 72.416 20.9887 71.38 22.518C70.344 24.0473 69.2093 25.848 67.976 27.92C66.7427 29.9427 65.5093 32.1133 64.276 34.432C63.0427 36.7013 61.8587 38.946 60.724 41.166C59.5893 43.386 58.6027 45.4333 57.764 47.308C57.6653 47.604 57.394 48.2947 56.95 49.38C56.506 50.416 56.0867 51.5753 55.692 52.858C55.2973 54.0913 55.1 55.2013 55.1 56.188C55.1 57.52 55.5687 58.186 56.506 58.186C56.95 58.186 57.394 58.0873 57.838 57.89C58.4793 57.6433 59.1453 57.2733 59.836 56.78C60.5267 56.2867 61.1927 55.7193 61.834 55.078C63.1167 53.8447 64.202 52.6607 65.09 51.526C65.978 50.342 66.5207 49.6267 66.718 49.38C66.866 49.1333 67.0387 49.01 67.236 49.01C67.4333 49.01 67.532 49.1333 67.532 49.38C67.532 49.528 67.458 49.7253 67.31 49.972C66.9647 50.4653 66.3233 51.3287 65.386 52.562C64.4487 53.746 63.3387 54.9547 62.056 56.188C60.8227 57.4213 59.4907 58.3587 58.06 59C57.616 59.1973 57.1473 59.3453 56.654 59.444C56.1607 59.592 55.6673 59.666 55.174 59.666C54.1873 59.666 53.2747 59.3207 52.436 58.63C51.6467 57.9393 51.252 56.8047 51.252 55.226C51.252 53.7953 51.5233 52.266 52.066 50.638C52.658 48.9607 53.2007 47.604 53.694 46.568C54.6807 44.4467 55.84 42.0787 57.172 39.464C58.5533 36.8493 59.9593 34.2347 61.39 31.62C62.87 29.0053 64.2267 26.6373 65.46 24.516C66.6933 22.3947 67.7047 20.816 68.494 19.78C67.7047 19.78 66.644 20.1007 65.312 20.742C63.98 21.334 62.5493 22.148 61.02 23.184C59.54 24.1707 58.1587 25.33 56.876 26.662C55.3467 28.2407 53.5707 30.1647 51.548 32.434C49.5747 34.7033 47.4287 37.0713 45.11 39.538C46.2447 39.5873 47.3793 39.6367 48.514 39.686C49.6487 39.686 50.7833 39.686 51.918 39.686C52.7073 39.686 53.5707 39.612 54.508 39.464C55.4947 39.2667 56.4073 38.9707 57.246 38.576C57.246 38.576 57.098 38.8473 56.802 39.39C56.5553 39.8833 56.1113 40.4013 55.47 40.944C54.878 41.4373 54.064 41.7333 53.028 41.832C52.0907 41.8813 51.1533 41.9307 50.216 41.98C49.2787 41.98 48.3413 41.98 47.404 41.98C46.6147 41.98 45.8253 41.98 45.036 41.98C44.296 41.98 43.556 41.9553 42.816 41.906C40.5467 44.274 38.1787 46.5927 35.712 48.862C33.2453 51.082 30.754 53.1047 28.238 54.93C25.722 56.7553 23.206 58.186 20.69 59.222C18.2233 60.3073 15.806 60.85 13.438 60.85ZM76.9728 84.752C75.0981 84.752 73.1494 84.3327 71.1268 83.494C69.1534 82.7047 67.7474 81.422 66.9088 79.646C66.5634 79.0047 66.3414 78.314 66.2428 77.574C66.1934 76.8833 66.1688 76.1927 66.1688 75.502V74.688C66.1688 74.2933 66.2181 73.9233 66.3168 73.578C66.4154 73.282 66.6621 73.134 67.0568 73.134C67.1554 73.134 67.2048 73.1833 67.2048 73.282C67.2048 73.578 67.1801 73.874 67.1308 74.17C67.0814 74.466 67.0568 74.7867 67.0568 75.132C67.0568 77.4013 67.7721 79.128 69.2028 80.312C70.6828 81.496 72.5081 82.088 74.6788 82.088C77.7868 82.088 80.6481 81.3233 83.2628 79.794C85.8774 78.2647 88.2454 76.168 90.3668 73.504C92.4388 70.9387 94.1161 68.4227 95.3988 65.956C96.7308 63.5387 97.8901 61.072 98.8768 58.556C99.8634 56.04 100.875 53.45 101.911 50.786C100.628 52.71 98.8521 54.486 96.5828 56.114C94.3134 57.6927 91.8468 58.9507 89.1828 59.888C86.5681 60.8747 84.0274 61.368 81.5608 61.368C78.9461 61.368 76.4794 60.8993 74.1608 59.962C71.8914 59.074 70.0661 57.7173 68.6848 55.892C67.3034 54.0667 66.6128 51.7727 66.6128 49.01C66.6128 45.8033 67.2294 42.6707 68.4628 39.612C69.6961 36.5533 71.3488 33.7167 73.4208 31.102C75.4928 28.438 77.8114 26.144 80.3768 24.22C82.6461 22.4933 85.2608 21.0873 88.2208 20.002C91.2301 18.9167 94.2148 18.374 97.1748 18.374C98.4081 18.374 99.5674 18.4727 100.653 18.67C101.738 18.818 102.848 19.1633 103.983 19.706C104.969 20.15 105.759 20.7173 106.351 21.408C106.943 22.0493 107.239 22.7893 107.239 23.628C107.239 23.7267 107.239 23.85 107.239 23.998C107.239 24.146 107.214 24.2693 107.165 24.368C106.967 25.1573 106.499 26.07 105.759 27.106C105.068 28.0927 104.525 29.1287 104.131 30.214C104.081 30.4113 103.81 30.584 103.317 30.732C102.823 30.8307 102.626 30.7813 102.725 30.584C103.119 29.9427 103.415 29.1533 103.613 28.216C103.859 27.2787 103.983 26.3413 103.983 25.404C103.983 24.7133 103.909 24.072 103.761 23.48C103.662 22.8387 103.465 22.296 103.169 21.852C102.675 20.964 101.911 20.3473 100.875 20.002C99.8388 19.6567 98.7288 19.484 97.5448 19.484C96.4101 19.484 95.2754 19.6073 94.1408 19.854C93.0061 20.1007 92.0194 20.372 91.1808 20.668C88.3194 21.704 85.5814 23.332 82.9668 25.552C80.6481 27.5747 78.5761 29.918 76.7508 32.582C74.9748 35.246 73.5688 37.984 72.5328 40.796C71.4968 43.608 70.9788 46.2967 70.9788 48.862C70.9788 51.4767 71.4721 53.598 72.4588 55.226C73.4948 56.854 74.8514 58.0627 76.5288 58.852C78.2061 59.592 80.0068 59.962 81.9308 59.962C85.9268 59.962 89.4294 59.0493 92.4388 57.224C95.4975 55.3493 98.0874 52.9073 100.209 49.898C102.33 46.8887 103.958 43.6573 105.093 40.204H97.4708C96.8788 40.204 96.0648 40.2533 95.0288 40.352C93.9928 40.4013 92.9321 40.574 91.8468 40.87C90.7614 41.1167 89.8488 41.536 89.1088 42.128C88.3688 42.72 87.9988 43.534 87.9988 44.57C87.9988 44.9153 88.0481 45.2853 88.1468 45.68C88.2455 46.0253 88.3194 46.2967 88.3688 46.494L87.7028 46.938C87.3574 46.2967 86.9381 45.6307 86.4448 44.94C86.0008 44.2 85.7541 43.608 85.7048 43.164C85.6554 42.7693 85.6801 42.2513 85.7788 41.61C85.8774 40.9687 86.1981 40.4013 86.7408 39.908C87.3328 39.3653 88.1714 39.02 89.2568 38.872C90.3914 38.6747 91.5508 38.576 92.7348 38.576C93.8201 38.576 94.8561 38.6253 95.8428 38.724C96.8294 38.7733 97.6188 38.798 98.2108 38.798H112.271L111.457 39.686C110.766 39.686 110.001 39.8093 109.163 40.056C108.324 40.2533 107.633 40.6973 107.091 41.388C106.005 42.7693 105.167 44.3233 104.575 46.05C104.032 47.7767 103.465 49.602 102.873 51.526C101.886 55.0287 100.924 58.4573 99.9868 61.812C99.0494 65.216 97.7914 68.4227 96.2128 71.432C94.6834 74.4907 92.4388 77.3027 89.4788 79.868C87.9001 81.2 85.9268 82.3347 83.5588 83.272C81.1908 84.2587 78.9954 84.752 76.9728 84.752Z" fill="black"/>
<path d="M135.392 58.566C133.484 58.566 131.648 58.278 129.884 57.702C128.156 57.162 126.752 56.244 125.672 54.948C124.592 53.652 124.052 51.906 124.052 49.71C124.052 47.37 124.502 45.084 125.402 42.852C126.302 40.62 127.508 38.55 129.02 36.642C130.532 34.698 132.224 33.024 134.096 31.62C135.752 30.36 137.66 29.334 139.82 28.542C142.016 27.75 144.194 27.354 146.354 27.354C147.254 27.354 148.1 27.426 148.892 27.57C149.684 27.678 150.494 27.93 151.322 28.326C152.042 28.65 152.618 29.064 153.05 29.568C153.482 30.036 153.698 30.576 153.698 31.188C153.698 31.26 153.698 31.35 153.698 31.458C153.698 31.566 153.68 31.656 153.644 31.728C153.5 32.304 153.158 32.97 152.618 33.726C152.114 34.446 151.718 35.202 151.43 35.994C151.394 36.138 151.196 36.264 150.836 36.372C150.476 36.444 150.332 36.408 150.404 36.264C150.692 35.796 150.908 35.22 151.052 34.536C151.232 33.852 151.322 33.168 151.322 32.484C151.322 31.98 151.268 31.512 151.16 31.08C151.088 30.612 150.944 30.216 150.728 29.892C150.368 29.244 149.81 28.794 149.054 28.542C148.298 28.29 147.488 28.164 146.624 28.164C145.796 28.164 144.968 28.254 144.14 28.434C143.312 28.614 142.592 28.812 141.98 29.028C139.892 29.784 137.894 30.972 135.986 32.592C134.294 34.068 132.782 35.778 131.45 37.722C130.154 39.666 129.128 41.664 128.372 43.716C127.616 45.768 127.238 47.73 127.238 49.602C127.238 51.51 127.652 53.022 128.48 54.138C129.308 55.254 130.388 56.046 131.72 56.514C133.052 56.982 134.492 57.216 136.04 57.216C137.408 57.216 138.758 57.072 140.09 56.784C141.458 56.496 142.7 56.136 143.816 55.704C145.724 54.984 147.434 54.102 148.946 53.058C150.494 52.014 151.934 50.664 153.266 49.008C153.446 48.828 153.572 48.738 153.644 48.738C153.752 48.738 153.806 48.81 153.806 48.954C153.806 49.242 153.662 49.584 153.374 49.98C152.15 51.636 150.764 53.022 149.216 54.138C147.668 55.254 146.012 56.172 144.248 56.892C143.06 57.36 141.674 57.756 140.09 58.08C138.542 58.404 136.976 58.566 135.392 58.566ZM153.177 57.108C152.601 57.108 152.079 57 151.611 56.784C151.179 56.532 150.963 56.01 150.963 55.218C150.963 53.958 151.287 52.698 151.935 51.438C152.583 50.142 153.249 49.008 153.933 48.036C154.545 47.208 155.229 46.434 155.985 45.714C156.777 44.958 157.623 44.31 158.523 43.77C159.099 43.41 159.873 43.032 160.845 42.636C161.853 42.204 162.699 41.988 163.383 41.988C163.959 41.988 164.463 42.15 164.895 42.474C165.327 42.762 165.543 43.302 165.543 44.094C165.543 45.318 165.219 46.578 164.571 47.874C163.959 49.134 163.311 50.25 162.627 51.222C162.303 51.654 161.979 52.068 161.655 52.464C161.331 52.824 160.971 53.202 160.575 53.598C161.907 53.598 163.131 53.22 164.247 52.464C165.363 51.672 166.335 50.718 167.163 49.602L167.271 49.494C167.379 49.494 167.433 49.602 167.433 49.818C167.433 50.07 167.361 50.304 167.217 50.52C166.497 51.528 165.597 52.428 164.517 53.22C163.437 53.976 162.213 54.354 160.845 54.354C160.701 54.354 160.557 54.354 160.413 54.354C160.269 54.354 160.125 54.336 159.981 54.3C157.965 56.172 155.697 57.108 153.177 57.108ZM154.581 56.19C155.085 56.19 155.625 56.01 156.201 55.65C156.813 55.29 157.281 54.948 157.605 54.624C158.217 54.012 158.775 53.364 159.279 52.68C159.783 51.96 160.251 51.24 160.683 50.52C161.187 49.656 161.691 48.63 162.195 47.442C162.699 46.254 162.951 45.138 162.951 44.094C162.951 43.266 162.663 42.852 162.087 42.852C161.619 42.852 161.043 43.05 160.359 43.446C159.711 43.842 159.225 44.202 158.901 44.526C157.677 45.786 156.651 47.154 155.823 48.63C155.355 49.458 154.851 50.43 154.311 51.546C153.771 52.662 153.501 53.688 153.501 54.624C153.501 54.768 153.501 54.912 153.501 55.056C153.537 55.164 153.573 55.29 153.609 55.434C153.753 55.938 154.077 56.19 154.581 56.19ZM169.844 57.864C169.196 57.864 168.512 57.774 167.792 57.594C167.072 57.414 166.424 57.126 165.848 56.73C165.308 56.298 164.948 55.722 164.768 55.002C164.732 54.894 164.714 54.732 164.714 54.516C164.714 54.012 164.822 53.454 165.038 52.842C165.29 52.23 165.596 51.798 165.956 51.546C166.1 51.474 166.208 51.474 166.28 51.546C166.388 51.618 166.406 51.69 166.334 51.762C166.298 51.87 166.244 52.014 166.172 52.194C166.1 52.338 166.046 52.5 166.01 52.68C165.902 53.616 166.1 54.444 166.604 55.164C166.82 55.452 167.072 55.722 167.36 55.974C167.684 56.226 167.99 56.442 168.278 56.622C168.53 56.766 168.836 56.874 169.196 56.946C169.556 56.982 169.916 57 170.276 57C170.852 57 171.41 56.928 171.95 56.784C172.49 56.64 172.886 56.406 173.138 56.082C173.606 55.506 173.84 54.858 173.84 54.138C173.84 53.598 173.696 53.022 173.408 52.41C173.12 51.798 172.67 51.15 172.058 50.466C171.662 50.034 171.284 49.566 170.924 49.062C170.564 48.558 170.33 48.018 170.222 47.442C170.186 47.334 170.15 47.226 170.114 47.118C170.114 47.01 170.114 46.902 170.114 46.794C169.646 47.478 169.16 48.126 168.656 48.738C168.188 49.314 167.774 49.818 167.414 50.25C167.27 50.466 167.144 50.574 167.036 50.574C166.964 50.574 166.928 50.502 166.928 50.358C166.928 50.034 167.072 49.692 167.36 49.332C167.648 49.008 167.972 48.612 168.332 48.144C168.692 47.64 168.98 47.244 169.196 46.956C169.808 46.056 170.258 45.354 170.546 44.85C170.87 44.31 171.212 43.824 171.572 43.392C171.968 42.924 172.454 42.546 173.03 42.258C173.642 41.97 174.272 41.826 174.92 41.826C175.676 41.826 176.36 41.952 176.972 42.204C177.62 42.42 177.962 42.996 177.998 43.932C177.998 44.364 177.908 44.814 177.728 45.282C177.584 45.714 177.422 46.128 177.242 46.524C177.134 46.74 176.972 46.902 176.756 47.01C176.576 47.082 176.486 47.046 176.486 46.902C176.486 46.758 176.504 46.596 176.54 46.416C176.576 46.236 176.594 46.074 176.594 45.93C176.594 45.318 176.486 44.778 176.27 44.31C176.09 43.806 175.82 43.446 175.46 43.23C175.1 42.978 174.722 42.852 174.326 42.852C173.75 42.852 173.192 43.086 172.652 43.554C172.112 43.986 171.842 44.562 171.842 45.282C171.842 45.354 171.842 45.444 171.842 45.552C171.842 45.66 171.86 45.75 171.896 45.822C172.04 46.398 172.472 47.046 173.192 47.766C173.912 48.486 174.47 49.116 174.866 49.656C175.55 50.592 175.892 51.546 175.892 52.518C175.892 53.49 175.604 54.39 175.028 55.218C174.488 56.01 173.75 56.64 172.814 57.108C171.914 57.612 170.924 57.864 169.844 57.864ZM179.478 57.81C179.334 57.81 179.334 57.648 179.478 57.324C179.658 57 179.82 56.64 179.964 56.244C180.144 55.848 180.324 55.416 180.504 54.948C180.864 54.084 181.26 53.112 181.692 52.032C182.124 50.952 182.538 49.908 182.934 48.9C183.33 47.856 183.672 46.974 183.96 46.254C184.284 45.498 184.5 45.012 184.608 44.796C184.104 45.336 183.492 46.02 182.772 46.848C182.088 47.64 181.44 48.414 180.828 49.17C180.216 49.926 179.748 50.52 179.424 50.952C179.316 51.096 179.226 51.168 179.154 51.168C179.082 51.168 179.046 51.078 179.046 50.898C179.046 50.61 179.136 50.34 179.316 50.088C180 49.224 180.756 48.252 181.584 47.172C182.448 46.092 183.222 45.102 183.906 44.202C184.59 43.266 185.022 42.654 185.202 42.366C185.598 42.294 186.174 42.186 186.93 42.042C187.722 41.898 188.262 41.7 188.55 41.448C188.658 41.34 188.766 41.286 188.874 41.286C188.946 41.286 188.982 41.358 188.982 41.502C189.018 41.61 188.982 41.736 188.874 41.88C188.658 42.132 188.28 42.726 187.74 43.662C187.236 44.562 186.678 45.57 186.066 46.686C185.49 47.802 184.95 48.81 184.446 49.71C185.022 49.026 185.58 48.378 186.12 47.766C186.696 47.154 187.092 46.722 187.308 46.47C187.74 46.038 188.334 45.498 189.09 44.85C189.846 44.202 190.638 43.608 191.466 43.068C192.294 42.528 193.014 42.222 193.626 42.15C193.77 42.114 193.896 42.096 194.004 42.096C194.112 42.096 194.22 42.096 194.328 42.096C195.012 42.096 195.354 42.348 195.354 42.852C195.354 43.068 195.3 43.32 195.192 43.608C195.084 43.896 194.94 44.184 194.76 44.472C194.544 44.904 194.184 45.588 193.68 46.524C193.176 47.424 192.726 48.252 192.33 49.008L194.868 46.47C195.3 46.038 195.894 45.498 196.65 44.85C197.406 44.202 198.198 43.608 199.026 43.068C199.854 42.528 200.574 42.222 201.186 42.15C201.33 42.114 201.456 42.096 201.564 42.096C201.708 42.096 201.816 42.096 201.888 42.096C202.68 42.096 203.076 42.384 203.076 42.96C203.076 43.392 202.842 43.968 202.374 44.688C202.122 45.084 201.726 45.75 201.186 46.686C200.646 47.622 200.088 48.648 199.512 49.764C198.972 50.844 198.504 51.852 198.108 52.788C197.712 53.724 197.514 54.408 197.514 54.84C197.514 55.344 197.766 55.596 198.27 55.596C198.738 55.596 199.332 55.326 200.052 54.786C200.808 54.21 201.564 53.526 202.32 52.734C203.112 51.942 203.796 51.186 204.372 50.466C204.624 50.178 204.858 49.89 205.074 49.602C205.326 49.278 205.47 49.098 205.506 49.062C205.578 49.134 205.614 49.26 205.614 49.44C205.614 49.692 205.524 49.944 205.344 50.196C205.2 50.412 205.056 50.61 204.912 50.79C204.228 51.69 203.436 52.626 202.536 53.598C201.672 54.57 200.718 55.398 199.674 56.082C198.63 56.73 197.514 57.108 196.326 57.216C195.966 57.252 195.606 57.18 195.246 57C194.886 56.82 194.706 56.532 194.706 56.136C194.706 55.632 194.832 55.038 195.084 54.354C195.372 53.67 195.678 52.986 196.002 52.302C196.362 51.618 196.632 51.06 196.812 50.628C197.46 49.368 198.054 48.18 198.594 47.064C199.134 45.948 199.512 45.156 199.728 44.688C199.836 44.472 199.89 44.292 199.89 44.148C199.89 43.896 199.692 43.878 199.296 44.094C198.9 44.31 198.414 44.634 197.838 45.066C197.298 45.498 196.794 45.93 196.326 46.362C195.858 46.758 195.552 47.028 195.408 47.172C194.796 47.784 194.058 48.612 193.194 49.656C192.366 50.7 191.592 51.798 190.872 52.95C190.152 54.066 189.648 55.11 189.36 56.082C189 56.406 188.658 56.568 188.334 56.568C188.082 56.568 187.866 56.478 187.686 56.298C187.542 56.118 187.47 55.902 187.47 55.65C187.47 54.93 187.686 54.084 188.118 53.112C188.586 52.104 188.964 51.276 189.252 50.628C189.9 49.368 190.494 48.18 191.034 47.064C191.574 45.948 191.952 45.156 192.168 44.688C192.276 44.472 192.33 44.292 192.33 44.148C192.33 43.896 192.132 43.878 191.736 44.094C191.34 44.31 190.854 44.634 190.278 45.066C189.738 45.498 189.234 45.93 188.766 46.362C188.298 46.758 187.992 47.028 187.848 47.172C186.984 48.072 186.174 48.99 185.418 49.926C184.698 50.862 184.086 51.87 183.582 52.95C183.294 53.598 182.988 54.318 182.664 55.11C182.34 55.902 182.07 56.568 181.854 57.108C181.386 57.144 180.918 57.27 180.45 57.486C179.982 57.702 179.658 57.81 179.478 57.81ZM207.598 57.432C206.122 57.432 205.096 57.144 204.52 56.568C203.944 55.992 203.656 55.29 203.656 54.462C203.656 53.418 203.926 52.302 204.466 51.114C205.042 49.926 205.582 48.918 206.086 48.09C206.662 47.226 207.436 46.326 208.408 45.39C209.38 44.454 210.442 43.662 211.594 43.014C212.746 42.366 213.862 42.042 214.942 42.042C215.878 42.042 216.526 42.276 216.886 42.744C217.246 43.176 217.426 43.698 217.426 44.31C217.426 45.426 217.084 46.344 216.4 47.064C215.752 47.784 214.942 48.378 213.97 48.846C212.998 49.278 212.062 49.638 211.162 49.926C210.622 50.07 209.992 50.214 209.272 50.358C208.552 50.502 207.868 50.574 207.22 50.574C206.968 51.222 206.77 51.852 206.626 52.464C206.482 53.076 206.41 53.634 206.41 54.138C206.41 54.75 206.554 55.254 206.842 55.65C207.166 56.046 207.688 56.244 208.408 56.244C208.696 56.244 209.038 56.208 209.434 56.136C209.83 56.064 210.262 55.956 210.73 55.812C211.81 55.452 212.872 54.876 213.916 54.084C214.96 53.292 215.914 52.446 216.778 51.546C217.678 50.61 218.362 49.836 218.83 49.224C218.938 49.332 218.992 49.458 218.992 49.602C218.992 49.782 218.866 50.07 218.614 50.466C217.894 51.474 216.958 52.518 215.806 53.598C214.654 54.678 213.376 55.596 211.972 56.352C210.568 57.072 209.11 57.432 207.598 57.432ZM207.652 49.494C208.12 49.53 208.642 49.53 209.218 49.494C209.83 49.422 210.424 49.296 211 49.116C212.476 48.684 213.538 48 214.186 47.064C214.87 46.092 215.212 45.228 215.212 44.472C215.212 44.04 215.122 43.68 214.942 43.392C214.762 43.104 214.474 42.96 214.078 42.96C213.034 42.96 212.098 43.356 211.27 44.148C210.442 44.904 209.722 45.786 209.11 46.794C208.498 47.802 208.012 48.702 207.652 49.494ZM212.242 39.18C212.206 39.18 212.17 39.126 212.134 39.018C212.098 38.874 212.098 38.766 212.134 38.694C212.854 38.118 213.664 37.47 214.564 36.75C215.5 35.994 216.454 35.202 217.426 34.374C217.93 33.906 218.308 33.6 218.56 33.456C218.812 33.312 219.01 33.24 219.154 33.24C219.262 33.24 219.316 33.402 219.316 33.726C219.316 33.942 219.298 34.176 219.262 34.428C219.226 34.68 219.172 34.842 219.1 34.914C218.812 35.238 218.254 35.67 217.426 36.21C216.634 36.714 215.752 37.236 214.78 37.776C213.808 38.316 212.962 38.784 212.242 39.18ZM220.127 57.162C219.767 57.162 219.461 57.09 219.209 56.946C218.957 56.802 218.831 56.532 218.831 56.136C218.831 55.632 218.957 55.038 219.209 54.354C219.497 53.67 219.803 52.986 220.127 52.302C220.451 51.618 220.721 51.06 220.937 50.628C221.117 50.304 221.351 49.8 221.639 49.116C221.963 48.396 222.287 47.658 222.611 46.902C222.971 46.11 223.259 45.444 223.475 44.904C223.727 44.364 223.853 44.094 223.853 44.094C223.529 44.454 223.097 44.958 222.557 45.606C222.053 46.254 221.495 46.938 220.883 47.658C220.307 48.342 219.767 48.99 219.263 49.602C218.795 50.214 218.453 50.664 218.237 50.952C218.129 51.096 218.039 51.168 217.967 51.168C217.895 51.168 217.859 51.078 217.859 50.898C217.859 50.61 217.949 50.34 218.129 50.088C218.561 49.548 219.083 48.9 219.695 48.144C220.307 47.352 220.919 46.56 221.531 45.768C222.179 44.976 222.737 44.274 223.205 43.662C222.917 43.662 222.539 43.68 222.071 43.716C221.639 43.752 221.243 43.806 220.883 43.878C220.523 43.914 220.325 43.932 220.289 43.932C220.109 43.932 220.127 43.788 220.343 43.5C220.559 43.212 220.847 42.924 221.207 42.636C221.567 42.348 221.837 42.204 222.017 42.204C222.053 42.204 222.341 42.222 222.881 42.258C223.421 42.258 223.817 42.258 224.069 42.258C224.789 41.286 225.491 40.17 226.175 38.91C226.895 37.65 227.597 36.264 228.281 34.752C228.569 34.716 229.055 34.518 229.739 34.158C230.459 33.762 231.017 33.366 231.413 32.97C231.593 32.79 231.737 32.7 231.845 32.7C232.061 32.7 232.061 32.844 231.845 33.132C231.593 33.42 231.161 34.032 230.549 34.968C229.937 35.868 229.253 36.966 228.497 38.262C227.741 39.522 227.021 40.854 226.337 42.258H230.711C231.107 42.258 231.305 42.312 231.305 42.42C231.305 42.564 231.035 42.708 230.495 42.852C229.883 43.032 229.235 43.14 228.551 43.176C227.903 43.212 227.291 43.284 226.715 43.392C226.175 43.5 225.779 43.734 225.527 44.094C225.311 44.346 225.005 44.886 224.609 45.714C224.213 46.542 223.781 47.496 223.313 48.576C222.881 49.62 222.503 50.682 222.179 51.762C221.855 52.806 221.657 53.688 221.585 54.408V54.624C221.585 54.912 221.675 55.146 221.855 55.326C222.035 55.506 222.215 55.596 222.395 55.596C222.863 55.596 223.457 55.308 224.177 54.732C224.933 54.156 225.707 53.472 226.499 52.68C227.291 51.852 227.975 51.096 228.551 50.412C228.803 50.124 229.019 49.854 229.199 49.602C229.415 49.35 229.541 49.188 229.577 49.116C229.649 49.26 229.685 49.368 229.685 49.44C229.685 49.656 229.613 49.89 229.469 50.142C229.361 50.394 229.235 50.61 229.091 50.79C228.407 51.69 227.579 52.644 226.607 53.652C225.635 54.624 224.591 55.452 223.475 56.136C222.395 56.82 221.279 57.162 220.127 57.162ZM239.904 36.372C239.4 36.372 239.04 36.21 238.824 35.886C238.68 35.706 238.608 35.472 238.608 35.184C238.608 34.608 238.878 34.14 239.418 33.78C239.814 33.564 240.174 33.456 240.498 33.456C241.038 33.456 241.416 33.618 241.632 33.942C241.776 34.122 241.848 34.356 241.848 34.644C241.848 35.22 241.56 35.688 240.984 36.048C240.66 36.264 240.3 36.372 239.904 36.372ZM230.508 57.162C230.148 57.162 229.842 57.09 229.59 56.946C229.374 56.802 229.266 56.532 229.266 56.136C229.266 55.632 229.392 55.038 229.644 54.354C229.932 53.67 230.238 52.986 230.562 52.302C230.922 51.618 231.192 51.06 231.372 50.628C231.624 50.124 231.93 49.476 232.29 48.684C232.686 47.856 233.046 47.082 233.37 46.362C233.73 45.606 233.982 45.084 234.126 44.796C233.622 45.336 233.01 46.02 232.29 46.848C231.606 47.64 230.958 48.414 230.346 49.17C229.734 49.926 229.266 50.52 228.942 50.952C228.834 51.096 228.744 51.168 228.672 51.168C228.6 51.168 228.564 51.078 228.564 50.898C228.564 50.61 228.654 50.34 228.834 50.088C229.518 49.224 230.274 48.252 231.102 47.172C231.966 46.092 232.74 45.102 233.424 44.202C234.108 43.266 234.54 42.654 234.72 42.366C235.116 42.294 235.692 42.186 236.448 42.042C237.24 41.898 237.78 41.7 238.068 41.448C238.176 41.34 238.284 41.286 238.392 41.286C238.464 41.286 238.5 41.358 238.5 41.502C238.536 41.61 238.5 41.736 238.392 41.88C238.176 42.132 237.798 42.744 237.258 43.716C236.718 44.688 236.142 45.768 235.53 46.956C234.954 48.108 234.414 49.152 233.91 50.088C233.406 51.06 232.974 51.996 232.614 52.896C232.254 53.796 232.074 54.444 232.074 54.84C232.074 55.344 232.326 55.596 232.83 55.596C233.298 55.596 233.892 55.308 234.612 54.732C235.368 54.156 236.124 53.472 236.88 52.68C237.636 51.852 238.302 51.096 238.878 50.412C239.058 50.196 239.274 49.944 239.526 49.656C239.814 49.332 239.994 49.134 240.066 49.062C240.138 49.134 240.174 49.26 240.174 49.44C240.138 49.692 240.048 49.944 239.904 50.196C239.76 50.412 239.616 50.61 239.472 50.79C238.716 51.726 237.888 52.698 236.988 53.706C236.088 54.678 235.098 55.506 234.018 56.19C232.938 56.838 231.768 57.162 230.508 57.162ZM241.329 57.432C239.997 57.432 239.061 57.18 238.521 56.676C237.981 56.172 237.711 55.524 237.711 54.732C237.711 53.688 238.053 52.536 238.737 51.276C239.421 49.98 240.069 48.9 240.681 48.036C241.293 47.208 241.977 46.434 242.733 45.714C243.525 44.958 244.371 44.31 245.271 43.77C245.847 43.41 246.621 43.032 247.593 42.636C248.601 42.204 249.447 41.988 250.131 41.988C250.959 41.988 251.535 42.186 251.859 42.582C252.183 42.942 252.345 43.392 252.345 43.932C252.345 44.364 252.273 44.814 252.129 45.282C251.985 45.714 251.823 46.128 251.643 46.524C251.535 46.74 251.373 46.902 251.157 47.01C250.941 47.082 250.833 47.046 250.833 46.902C250.833 46.722 250.851 46.56 250.887 46.416C250.923 46.272 250.941 46.11 250.941 45.93C250.941 45.246 250.779 44.58 250.455 43.932C250.167 43.248 249.717 42.906 249.105 42.906C248.457 42.906 247.755 43.14 246.999 43.608C246.243 44.04 245.721 44.418 245.433 44.742C244.497 45.714 243.579 46.92 242.679 48.36C241.815 49.8 241.185 51.168 240.789 52.464C240.537 53.22 240.411 53.868 240.411 54.408C240.411 55.02 240.573 55.452 240.897 55.704C241.221 55.956 241.617 56.082 242.085 56.082C242.445 56.082 242.823 56.028 243.219 55.92C243.651 55.812 244.101 55.686 244.569 55.542C245.649 55.182 246.729 54.624 247.809 53.868C248.925 53.076 249.933 52.248 250.833 51.384C251.733 50.484 252.417 49.71 252.885 49.062C252.957 49.134 252.993 49.242 252.993 49.386C252.993 49.566 252.921 49.782 252.777 50.034C252.633 50.25 252.525 50.43 252.453 50.574C251.697 51.582 250.707 52.626 249.483 53.706C248.259 54.75 246.927 55.632 245.487 56.352C244.083 57.072 242.697 57.432 241.329 57.432ZM252.792 57.108C252.216 57.108 251.694 57 251.226 56.784C250.794 56.532 250.578 56.01 250.578 55.218C250.578 53.958 250.902 52.698 251.55 51.438C252.198 50.142 252.864 49.008 253.548 48.036C254.16 47.208 254.844 46.434 255.6 45.714C256.392 44.958 257.238 44.31 258.138 43.77C258.714 43.41 259.488 43.032 260.46 42.636C261.468 42.204 262.314 41.988 262.998 41.988C263.574 41.988 264.078 42.15 264.51 42.474C264.942 42.762 265.158 43.302 265.158 44.094C265.158 45.318 264.834 46.578 264.186 47.874C263.574 49.134 262.926 50.25 262.242 51.222C261.918 51.654 261.594 52.068 261.27 52.464C260.946 52.824 260.586 53.202 260.19 53.598C261.522 53.598 262.746 53.22 263.862 52.464C264.978 51.672 265.95 50.718 266.778 49.602L266.886 49.494C266.994 49.494 267.048 49.602 267.048 49.818C267.048 50.07 266.976 50.304 266.832 50.52C266.112 51.528 265.212 52.428 264.132 53.22C263.052 53.976 261.828 54.354 260.46 54.354C260.316 54.354 260.172 54.354 260.028 54.354C259.884 54.354 259.74 54.336 259.596 54.3C257.58 56.172 255.312 57.108 252.792 57.108ZM254.196 56.19C254.7 56.19 255.24 56.01 255.816 55.65C256.428 55.29 256.896 54.948 257.22 54.624C257.832 54.012 258.39 53.364 258.894 52.68C259.398 51.96 259.866 51.24 260.298 50.52C260.802 49.656 261.306 48.63 261.81 47.442C262.314 46.254 262.566 45.138 262.566 44.094C262.566 43.266 262.278 42.852 261.702 42.852C261.234 42.852 260.658 43.05 259.974 43.446C259.326 43.842 258.84 44.202 258.516 44.526C257.292 45.786 256.266 47.154 255.438 48.63C254.97 49.458 254.466 50.43 253.926 51.546C253.386 52.662 253.116 53.688 253.116 54.624C253.116 54.768 253.116 54.912 253.116 55.056C253.152 55.164 253.188 55.29 253.224 55.434C253.368 55.938 253.692 56.19 254.196 56.19ZM269.459 57.864C268.811 57.864 268.127 57.774 267.407 57.594C266.687 57.414 266.039 57.126 265.463 56.73C264.923 56.298 264.563 55.722 264.383 55.002C264.347 54.894 264.329 54.732 264.329 54.516C264.329 54.012 264.437 53.454 264.653 52.842C264.905 52.23 265.211 51.798 265.571 51.546C265.715 51.474 265.823 51.474 265.895 51.546C266.003 51.618 266.021 51.69 265.949 51.762C265.913 51.87 265.859 52.014 265.787 52.194C265.715 52.338 265.661 52.5 265.625 52.68C265.517 53.616 265.715 54.444 266.219 55.164C266.435 55.452 266.687 55.722 266.975 55.974C267.299 56.226 267.605 56.442 267.893 56.622C268.145 56.766 268.451 56.874 268.811 56.946C269.171 56.982 269.531 57 269.891 57C270.467 57 271.025 56.928 271.565 56.784C272.105 56.64 272.501 56.406 272.753 56.082C273.221 55.506 273.455 54.858 273.455 54.138C273.455 53.598 273.311 53.022 273.023 52.41C272.735 51.798 272.285 51.15 271.673 50.466C271.277 50.034 270.899 49.566 270.539 49.062C270.179 48.558 269.945 48.018 269.837 47.442C269.801 47.334 269.765 47.226 269.729 47.118C269.729 47.01 269.729 46.902 269.729 46.794C269.261 47.478 268.775 48.126 268.271 48.738C267.803 49.314 267.389 49.818 267.029 50.25C266.885 50.466 266.759 50.574 266.651 50.574C266.579 50.574 266.543 50.502 266.543 50.358C266.543 50.034 266.687 49.692 266.975 49.332C267.263 49.008 267.587 48.612 267.947 48.144C268.307 47.64 268.595 47.244 268.811 46.956C269.423 46.056 269.873 45.354 270.161 44.85C270.485 44.31 270.827 43.824 271.187 43.392C271.583 42.924 272.069 42.546 272.645 42.258C273.257 41.97 273.887 41.826 274.535 41.826C275.291 41.826 275.975 41.952 276.587 42.204C277.235 42.42 277.577 42.996 277.613 43.932C277.613 44.364 277.523 44.814 277.343 45.282C277.199 45.714 277.037 46.128 276.857 46.524C276.749 46.74 276.587 46.902 276.371 47.01C276.191 47.082 276.101 47.046 276.101 46.902C276.101 46.758 276.119 46.596 276.155 46.416C276.191 46.236 276.209 46.074 276.209 45.93C276.209 45.318 276.101 44.778 275.885 44.31C275.705 43.806 275.435 43.446 275.075 43.23C274.715 42.978 274.337 42.852 273.941 42.852C273.365 42.852 272.807 43.086 272.267 43.554C271.727 43.986 271.457 44.562 271.457 45.282C271.457 45.354 271.457 45.444 271.457 45.552C271.457 45.66 271.475 45.75 271.511 45.822C271.655 46.398 272.087 47.046 272.807 47.766C273.527 48.486 274.085 49.116 274.481 49.656C275.165 50.592 275.507 51.546 275.507 52.518C275.507 53.49 275.219 54.39 274.643 55.218C274.103 56.01 273.365 56.64 272.429 57.108C271.529 57.612 270.539 57.864 269.459 57.864Z" fill="#EB9AC0"/>
<path d="M132.392 58.566C130.484 58.566 128.648 58.278 126.884 57.702C125.156 57.162 123.752 56.244 122.672 54.948C121.592 53.652 121.052 51.906 121.052 49.71C121.052 47.37 121.502 45.084 122.402 42.852C123.302 40.62 124.508 38.55 126.02 36.642C127.532 34.698 129.224 33.024 131.096 31.62C132.752 30.36 134.66 29.334 136.82 28.542C139.016 27.75 141.194 27.354 143.354 27.354C144.254 27.354 145.1 27.426 145.892 27.57C146.684 27.678 147.494 27.93 148.322 28.326C149.042 28.65 149.618 29.064 150.05 29.568C150.482 30.036 150.698 30.576 150.698 31.188C150.698 31.26 150.698 31.35 150.698 31.458C150.698 31.566 150.68 31.656 150.644 31.728C150.5 32.304 150.158 32.97 149.618 33.726C149.114 34.446 148.718 35.202 148.43 35.994C148.394 36.138 148.196 36.264 147.836 36.372C147.476 36.444 147.332 36.408 147.404 36.264C147.692 35.796 147.908 35.22 148.052 34.536C148.232 33.852 148.322 33.168 148.322 32.484C148.322 31.98 148.268 31.512 148.16 31.08C148.088 30.612 147.944 30.216 147.728 29.892C147.368 29.244 146.81 28.794 146.054 28.542C145.298 28.29 144.488 28.164 143.624 28.164C142.796 28.164 141.968 28.254 141.14 28.434C140.312 28.614 139.592 28.812 138.98 29.028C136.892 29.784 134.894 30.972 132.986 32.592C131.294 34.068 129.782 35.778 128.45 37.722C127.154 39.666 126.128 41.664 125.372 43.716C124.616 45.768 124.238 47.73 124.238 49.602C124.238 51.51 124.652 53.022 125.48 54.138C126.308 55.254 127.388 56.046 128.72 56.514C130.052 56.982 131.492 57.216 133.04 57.216C134.408 57.216 135.758 57.072 137.09 56.784C138.458 56.496 139.7 56.136 140.816 55.704C142.724 54.984 144.434 54.102 145.946 53.058C147.494 52.014 148.934 50.664 150.266 49.008C150.446 48.828 150.572 48.738 150.644 48.738C150.752 48.738 150.806 48.81 150.806 48.954C150.806 49.242 150.662 49.584 150.374 49.98C149.15 51.636 147.764 53.022 146.216 54.138C144.668 55.254 143.012 56.172 141.248 56.892C140.06 57.36 138.674 57.756 137.09 58.08C135.542 58.404 133.976 58.566 132.392 58.566ZM150.177 57.108C149.601 57.108 149.079 57 148.611 56.784C148.179 56.532 147.963 56.01 147.963 55.218C147.963 53.958 148.287 52.698 148.935 51.438C149.583 50.142 150.249 49.008 150.933 48.036C151.545 47.208 152.229 46.434 152.985 45.714C153.777 44.958 154.623 44.31 155.523 43.77C156.099 43.41 156.873 43.032 157.845 42.636C158.853 42.204 159.699 41.988 160.383 41.988C160.959 41.988 161.463 42.15 161.895 42.474C162.327 42.762 162.543 43.302 162.543 44.094C162.543 45.318 162.219 46.578 161.571 47.874C160.959 49.134 160.311 50.25 159.627 51.222C159.303 51.654 158.979 52.068 158.655 52.464C158.331 52.824 157.971 53.202 157.575 53.598C158.907 53.598 160.131 53.22 161.247 52.464C162.363 51.672 163.335 50.718 164.163 49.602L164.271 49.494C164.379 49.494 164.433 49.602 164.433 49.818C164.433 50.07 164.361 50.304 164.217 50.52C163.497 51.528 162.597 52.428 161.517 53.22C160.437 53.976 159.213 54.354 157.845 54.354C157.701 54.354 157.557 54.354 157.413 54.354C157.269 54.354 157.125 54.336 156.981 54.3C154.965 56.172 152.697 57.108 150.177 57.108ZM151.581 56.19C152.085 56.19 152.625 56.01 153.201 55.65C153.813 55.29 154.281 54.948 154.605 54.624C155.217 54.012 155.775 53.364 156.279 52.68C156.783 51.96 157.251 51.24 157.683 50.52C158.187 49.656 158.691 48.63 159.195 47.442C159.699 46.254 159.951 45.138 159.951 44.094C159.951 43.266 159.663 42.852 159.087 42.852C158.619 42.852 158.043 43.05 157.359 43.446C156.711 43.842 156.225 44.202 155.901 44.526C154.677 45.786 153.651 47.154 152.823 48.63C152.355 49.458 151.851 50.43 151.311 51.546C150.771 52.662 150.501 53.688 150.501 54.624C150.501 54.768 150.501 54.912 150.501 55.056C150.537 55.164 150.573 55.29 150.609 55.434C150.753 55.938 151.077 56.19 151.581 56.19ZM166.844 57.864C166.196 57.864 165.512 57.774 164.792 57.594C164.072 57.414 163.424 57.126 162.848 56.73C162.308 56.298 161.948 55.722 161.768 55.002C161.732 54.894 161.714 54.732 161.714 54.516C161.714 54.012 161.822 53.454 162.038 52.842C162.29 52.23 162.596 51.798 162.956 51.546C163.1 51.474 163.208 51.474 163.28 51.546C163.388 51.618 163.406 51.69 163.334 51.762C163.298 51.87 163.244 52.014 163.172 52.194C163.1 52.338 163.046 52.5 163.01 52.68C162.902 53.616 163.1 54.444 163.604 55.164C163.82 55.452 164.072 55.722 164.36 55.974C164.684 56.226 164.99 56.442 165.278 56.622C165.53 56.766 165.836 56.874 166.196 56.946C166.556 56.982 166.916 57 167.276 57C167.852 57 168.41 56.928 168.95 56.784C169.49 56.64 169.886 56.406 170.138 56.082C170.606 55.506 170.84 54.858 170.84 54.138C170.84 53.598 170.696 53.022 170.408 52.41C170.12 51.798 169.67 51.15 169.058 50.466C168.662 50.034 168.284 49.566 167.924 49.062C167.564 48.558 167.33 48.018 167.222 47.442C167.186 47.334 167.15 47.226 167.114 47.118C167.114 47.01 167.114 46.902 167.114 46.794C166.646 47.478 166.16 48.126 165.656 48.738C165.188 49.314 164.774 49.818 164.414 50.25C164.27 50.466 164.144 50.574 164.036 50.574C163.964 50.574 163.928 50.502 163.928 50.358C163.928 50.034 164.072 49.692 164.36 49.332C164.648 49.008 164.972 48.612 165.332 48.144C165.692 47.64 165.98 47.244 166.196 46.956C166.808 46.056 167.258 45.354 167.546 44.85C167.87 44.31 168.212 43.824 168.572 43.392C168.968 42.924 169.454 42.546 170.03 42.258C170.642 41.97 171.272 41.826 171.92 41.826C172.676 41.826 173.36 41.952 173.972 42.204C174.62 42.42 174.962 42.996 174.998 43.932C174.998 44.364 174.908 44.814 174.728 45.282C174.584 45.714 174.422 46.128 174.242 46.524C174.134 46.74 173.972 46.902 173.756 47.01C173.576 47.082 173.486 47.046 173.486 46.902C173.486 46.758 173.504 46.596 173.54 46.416C173.576 46.236 173.594 46.074 173.594 45.93C173.594 45.318 173.486 44.778 173.27 44.31C173.09 43.806 172.82 43.446 172.46 43.23C172.1 42.978 171.722 42.852 171.326 42.852C170.75 42.852 170.192 43.086 169.652 43.554C169.112 43.986 168.842 44.562 168.842 45.282C168.842 45.354 168.842 45.444 168.842 45.552C168.842 45.66 168.86 45.75 168.896 45.822C169.04 46.398 169.472 47.046 170.192 47.766C170.912 48.486 171.47 49.116 171.866 49.656C172.55 50.592 172.892 51.546 172.892 52.518C172.892 53.49 172.604 54.39 172.028 55.218C171.488 56.01 170.75 56.64 169.814 57.108C168.914 57.612 167.924 57.864 166.844 57.864ZM176.478 57.81C176.334 57.81 176.334 57.648 176.478 57.324C176.658 57 176.82 56.64 176.964 56.244C177.144 55.848 177.324 55.416 177.504 54.948C177.864 54.084 178.26 53.112 178.692 52.032C179.124 50.952 179.538 49.908 179.934 48.9C180.33 47.856 180.672 46.974 180.96 46.254C181.284 45.498 181.5 45.012 181.608 44.796C181.104 45.336 180.492 46.02 179.772 46.848C179.088 47.64 178.44 48.414 177.828 49.17C177.216 49.926 176.748 50.52 176.424 50.952C176.316 51.096 176.226 51.168 176.154 51.168C176.082 51.168 176.046 51.078 176.046 50.898C176.046 50.61 176.136 50.34 176.316 50.088C177 49.224 177.756 48.252 178.584 47.172C179.448 46.092 180.222 45.102 180.906 44.202C181.59 43.266 182.022 42.654 182.202 42.366C182.598 42.294 183.174 42.186 183.93 42.042C184.722 41.898 185.262 41.7 185.55 41.448C185.658 41.34 185.766 41.286 185.874 41.286C185.946 41.286 185.982 41.358 185.982 41.502C186.018 41.61 185.982 41.736 185.874 41.88C185.658 42.132 185.28 42.726 184.74 43.662C184.236 44.562 183.678 45.57 183.066 46.686C182.49 47.802 181.95 48.81 181.446 49.71C182.022 49.026 182.58 48.378 183.12 47.766C183.696 47.154 184.092 46.722 184.308 46.47C184.74 46.038 185.334 45.498 186.09 44.85C186.846 44.202 187.638 43.608 188.466 43.068C189.294 42.528 190.014 42.222 190.626 42.15C190.77 42.114 190.896 42.096 191.004 42.096C191.112 42.096 191.22 42.096 191.328 42.096C192.012 42.096 192.354 42.348 192.354 42.852C192.354 43.068 192.3 43.32 192.192 43.608C192.084 43.896 191.94 44.184 191.76 44.472C191.544 44.904 191.184 45.588 190.68 46.524C190.176 47.424 189.726 48.252 189.33 49.008L191.868 46.47C192.3 46.038 192.894 45.498 193.65 44.85C194.406 44.202 195.198 43.608 196.026 43.068C196.854 42.528 197.574 42.222 198.186 42.15C198.33 42.114 198.456 42.096 198.564 42.096C198.708 42.096 198.816 42.096 198.888 42.096C199.68 42.096 200.076 42.384 200.076 42.96C200.076 43.392 199.842 43.968 199.374 44.688C199.122 45.084 198.726 45.75 198.186 46.686C197.646 47.622 197.088 48.648 196.512 49.764C195.972 50.844 195.504 51.852 195.108 52.788C194.712 53.724 194.514 54.408 194.514 54.84C194.514 55.344 194.766 55.596 195.27 55.596C195.738 55.596 196.332 55.326 197.052 54.786C197.808 54.21 198.564 53.526 199.32 52.734C200.112 51.942 200.796 51.186 201.372 50.466C201.624 50.178 201.858 49.89 202.074 49.602C202.326 49.278 202.47 49.098 202.506 49.062C202.578 49.134 202.614 49.26 202.614 49.44C202.614 49.692 202.524 49.944 202.344 50.196C202.2 50.412 202.056 50.61 201.912 50.79C201.228 51.69 200.436 52.626 199.536 53.598C198.672 54.57 197.718 55.398 196.674 56.082C195.63 56.73 194.514 57.108 193.326 57.216C192.966 57.252 192.606 57.18 192.246 57C191.886 56.82 191.706 56.532 191.706 56.136C191.706 55.632 191.832 55.038 192.084 54.354C192.372 53.67 192.678 52.986 193.002 52.302C193.362 51.618 193.632 51.06 193.812 50.628C194.46 49.368 195.054 48.18 195.594 47.064C196.134 45.948 196.512 45.156 196.728 44.688C196.836 44.472 196.89 44.292 196.89 44.148C196.89 43.896 196.692 43.878 196.296 44.094C195.9 44.31 195.414 44.634 194.838 45.066C194.298 45.498 193.794 45.93 193.326 46.362C192.858 46.758 192.552 47.028 192.408 47.172C191.796 47.784 191.058 48.612 190.194 49.656C189.366 50.7 188.592 51.798 187.872 52.95C187.152 54.066 186.648 55.11 186.36 56.082C186 56.406 185.658 56.568 185.334 56.568C185.082 56.568 184.866 56.478 184.686 56.298C184.542 56.118 184.47 55.902 184.47 55.65C184.47 54.93 184.686 54.084 185.118 53.112C185.586 52.104 185.964 51.276 186.252 50.628C186.9 49.368 187.494 48.18 188.034 47.064C188.574 45.948 188.952 45.156 189.168 44.688C189.276 44.472 189.33 44.292 189.33 44.148C189.33 43.896 189.132 43.878 188.736 44.094C188.34 44.31 187.854 44.634 187.278 45.066C186.738 45.498 186.234 45.93 185.766 46.362C185.298 46.758 184.992 47.028 184.848 47.172C183.984 48.072 183.174 48.99 182.418 49.926C181.698 50.862 181.086 51.87 180.582 52.95C180.294 53.598 179.988 54.318 179.664 55.11C179.34 55.902 179.07 56.568 178.854 57.108C178.386 57.144 177.918 57.27 177.45 57.486C176.982 57.702 176.658 57.81 176.478 57.81ZM204.598 57.432C203.122 57.432 202.096 57.144 201.52 56.568C200.944 55.992 200.656 55.29 200.656 54.462C200.656 53.418 200.926 52.302 201.466 51.114C202.042 49.926 202.582 48.918 203.086 48.09C203.662 47.226 204.436 46.326 205.408 45.39C206.38 44.454 207.442 43.662 208.594 43.014C209.746 42.366 210.862 42.042 211.942 42.042C212.878 42.042 213.526 42.276 213.886 42.744C214.246 43.176 214.426 43.698 214.426 44.31C214.426 45.426 214.084 46.344 213.4 47.064C212.752 47.784 211.942 48.378 210.97 48.846C209.998 49.278 209.062 49.638 208.162 49.926C207.622 50.07 206.992 50.214 206.272 50.358C205.552 50.502 204.868 50.574 204.22 50.574C203.968 51.222 203.77 51.852 203.626 52.464C203.482 53.076 203.41 53.634 203.41 54.138C203.41 54.75 203.554 55.254 203.842 55.65C204.166 56.046 204.688 56.244 205.408 56.244C205.696 56.244 206.038 56.208 206.434 56.136C206.83 56.064 207.262 55.956 207.73 55.812C208.81 55.452 209.872 54.876 210.916 54.084C211.96 53.292 212.914 52.446 213.778 51.546C214.678 50.61 215.362 49.836 215.83 49.224C215.938 49.332 215.992 49.458 215.992 49.602C215.992 49.782 215.866 50.07 215.614 50.466C214.894 51.474 213.958 52.518 212.806 53.598C211.654 54.678 210.376 55.596 208.972 56.352C207.568 57.072 206.11 57.432 204.598 57.432ZM204.652 49.494C205.12 49.53 205.642 49.53 206.218 49.494C206.83 49.422 207.424 49.296 208 49.116C209.476 48.684 210.538 48 211.186 47.064C211.87 46.092 212.212 45.228 212.212 44.472C212.212 44.04 212.122 43.68 211.942 43.392C211.762 43.104 211.474 42.96 211.078 42.96C210.034 42.96 209.098 43.356 208.27 44.148C207.442 44.904 206.722 45.786 206.11 46.794C205.498 47.802 205.012 48.702 204.652 49.494ZM209.242 39.18C209.206 39.18 209.17 39.126 209.134 39.018C209.098 38.874 209.098 38.766 209.134 38.694C209.854 38.118 210.664 37.47 211.564 36.75C212.5 35.994 213.454 35.202 214.426 34.374C214.93 33.906 215.308 33.6 215.56 33.456C215.812 33.312 216.01 33.24 216.154 33.24C216.262 33.24 216.316 33.402 216.316 33.726C216.316 33.942 216.298 34.176 216.262 34.428C216.226 34.68 216.172 34.842 216.1 34.914C215.812 35.238 215.254 35.67 214.426 36.21C213.634 36.714 212.752 37.236 211.78 37.776C210.808 38.316 209.962 38.784 209.242 39.18ZM217.127 57.162C216.767 57.162 216.461 57.09 216.209 56.946C215.957 56.802 215.831 56.532 215.831 56.136C215.831 55.632 215.957 55.038 216.209 54.354C216.497 53.67 216.803 52.986 217.127 52.302C217.451 51.618 217.721 51.06 217.937 50.628C218.117 50.304 218.351 49.8 218.639 49.116C218.963 48.396 219.287 47.658 219.611 46.902C219.971 46.11 220.259 45.444 220.475 44.904C220.727 44.364 220.853 44.094 220.853 44.094C220.529 44.454 220.097 44.958 219.557 45.606C219.053 46.254 218.495 46.938 217.883 47.658C217.307 48.342 216.767 48.99 216.263 49.602C215.795 50.214 215.453 50.664 215.237 50.952C215.129 51.096 215.039 51.168 214.967 51.168C214.895 51.168 214.859 51.078 214.859 50.898C214.859 50.61 214.949 50.34 215.129 50.088C215.561 49.548 216.083 48.9 216.695 48.144C217.307 47.352 217.919 46.56 218.531 45.768C219.179 44.976 219.737 44.274 220.205 43.662C219.917 43.662 219.539 43.68 219.071 43.716C218.639 43.752 218.243 43.806 217.883 43.878C217.523 43.914 217.325 43.932 217.289 43.932C217.109 43.932 217.127 43.788 217.343 43.5C217.559 43.212 217.847 42.924 218.207 42.636C218.567 42.348 218.837 42.204 219.017 42.204C219.053 42.204 219.341 42.222 219.881 42.258C220.421 42.258 220.817 42.258 221.069 42.258C221.789 41.286 222.491 40.17 223.175 38.91C223.895 37.65 224.597 36.264 225.281 34.752C225.569 34.716 226.055 34.518 226.739 34.158C227.459 33.762 228.017 33.366 228.413 32.97C228.593 32.79 228.737 32.7 228.845 32.7C229.061 32.7 229.061 32.844 228.845 33.132C228.593 33.42 228.161 34.032 227.549 34.968C226.937 35.868 226.253 36.966 225.497 38.262C224.741 39.522 224.021 40.854 223.337 42.258H227.711C228.107 42.258 228.305 42.312 228.305 42.42C228.305 42.564 228.035 42.708 227.495 42.852C226.883 43.032 226.235 43.14 225.551 43.176C224.903 43.212 224.291 43.284 223.715 43.392C223.175 43.5 222.779 43.734 222.527 44.094C222.311 44.346 222.005 44.886 221.609 45.714C221.213 46.542 220.781 47.496 220.313 48.576C219.881 49.62 219.503 50.682 219.179 51.762C218.855 52.806 218.657 53.688 218.585 54.408V54.624C218.585 54.912 218.675 55.146 218.855 55.326C219.035 55.506 219.215 55.596 219.395 55.596C219.863 55.596 220.457 55.308 221.177 54.732C221.933 54.156 222.707 53.472 223.499 52.68C224.291 51.852 224.975 51.096 225.551 50.412C225.803 50.124 226.019 49.854 226.199 49.602C226.415 49.35 226.541 49.188 226.577 49.116C226.649 49.26 226.685 49.368 226.685 49.44C226.685 49.656 226.613 49.89 226.469 50.142C226.361 50.394 226.235 50.61 226.091 50.79C225.407 51.69 224.579 52.644 223.607 53.652C222.635 54.624 221.591 55.452 220.475 56.136C219.395 56.82 218.279 57.162 217.127 57.162ZM236.904 36.372C236.4 36.372 236.04 36.21 235.824 35.886C235.68 35.706 235.608 35.472 235.608 35.184C235.608 34.608 235.878 34.14 236.418 33.78C236.814 33.564 237.174 33.456 237.498 33.456C238.038 33.456 238.416 33.618 238.632 33.942C238.776 34.122 238.848 34.356 238.848 34.644C238.848 35.22 238.56 35.688 237.984 36.048C237.66 36.264 237.3 36.372 236.904 36.372ZM227.508 57.162C227.148 57.162 226.842 57.09 226.59 56.946C226.374 56.802 226.266 56.532 226.266 56.136C226.266 55.632 226.392 55.038 226.644 54.354C226.932 53.67 227.238 52.986 227.562 52.302C227.922 51.618 228.192 51.06 228.372 50.628C228.624 50.124 228.93 49.476 229.29 48.684C229.686 47.856 230.046 47.082 230.37 46.362C230.73 45.606 230.982 45.084 231.126 44.796C230.622 45.336 230.01 46.02 229.29 46.848C228.606 47.64 227.958 48.414 227.346 49.17C226.734 49.926 226.266 50.52 225.942 50.952C225.834 51.096 225.744 51.168 225.672 51.168C225.6 51.168 225.564 51.078 225.564 50.898C225.564 50.61 225.654 50.34 225.834 50.088C226.518 49.224 227.274 48.252 228.102 47.172C228.966 46.092 229.74 45.102 230.424 44.202C231.108 43.266 231.54 42.654 231.72 42.366C232.116 42.294 232.692 42.186 233.448 42.042C234.24 41.898 234.78 41.7 235.068 41.448C235.176 41.34 235.284 41.286 235.392 41.286C235.464 41.286 235.5 41.358 235.5 41.502C235.536 41.61 235.5 41.736 235.392 41.88C235.176 42.132 234.798 42.744 234.258 43.716C233.718 44.688 233.142 45.768 232.53 46.956C231.954 48.108 231.414 49.152 230.91 50.088C230.406 51.06 229.974 51.996 229.614 52.896C229.254 53.796 229.074 54.444 229.074 54.84C229.074 55.344 229.326 55.596 229.83 55.596C230.298 55.596 230.892 55.308 231.612 54.732C232.368 54.156 233.124 53.472 233.88 52.68C234.636 51.852 235.302 51.096 235.878 50.412C236.058 50.196 236.274 49.944 236.526 49.656C236.814 49.332 236.994 49.134 237.066 49.062C237.138 49.134 237.174 49.26 237.174 49.44C237.138 49.692 237.048 49.944 236.904 50.196C236.76 50.412 236.616 50.61 236.472 50.79C235.716 51.726 234.888 52.698 233.988 53.706C233.088 54.678 232.098 55.506 231.018 56.19C229.938 56.838 228.768 57.162 227.508 57.162ZM238.329 57.432C236.997 57.432 236.061 57.18 235.521 56.676C234.981 56.172 234.711 55.524 234.711 54.732C234.711 53.688 235.053 52.536 235.737 51.276C236.421 49.98 237.069 48.9 237.681 48.036C238.293 47.208 238.977 46.434 239.733 45.714C240.525 44.958 241.371 44.31 242.271 43.77C242.847 43.41 243.621 43.032 244.593 42.636C245.601 42.204 246.447 41.988 247.131 41.988C247.959 41.988 248.535 42.186 248.859 42.582C249.183 42.942 249.345 43.392 249.345 43.932C249.345 44.364 249.273 44.814 249.129 45.282C248.985 45.714 248.823 46.128 248.643 46.524C248.535 46.74 248.373 46.902 248.157 47.01C247.941 47.082 247.833 47.046 247.833 46.902C247.833 46.722 247.851 46.56 247.887 46.416C247.923 46.272 247.941 46.11 247.941 45.93C247.941 45.246 247.779 44.58 247.455 43.932C247.167 43.248 246.717 42.906 246.105 42.906C245.457 42.906 244.755 43.14 243.999 43.608C243.243 44.04 242.721 44.418 242.433 44.742C241.497 45.714 240.579 46.92 239.679 48.36C238.815 49.8 238.185 51.168 237.789 52.464C237.537 53.22 237.411 53.868 237.411 54.408C237.411 55.02 237.573 55.452 237.897 55.704C238.221 55.956 238.617 56.082 239.085 56.082C239.445 56.082 239.823 56.028 240.219 55.92C240.651 55.812 241.101 55.686 241.569 55.542C242.649 55.182 243.729 54.624 244.809 53.868C245.925 53.076 246.933 52.248 247.833 51.384C248.733 50.484 249.417 49.71 249.885 49.062C249.957 49.134 249.993 49.242 249.993 49.386C249.993 49.566 249.921 49.782 249.777 50.034C249.633 50.25 249.525 50.43 249.453 50.574C248.697 51.582 247.707 52.626 246.483 53.706C245.259 54.75 243.927 55.632 242.487 56.352C241.083 57.072 239.697 57.432 238.329 57.432ZM249.792 57.108C249.216 57.108 248.694 57 248.226 56.784C247.794 56.532 247.578 56.01 247.578 55.218C247.578 53.958 247.902 52.698 248.55 51.438C249.198 50.142 249.864 49.008 250.548 48.036C251.16 47.208 251.844 46.434 252.6 45.714C253.392 44.958 254.238 44.31 255.138 43.77C255.714 43.41 256.488 43.032 257.46 42.636C258.468 42.204 259.314 41.988 259.998 41.988C260.574 41.988 261.078 42.15 261.51 42.474C261.942 42.762 262.158 43.302 262.158 44.094C262.158 45.318 261.834 46.578 261.186 47.874C260.574 49.134 259.926 50.25 259.242 51.222C258.918 51.654 258.594 52.068 258.27 52.464C257.946 52.824 257.586 53.202 257.19 53.598C258.522 53.598 259.746 53.22 260.862 52.464C261.978 51.672 262.95 50.718 263.778 49.602L263.886 49.494C263.994 49.494 264.048 49.602 264.048 49.818C264.048 50.07 263.976 50.304 263.832 50.52C263.112 51.528 262.212 52.428 261.132 53.22C260.052 53.976 258.828 54.354 257.46 54.354C257.316 54.354 257.172 54.354 257.028 54.354C256.884 54.354 256.74 54.336 256.596 54.3C254.58 56.172 252.312 57.108 249.792 57.108ZM251.196 56.19C251.7 56.19 252.24 56.01 252.816 55.65C253.428 55.29 253.896 54.948 254.22 54.624C254.832 54.012 255.39 53.364 255.894 52.68C256.398 51.96 256.866 51.24 257.298 50.52C257.802 49.656 258.306 48.63 258.81 47.442C259.314 46.254 259.566 45.138 259.566 44.094C259.566 43.266 259.278 42.852 258.702 42.852C258.234 42.852 257.658 43.05 256.974 43.446C256.326 43.842 255.84 44.202 255.516 44.526C254.292 45.786 253.266 47.154 252.438 48.63C251.97 49.458 251.466 50.43 250.926 51.546C250.386 52.662 250.116 53.688 250.116 54.624C250.116 54.768 250.116 54.912 250.116 55.056C250.152 55.164 250.188 55.29 250.224 55.434C250.368 55.938 250.692 56.19 251.196 56.19ZM266.459 57.864C265.811 57.864 265.127 57.774 264.407 57.594C263.687 57.414 263.039 57.126 262.463 56.73C261.923 56.298 261.563 55.722 261.383 55.002C261.347 54.894 261.329 54.732 261.329 54.516C261.329 54.012 261.437 53.454 261.653 52.842C261.905 52.23 262.211 51.798 262.571 51.546C262.715 51.474 262.823 51.474 262.895 51.546C263.003 51.618 263.021 51.69 262.949 51.762C262.913 51.87 262.859 52.014 262.787 52.194C262.715 52.338 262.661 52.5 262.625 52.68C262.517 53.616 262.715 54.444 263.219 55.164C263.435 55.452 263.687 55.722 263.975 55.974C264.299 56.226 264.605 56.442 264.893 56.622C265.145 56.766 265.451 56.874 265.811 56.946C266.171 56.982 266.531 57 266.891 57C267.467 57 268.025 56.928 268.565 56.784C269.105 56.64 269.501 56.406 269.753 56.082C270.221 55.506 270.455 54.858 270.455 54.138C270.455 53.598 270.311 53.022 270.023 52.41C269.735 51.798 269.285 51.15 268.673 50.466C268.277 50.034 267.899 49.566 267.539 49.062C267.179 48.558 266.945 48.018 266.837 47.442C266.801 47.334 266.765 47.226 266.729 47.118C266.729 47.01 266.729 46.902 266.729 46.794C266.261 47.478 265.775 48.126 265.271 48.738C264.803 49.314 264.389 49.818 264.029 50.25C263.885 50.466 263.759 50.574 263.651 50.574C263.579 50.574 263.543 50.502 263.543 50.358C263.543 50.034 263.687 49.692 263.975 49.332C264.263 49.008 264.587 48.612 264.947 48.144C265.307 47.64 265.595 47.244 265.811 46.956C266.423 46.056 266.873 45.354 267.161 44.85C267.485 44.31 267.827 43.824 268.187 43.392C268.583 42.924 269.069 42.546 269.645 42.258C270.257 41.97 270.887 41.826 271.535 41.826C272.291 41.826 272.975 41.952 273.587 42.204C274.235 42.42 274.577 42.996 274.613 43.932C274.613 44.364 274.523 44.814 274.343 45.282C274.199 45.714 274.037 46.128 273.857 46.524C273.749 46.74 273.587 46.902 273.371 47.01C273.191 47.082 273.101 47.046 273.101 46.902C273.101 46.758 273.119 46.596 273.155 46.416C273.191 46.236 273.209 46.074 273.209 45.93C273.209 45.318 273.101 44.778 272.885 44.31C272.705 43.806 272.435 43.446 272.075 43.23C271.715 42.978 271.337 42.852 270.941 42.852C270.365 42.852 269.807 43.086 269.267 43.554C268.727 43.986 268.457 44.562 268.457 45.282C268.457 45.354 268.457 45.444 268.457 45.552C268.457 45.66 268.475 45.75 268.511 45.822C268.655 46.398 269.087 47.046 269.807 47.766C270.527 48.486 271.085 49.116 271.481 49.656C272.165 50.592 272.507 51.546 272.507 52.518C272.507 53.49 272.219 54.39 271.643 55.218C271.103 56.01 270.365 56.64 269.429 57.108C268.529 57.612 267.539 57.864 266.459 57.864Z" fill="black"/>
<path d="M0.5 67.5H289.5" stroke="black"/>
<path d="M4 71H293" stroke="#EB9AC0"/>
</svg>
